<mxfile host="app.diagrams.net" modified="2023-09-18T14:58:20.211Z" agent="Mozilla/5.0 (X11; Ubuntu; Linux x86_64; rv:102.0) Gecko/20100101 Firefox/102.0" etag="cRfh3vlTlOkYSB9uMjAy" version="21.7.5" type="device">
  <diagram name="Page-1" id="UPMB_5sPhWqOSd042oPF">
    <mxGraphModel dx="1570" dy="1093" grid="1" gridSize="10" guides="1" tooltips="1" connect="1" arrows="1" fold="1" page="1" pageScale="1" pageWidth="827" pageHeight="1169" math="0" shadow="0">
      <root>
        <mxCell id="0" />
        <mxCell id="1" parent="0" />
        <mxCell id="3R0D6cxO1X3JCbrjLW3T-30" value="" style="rounded=0;whiteSpace=wrap;html=1;" vertex="1" parent="1">
          <mxGeometry x="1040" y="160" width="759.5" height="500" as="geometry" />
        </mxCell>
        <mxCell id="3R0D6cxO1X3JCbrjLW3T-36" value="" style="rounded=0;whiteSpace=wrap;html=1;" vertex="1" parent="1">
          <mxGeometry x="1310" y="280" width="310" height="200" as="geometry" />
        </mxCell>
        <mxCell id="3R0D6cxO1X3JCbrjLW3T-14" value="" style="rounded=0;whiteSpace=wrap;html=1;" vertex="1" parent="1">
          <mxGeometry x="40.5" y="360" width="959.5" height="630" as="geometry" />
        </mxCell>
        <mxCell id="3R0D6cxO1X3JCbrjLW3T-9" value="" style="rounded=0;whiteSpace=wrap;html=1;" vertex="1" parent="1">
          <mxGeometry x="40" y="160" width="960" height="180" as="geometry" />
        </mxCell>
        <mxCell id="CxfFCgC8d7JFwfUCHYsS-13" value="EC API Catalog Project" style="text;strokeColor=none;align=center;fillColor=none;html=1;verticalAlign=middle;whiteSpace=wrap;rounded=0;fontSize=21;" parent="1" vertex="1">
          <mxGeometry x="289" y="46" width="250" height="60" as="geometry" />
        </mxCell>
        <mxCell id="3R0D6cxO1X3JCbrjLW3T-17" style="edgeStyle=orthogonalEdgeStyle;rounded=0;orthogonalLoop=1;jettySize=auto;html=1;" edge="1" parent="1" source="3R0D6cxO1X3JCbrjLW3T-2" target="3R0D6cxO1X3JCbrjLW3T-16">
          <mxGeometry relative="1" as="geometry" />
        </mxCell>
        <mxCell id="3R0D6cxO1X3JCbrjLW3T-55" value="REST call" style="edgeLabel;html=1;align=center;verticalAlign=middle;resizable=0;points=[];" vertex="1" connectable="0" parent="3R0D6cxO1X3JCbrjLW3T-17">
          <mxGeometry x="0.4156" relative="1" as="geometry">
            <mxPoint as="offset" />
          </mxGeometry>
        </mxCell>
        <mxCell id="3R0D6cxO1X3JCbrjLW3T-2" value="API Catalog&#xa;eUI&#xa;nGinx" style="shape=image;verticalLabelPosition=bottom;labelBackgroundColor=default;verticalAlign=top;aspect=fixed;imageAspect=0;image=https://euidev.ecdevops.eu/assets/images/landing-page/eui-logo.svg;fontStyle=1" vertex="1" parent="1">
          <mxGeometry x="409.58" y="400" width="90" height="90" as="geometry" />
        </mxCell>
        <mxCell id="3R0D6cxO1X3JCbrjLW3T-25" style="edgeStyle=orthogonalEdgeStyle;rounded=0;orthogonalLoop=1;jettySize=auto;html=1;" edge="1" parent="1" source="3R0D6cxO1X3JCbrjLW3T-3" target="3R0D6cxO1X3JCbrjLW3T-2">
          <mxGeometry relative="1" as="geometry">
            <Array as="points">
              <mxPoint x="385" y="445" />
            </Array>
          </mxGeometry>
        </mxCell>
        <mxCell id="3R0D6cxO1X3JCbrjLW3T-53" value="deploy" style="edgeLabel;html=1;align=center;verticalAlign=middle;resizable=0;points=[];" vertex="1" connectable="0" parent="3R0D6cxO1X3JCbrjLW3T-25">
          <mxGeometry x="0.0298" y="-3" relative="1" as="geometry">
            <mxPoint as="offset" />
          </mxGeometry>
        </mxCell>
        <mxCell id="3R0D6cxO1X3JCbrjLW3T-26" style="edgeStyle=orthogonalEdgeStyle;rounded=0;orthogonalLoop=1;jettySize=auto;html=1;exitX=1;exitY=0.5;exitDx=0;exitDy=0;entryX=0;entryY=0.5;entryDx=0;entryDy=0;" edge="1" parent="1" source="3R0D6cxO1X3JCbrjLW3T-3" target="3R0D6cxO1X3JCbrjLW3T-16">
          <mxGeometry relative="1" as="geometry" />
        </mxCell>
        <mxCell id="3R0D6cxO1X3JCbrjLW3T-52" value="deploy" style="edgeLabel;html=1;align=center;verticalAlign=middle;resizable=0;points=[];" vertex="1" connectable="0" parent="3R0D6cxO1X3JCbrjLW3T-26">
          <mxGeometry y="-4" relative="1" as="geometry">
            <mxPoint as="offset" />
          </mxGeometry>
        </mxCell>
        <mxCell id="3R0D6cxO1X3JCbrjLW3T-3" value="&lt;b&gt;Gitlab CI/CD&lt;br&gt;&lt;/b&gt;&lt;div&gt;gitlab.debuck.info&lt;/div&gt;" style="shape=image;html=1;verticalAlign=top;verticalLabelPosition=bottom;labelBackgroundColor=#ffffff;imageAspect=0;aspect=fixed;image=https://cdn4.iconfinder.com/data/icons/socialcones/508/Gitlab-128.png" vertex="1" parent="1">
          <mxGeometry x="340" y="636" width="90" height="90" as="geometry" />
        </mxCell>
        <mxCell id="3R0D6cxO1X3JCbrjLW3T-8" value="" style="shape=image;verticalLabelPosition=bottom;labelBackgroundColor=default;verticalAlign=top;aspect=fixed;imageAspect=0;image=data:image/svg+xml,PHN2ZyB2aWV3Qm94PSIwIDAgMTM4LjggNzIiIHhtbG5zPSJodHRwOi8vd3d3LnczLm9yZy8yMDAwL3N2ZyIgaWQ9IkxheWVyXzEiPjxhMDpzdHlsZSB4bWxuczphMD0iaHR0cDovL3d3dy53My5vcmcvMjAwMC9zdmciIGlkPSJkYXJrLW1vZGUtY3VzdG9tLXN0eWxlIiB0eXBlPSJ0ZXh0L2NzcyIgbGFuZz0iZW4iIHhtbG5zPSIiLz48YTE6c3R5bGUgeG1sbnM6YTE9Imh0dHA6Ly93d3cudzMub3JnLzIwMDAvc3ZnIiBpZD0iZGFyay1tb2RlLW5hdGl2ZS1zdHlsZSIgdHlwZT0idGV4dC9jc3MiIGxhbmc9ImVuIiB4bWxucz0iIi8+PGEyOnN0eWxlIHhtbG5zOmEyPSJodHRwOi8vd3d3LnczLm9yZy8yMDAwL3N2ZyIgaWQ9ImRhcmstbW9kZS1uYXRpdmUtc2hlZXQiIHR5cGU9InRleHQvY3NzIiBsYW5nPSJlbiIgeG1sbnM9IiIvPjxzdHlsZT4uc3Qwe2ZpbGw6I2JiYmRiZn0uc3Qxe2ZpbGw6IzAzNGRhMX0uc3Qye2ZpbGw6I2ZmZjEwMH08L3N0eWxlPjxnIGlkPSJQYWdlLTEiPjxnIHRyYW5zZm9ybT0idHJhbnNsYXRlKC0xMzEgLTEwOCkiIGlkPSJWZXJzaW9uLTItbWVudSI+PGcgdHJhbnNmb3JtPSJ0cmFuc2xhdGUoMTMxIDEwOCkiIGlkPSJTaXRlLWhlYWRlciI+PGcgaWQ9ImxvZ28tY29weSI+PGcgaWQ9Ikdyb3VwLTIwIj48ZyBpZD0iR3JvdXAtMTgtQ29weSI+PHBhdGggZD0iTTAgMjQuNXMzOS44LTUuMiA0MS01LjRjMS43LS4zIDMuMy0uNiA0LjctMSAzLjItLjkgNi4yLTIuMiA4LjgtNCAyLjUtMS43IDQuOS00LjIgNy4yLTYuOSAxLjUtMS43IDMtNCA0LjUtNi4yVjBjLTEuNyAyLjYtMy40IDQuOC01LjEgNi43LTIuMyAyLjYtNC43IDQuNy03LjIgNi4zcy01LjQgMi45LTguNSAzLjdjLTEuNC40LTIuOS42LTQuNi45LTEuMS4yLTIuMi4zLTMuMy40QzM3IDE4IDAgMjEuOSAwIDIxLjl2Mi42eiIgY2xhc3M9InN0MCIgaWQ9IkZpbGwtNDAiLz48cGF0aCBkPSJNNTMuNCAxNy44Yy0yLjUgMS40LTUuNCAyLjUtOC42IDMuMS0xLjQuMy0yLjguNS00LjUuN2wtMyAuM2MtLjUgMC0xLjEuMS0xLjYuMS0xMi4yIDEuMi0yNC4zIDIuMy0zNS43IDMuNFYyOGMxMS40LTEuNCAyMy43LTIuOSAzNS45LTQuMy41LS4xIDEuMS0uMSAxLjYtLjIgMS0uMSAyLS4yIDMtLjQgMS43LS4yIDMuMy0uNSA0LjYtLjggMy4zLS43IDYuMy0xLjkgOC45LTMuNSAyLjYtMS42IDQuOC0zLjcgNy4zLTYuNCAxLjUtMS43IDMuMi00IDQuOC02LjJ2LTFjLTEuOSAyLjUtMy42IDQuNy01LjQgNi41LTIuNCAyLjctNC44IDQuNy03LjMgNi4xIiBjbGFzcz0ic3QwIiBpZD0iRmlsbC00MSIvPjxwYXRoIGQ9Ik02MC40IDE3LjJjLTIuNCAyLjItNSA0LTcuNSA1LjMtMi41IDEuMi01LjMgMi4xLTguNiAyLjYtMS40LjItMi44LjQtNC41LjZMMCAyOC45djIuNmwzNS4zLTMuOCA0LjYtLjVjMS43LS4yIDMuMi0uNCA0LjYtLjcgMy40LS42IDYuMy0xLjYgOC45LTIuOSAyLjctMS40IDUuMy0zLjYgNy44LTYgMS43LTEuNiAzLjItMy43IDQuOS01Ljh2LS45Yy0yIDIuNS0zLjggNC41LTUuNyA2LjMiIGNsYXNzPSJzdDAiIGlkPSJGaWxsLTQyIi8+PHBhdGggZD0iTTUwLjggMzAuNmMtMi4zIDEuMy00IDIuMS03LjMgMi40LTIgLjItNCAuMy02IC40LTEgMC0xLjkuMS0yLjkuMi02IC4zLTExLjkuNy0xNy45IDEuMUwwIDM1Ljl2Mi42bDE2LjgtMS42YzUuNC0uNSAxMS43LTEuMSAxNy45LTEuNmw0LjUtLjNjMS43LS4xIDMuMi0uMyA0LjUtLjUgMy40LS40IDYuMy0xLjEgOC45LTIuMSAyLjgtMSA1LjQtMi43IDgtNC42IDIuNC0xLjcgNS42LTUuMSA1LjYtNS4ydi0uOWMtMi4xIDIuMS0zLjQgMy4zLTUuNyA0LjgtMi45IDItNy42IDMtOS43IDQuMSIgY2xhc3M9InN0MCIgaWQ9IkZpbGwtNDMiLz48cGF0aCBkPSJNNTEuNiAzNS42Yy0yLjUuNy01LjMgMS4yLTguNiAxLjUtMS4zLjEtMi44LjItNC40LjNsLTQuNC4yYy0xMSAuNS0yMiAxLjEtMzQuMSAxLjd2Mi42YzExLjYtLjkgMjIuOS0xLjggMzQuMy0yLjZsNC40LS4zYzEuNy0uMSAzLjEtLjIgNC41LS40IDMuNC0uNCA2LjMtMSA4LjgtMS44IDIuOC0uOSA1LjYtMi4yIDguMi0zLjkgMS45LTEuMiAzLjktMi43IDUuOS00LjUtMi4yIDEuOS00LjMgMi4zLTYuNCAzLjYtMi43IDEuNi01LjQgMi44LTguMiAzLjYiIGNsYXNzPSJzdDAiIGlkPSJGaWxsLTQ0Ii8+PHBhdGggZD0iTTUxLjIgMzkuOWMtMi41LjYtNS4zIDEtOC42IDEuMi0xLjMuMS0yLjcuMi00LjQuMmwtNC40LjJjLTExLjEuNC0yMi4zLjktMzMuOCAxLjR2Mi42YzExLjQtLjggMjIuNi0xLjUgMzMuOS0yLjNsNC40LS4zYzEuNy0uMSAzLjEtLjIgNC40LS4zIDMuNC0uMyA2LjItLjggOC44LTEuNSAyLjktLjggNS43LTEuOSA4LjQtMy4zIDIuMS0xLjEgNC4xLTIuNCA2LjItNHYtMS4xYy0yLjMgMS43LTQuNSAzLTYuNyA0LjEtMi42IDEuNC01LjQgMi40LTguMiAzLjEiIGNsYXNzPSJzdDAiIGlkPSJGaWxsLTQ1Ii8+PHBhdGggZD0iTTUwLjggNDQuMWMtMi41LjUtNS4zLjgtOC42LjktMS4zLjEtMi42LjEtNC4zLjJMMCA0Ni4ydjIuNkwzMy42IDQ3bDQuNC0uMmMxLjctLjEgMy4xLS4yIDQuNC0uMyAzLjQtLjMgNi4xLS42IDguNy0xLjIgMi45LS42IDUuOC0xLjUgOC41LTIuNyAyLjItLjkgNC4zLTIgNi42LTMuNHYtMWMtMi40IDEuNC00LjcgMi41LTcgMy40LTIuNyAxLjItNS41IDItOC40IDIuNSIgY2xhc3M9InN0MCIgaWQ9IkZpbGwtNDYiLz48cGF0aCBkPSJNNTAuNSA0OC4zYy00LjcuNi05LjQuNy0xNC4xLjgtMS4xIDAtMi4xIDAtMy4yLjFMMCA0OS44djIuNkwzMy4zIDUxYzEuMSAwIDIuMS0uMSAzLjItLjEgNC43LS4yIDkuNS0uNCAxNC4yLTEuMSAzLS41IDUuOS0xLjIgOC41LTIuMSAyLjItLjcgNC41LTEuNyA2LjgtMi45di0xYy0yLjQgMS4xLTQuOSAyLjEtNy4yIDIuOC0yLjUuNy01LjMgMS40LTguMyAxLjciIGNsYXNzPSJzdDAiIGlkPSJGaWxsLTQ3Ii8+PHBhdGggZD0iTTUwLjMgNTIuNmMtNC40LjQtOC44LjQtMTMuMi40aC00Yy0xMSAwLTIyIC4xLTMzLjEuMnYyLjZjMTAuNi0uNCAyMS45LS43IDMzLjItMS4xIDEuMyAwIDIuNy0uMSA0LS4xIDQuMy0uMSA4LjgtLjIgMTMuMi0uNyAzLjEtLjMgNS45LS44IDguNi0xLjUgMi4zLS42IDQuNy0xLjQgNy4yLTIuM3YtLjljLTIuNS45LTUgMS42LTcuNCAyLjItMi43LjYtNS41IDEtOC41IDEuMiIgY2xhc3M9InN0MCIgaWQ9IkZpbGwtNDgiLz48cGF0aCBkPSJNNTAuMSA1Ni44Yy0xLjguMS0zLjguMS02IC4xaC0yLjVsLTguNi0uMWMtNS45IDAtMTEuNy0uMS0xNy4yLS4xTDAgNTYuOHYyLjZsMTUuOS0uNGM1LjUtLjEgMTEuMy0uMyAxNy4xLS40bDguNi0uMWMyLjQgMCA1LjUtLjEgOC42LS4zczUuOS0uNSA4LjYtLjljMi40LS40IDQuOS0uOSA3LjQtMS41di0uOWMtMi41LjYtNS4xIDEuMS03LjUgMS40LTIuOC4yLTUuNS40LTguNi41IiBjbGFzcz0ic3QwIiBpZD0iRmlsbC00OSIvPjxwYXRoIGQ9Ik00MS41IDYwLjlsLTguNi0uMWMtMTAuOS0uMi0yMS44LS40LTMyLjktLjZ2Mi42YzEwLjYtLjEgMjEuOC0uMiAzMi45LS4zbDguNi0uMWMyLjkgMCA1LjctLjEgOC42LS4yIDUuOS0uMiAxMS4xLS42IDE2LjEtMS4zVjYwYy00LjkuNS0xMC4yLjgtMTYuMS45aC04LjYiIGNsYXNzPSJzdDAiIGlkPSJGaWxsLTUwIi8+PHBhdGggZD0iTTY2LjEgNjUuNUwwIDYzLjh2Mi42aDY2LjF2LS45eiIgY2xhc3M9InN0MCIgaWQ9IkZpbGwtNTEiLz48cGF0aCBkPSJNNjAuMiAyMmMtMi41IDItNC41IDMuNS03LjUgNC43LTIuNyAxLjEtNS42IDEuNS04LjggMi0yLjEuMy00LjMuNy02LjQuOS0uOS4xLTEuNy4xLTIuNi4yTDAgMzIuM3YyLjZsMzQuOS0zLjQgNC41LS40YzEuNy0uMiAzLjItLjMgNC42LS42IDMuNC0uNSA2LjMtMS40IDguOS0yLjYgMi43LTEuMiA1LjUtMy4yIDgtNS4zIDEuNy0xLjUgMy40LTMuMyA1LjItNS4zdi0uOWMtMi4yIDIuMi00IDQuMS01LjkgNS42IiBjbGFzcz0ic3QwIiBpZD0iRmlsbC01MiIvPjxwYXRoIGQ9Ik05NC4yIDBzMTEuOSAxOC45IDE0LjEgMjIuNCA0LjcgNi4yIDEzLjUgOC4xIDEyLjYgMi43IDEyLjYgMi43di43cy01LjYtMS4yLTEyLjgtMi44Yy03LjItMS42LTEwLjEtMi4xLTEzLjQtNi43LTIuNy0zLjgtMTQtMTkuOS0xNC0xOS45VjB6IiBjbGFzcz0ic3QwIiBpZD0iRmlsbC01MyIvPjxwYXRoIGQ9Ik05NC4yIDIxLjZzMTAuOCAxMS4zIDE0IDE0LjZjMy4zIDMuNSA3LjYgNC43IDEzLjUgNS44IDUuNiAxIDEyLjcgMi4yIDEyLjcgMi4ydi42cy02LjctMS4xLTEyLjctMi4xYy01LjktMS0xMC4xLTEuNi0xMy41LTQuNy0zLTIuOC0xMy45LTEzLTEzLjktMTNsLS4xLTMuNHoiIGNsYXNzPSJzdDAiIGlkPSJGaWxsLTU0Ii8+PHBhdGggZD0iTTk0LjIgMjYuOHMxMC4zIDkuNiAxNCAxMi44YzMuNCAzIDYuMSAzLjkgMTMuNSA1LjMgNy40IDEuMyAxMi43IDIuMSAxMi43IDIuMXYuN3MtNi43LTEuMS0xMi43LTIuMS05LjktMS4zLTEzLjUtNC4zYy00LjItMy40LTE0LTExLjQtMTQtMTEuNHYtMy4xeiIgY2xhc3M9InN0MCIgaWQ9IkZpbGwtNTUiLz48cGF0aCBkPSJNOTQuMiAzMi4yczExLjggOS4zIDE0IDExYzIuMiAxLjYgNS4xIDMuNSAxMy41IDQuOCA4LjQgMS4yIDEyLjcgMS44IDEyLjcgMS44di43cy03LjYtMS4xLTEyLjctMS43Yy01LjEtLjYtOS0uOS0xMy41LTMuOS00LjQtMi45LTE0LTkuNy0xNC05Ljd2LTN6IiBjbGFzcz0ic3QwIiBpZD0iRmlsbC01NiIvPjxwYXRoIGQ9Ik05NC4yIDM3LjRzMTEuOCA3LjkgMTQgOS4xYzIuMiAxLjIgNC45IDMuMyAxMy41IDQuNCA4LjYgMS4xIDEyLjcgMS42IDEyLjcgMS42di43cy03LjEtLjgtMTIuNy0xLjRjLTUuNi0uNi05LjQtMS40LTEzLjUtMy43cy0xNC04LTE0LTh2LTIuN3oiIGNsYXNzPSJzdDAiIGlkPSJGaWxsLTU3Ii8+PHBhdGggZD0iTTk0LjIgNDIuN3MxMC40IDUuNyAxNCA3LjRjMy45IDIgNy4zIDIuOSAxMy41IDMuNyA2LjEuNyAxMi43IDEuNCAxMi43IDEuNHYuNnMtNi4xLS43LTEyLjctMS4zYy02LjUtLjYtOC44LS45LTEzLjUtMy00LjItMS45LTE0LTYuNC0xNC02LjR2LTIuNHoiIGNsYXNzPSJzdDAiIGlkPSJGaWxsLTU4Ii8+PHBhdGggZD0iTTk0LjIgNDhzOC4yIDMuNSAxNCA1LjhjNS43IDIuMyAxMCAyLjUgMTMuNSAyLjggMS41LjIgMTIuNiAxLjMgMTIuNiAxLjN2LjZzLTYuNi0uNS0xMi43LTEuMWMtNi0uNS04LjYtLjgtMTMuNS0yLjQtNC45LTEuNi0xNC00LjgtMTQtNC44bC4xLTIuMnoiIGNsYXNzPSJzdDAiIGlkPSJGaWxsLTU5Ii8+PHBhdGggZD0iTTk0LjIgNTMuNHM4LjMgMi42IDE0IDQuMSAxMC45IDIuMSAxMy41IDIuMyAxMi43IDEgMTIuNyAxdi42cy01LjctLjQtMTIuNy0uOWMtNS43LS40LTEwLjItLjgtMTMuNS0xLjYtMy43LS44LTE0LTMuMy0xNC0zLjN2LTIuMnoiIGNsYXNzPSJzdDAiIGlkPSJGaWxsLTYwIi8+PHBhdGggZD0iTTk0LjIgNTguN3M2LjggMS4yIDE0IDIuNGM1LjQuOSAxMi43IDEuNSAxMy41IDEuNXMxMi43LjkgMTIuNy45di42cy03LjYtLjQtMTIuNy0uN2MtNS4zLS4zLTEwLjUtLjYtMTMuNS0uOS02LjctLjctMTQtMS42LTE0LTEuNnYtMi4yeiIgY2xhc3M9InN0MCIgaWQ9IkZpbGwtNjEiLz48cGF0aCBkPSJNOTQuMiA2NC4zczEwLjcuNCAxNCAuNSAyNi4yIDEgMjYuMiAxdi42SDk0LjJ2LTIuMXoiIGNsYXNzPSJzdDAiIGlkPSJGaWxsLTYyIi8+PHBhdGggZD0iTTEyMS43IDMzLjRjLTkuNy0yLjEtMTEuOS01LjYtMTMuNS03LjhTOTQuMyA1LjQgOTQuMyA1LjR2NC4xYy41LjYgMTEgMTQuNCAxNCAxOC4yIDMuMyA0LjMgOC41IDUuMyAxMy41IDYuMyA1IDEuMSAxMi43IDIuNiAxMi43IDIuNlYzNmMtLjEgMC0xMC4zLTItMTIuOC0yLjYiIGNsYXNzPSJzdDAiIGlkPSJGaWxsLTYzIi8+PHBhdGggZD0iTTEyMS43IDM2LjNjLTgtMS42LTExLjItNC4xLTEzLjUtNy4xLTIuMy0zLjEtMTMuOS0xOC4zLTEzLjktMTguM3YzLjhjLjUuNiAxMS4xIDEzLjEgMTMuOSAxNi40IDMuMyAzLjggNy45IDQuOCAxMy41IDUuOHMxMi43IDIuNCAxMi43IDIuNHYtLjZzLTguMS0xLjUtMTIuNy0yLjQiIGNsYXNzPSJzdDAiIGlkPSJGaWxsLTY0Ii8+PHBhdGggZD0iTTEyMS43IDM5LjJjLTguMy0xLjYtMTAtMi45LTEzLjUtNi44LTIuMi0yLjQtMTMuNS0xNS43LTE0LTE2LjN2My41czEwLjUgMTEuMiAxMy45IDE0LjZjNC40IDQuNCA4LjYgNC43IDEzLjUgNS42IDQuOS45IDEyLjcgMi4zIDEyLjcgMi4zdi0uNmMuMSAwLTkuMy0xLjYtMTIuNi0yLjMiIGNsYXNzPSJzdDAiIGlkPSJGaWxsLTY1Ii8+PHBhdGggZD0iTTg1LjQgMjcuNkgyNy41djM4LjdoNTcuOVYyNy42eiIgY2xhc3M9InN0MSIgaWQ9IkZpbGwtNjYiLz48cGF0aCBkPSJNNTcuMSAzMy4xaDJsLTEuNiAxLjMuNiAyLTEuNi0xLjItMS42IDEuMi42LTItMS42LTEuM2gybC42LTIgLjYgMnoiIGNsYXNzPSJzdDIiIGlkPSJGaWxsLTY3Ii8+PHBhdGggZD0iTTU3LjEgNTguOWgybC0xLjYgMS4yLjYgMS45LTEuNi0xLjItMS42IDEuMi42LTEuOS0xLjYtMS4yaDJsLjYtMS45LjYgMS45eiIgY2xhc3M9InN0MiIgaWQ9IkZpbGwtNjgiLz48cGF0aCBkPSJNNjMuNSA1Ny4yaDJsLTEuNiAxLjIuNiAxLjktMS42LTEuMi0xLjYgMS4yLjYtMS45LTEuNi0xLjJoMmwuNi0xLjkuNiAxLjl6IiBjbGFzcz0ic3QyIiBpZD0iRmlsbC02OSIvPjxwYXRoIGQ9Ik02My41IDM0LjhoMkw2My45IDM2bC42IDEuOS0xLjYtMS4yLTEuNiAxLjMuNy0yLTEuNi0xLjJoMmwuNi0xLjkuNSAxLjl6IiBjbGFzcz0ic3QyIiBpZD0iRmlsbC03MCIvPjxwYXRoIGQ9Ik02OC4zIDM5LjZoMmwtMS42IDEuMi42IDEuOS0xLjYtMS4yLTEuNiAxLjIuNi0xLjktMS42LTEuMmgybC42LTEuOS42IDEuOXoiIGNsYXNzPSJzdDIiIGlkPSJGaWxsLTcxIi8+PHBhdGggZD0iTTY4LjMgNTIuNmgybC0xLjYgMS4yLjYgMS45LTEuNi0xLjItMS42IDEuMi42LTEuOS0xLjYtMS4yaDJsLjYtMS45LjYgMS45eiIgY2xhc3M9InN0MiIgaWQ9IkZpbGwtNzIiLz48cGF0aCBkPSJNNzAuMSA0NmgybC0xLjYgMS4yLjYgMS45LTEuNi0xLjItMS42IDEuMi42LTEuOS0xLjctMS4yaDJsLjYtMS45LjcgMS45eiIgY2xhc3M9InN0MiIgaWQ9IkZpbGwtNzMiLz48cGF0aCBkPSJNNTAuNSAzNC44aDJMNTAuOSAzNmwuNiAxLjktMS41LTEuMS0xLjcgMS4yLjYtMS45LTEuNi0xLjJoMkw1MCAzM2wuNSAxLjh6IiBjbGFzcz0ic3QyIiBpZD0iRmlsbC03NCIvPjxwYXRoIGQ9Ik00NS45IDM5LjZoMmwtMS42IDEuMi42IDEuOS0xLjYtMS4yLTEuNiAxLjIuNi0xLjktMS42LTEuMmgybC42LTEuOS42IDEuOXoiIGNsYXNzPSJzdDIiIGlkPSJGaWxsLTc1Ii8+PHBhdGggZD0iTTQ0LjIgNDZoMmwtMS42IDEuMi42IDEuOS0xLjYtMS4yLTEuNiAxLjIuNi0xLjlMNDEgNDZoMmwuNi0xLjkuNiAxLjl6IiBjbGFzcz0ic3QyIiBpZD0iRmlsbC03NiIvPjxwYXRoIGQ9Ik00NS45IDUyLjZoMmwtMS42IDEuMi42IDEuOS0xLjYtMS4yLTEuNiAxLjIuNi0xLjktMS42LTEuMmgybC42LTEuOS42IDEuOXoiIGNsYXNzPSJzdDIiIGlkPSJGaWxsLTc3Ii8+PHBhdGggZD0iTTUwLjYgNTcuM2gyTDUxIDU4LjVsLjYgMS45LTEuNi0xLjItMS42IDEuMi42LTEuOS0xLjYtMS4yaDJsLjYtMS45LjYgMS45eiIgY2xhc3M9InN0MiIgaWQ9IkZpbGwtNzgiLz48L2c+PC9nPjwvZz48L2c+PC9nPjwvZz48L3N2Zz4=;" vertex="1" parent="1">
          <mxGeometry x="40.5" y="40" width="139" height="72" as="geometry" />
        </mxCell>
        <mxCell id="3R0D6cxO1X3JCbrjLW3T-10" value="Public Internet" style="text;strokeColor=none;align=center;fillColor=none;html=1;verticalAlign=middle;whiteSpace=wrap;rounded=0;fontStyle=1" vertex="1" parent="1">
          <mxGeometry x="40" y="160" width="60" height="30" as="geometry" />
        </mxCell>
        <mxCell id="3R0D6cxO1X3JCbrjLW3T-11" value="Users" style="sketch=0;outlineConnect=0;fontColor=#232F3E;gradientColor=none;fillColor=#232F3D;strokeColor=none;dashed=0;verticalLabelPosition=bottom;verticalAlign=top;align=center;html=1;fontSize=12;fontStyle=1;aspect=fixed;pointerEvents=1;shape=mxgraph.aws4.user;" vertex="1" parent="1">
          <mxGeometry x="336" y="180" width="78" height="78" as="geometry" />
        </mxCell>
        <mxCell id="3R0D6cxO1X3JCbrjLW3T-13" style="edgeStyle=orthogonalEdgeStyle;rounded=0;orthogonalLoop=1;jettySize=auto;html=1;" edge="1" parent="1" source="3R0D6cxO1X3JCbrjLW3T-12" target="3R0D6cxO1X3JCbrjLW3T-2">
          <mxGeometry relative="1" as="geometry" />
        </mxCell>
        <mxCell id="3R0D6cxO1X3JCbrjLW3T-54" value="visits" style="edgeLabel;html=1;align=center;verticalAlign=middle;resizable=0;points=[];" vertex="1" connectable="0" parent="3R0D6cxO1X3JCbrjLW3T-13">
          <mxGeometry x="-0.1576" y="2" relative="1" as="geometry">
            <mxPoint y="1" as="offset" />
          </mxGeometry>
        </mxCell>
        <mxCell id="3R0D6cxO1X3JCbrjLW3T-51" style="edgeStyle=orthogonalEdgeStyle;rounded=0;orthogonalLoop=1;jettySize=auto;html=1;entryX=0;entryY=0.5;entryDx=0;entryDy=0;dashed=1;" edge="1" parent="1" source="3R0D6cxO1X3JCbrjLW3T-12" target="3R0D6cxO1X3JCbrjLW3T-39">
          <mxGeometry relative="1" as="geometry">
            <Array as="points">
              <mxPoint x="830" y="219" />
              <mxPoint x="830" y="495" />
            </Array>
          </mxGeometry>
        </mxCell>
        <mxCell id="3R0D6cxO1X3JCbrjLW3T-57" value="&lt;div&gt;will visit&lt;/div&gt;" style="edgeLabel;html=1;align=center;verticalAlign=middle;resizable=0;points=[];" vertex="1" connectable="0" parent="3R0D6cxO1X3JCbrjLW3T-51">
          <mxGeometry x="-0.3965" y="4" relative="1" as="geometry">
            <mxPoint as="offset" />
          </mxGeometry>
        </mxCell>
        <mxCell id="3R0D6cxO1X3JCbrjLW3T-12" value="" style="sketch=0;pointerEvents=1;shadow=0;dashed=0;html=1;strokeColor=none;fillColor=#434445;aspect=fixed;labelPosition=center;verticalLabelPosition=bottom;verticalAlign=top;align=center;outlineConnect=0;shape=mxgraph.vvd.laptop;" vertex="1" parent="1">
          <mxGeometry x="419.16" y="193.5" width="70.84" height="51" as="geometry" />
        </mxCell>
        <mxCell id="3R0D6cxO1X3JCbrjLW3T-15" value="&lt;b&gt;De Buck Techologies SRL&lt;br&gt;Server&lt;/b&gt;" style="text;strokeColor=none;align=center;fillColor=none;html=1;verticalAlign=middle;whiteSpace=wrap;rounded=0;" vertex="1" parent="1">
          <mxGeometry x="40" y="360" width="160" height="30" as="geometry" />
        </mxCell>
        <mxCell id="3R0D6cxO1X3JCbrjLW3T-19" style="edgeStyle=orthogonalEdgeStyle;rounded=0;orthogonalLoop=1;jettySize=auto;html=1;" edge="1" parent="1" source="3R0D6cxO1X3JCbrjLW3T-16" target="3R0D6cxO1X3JCbrjLW3T-18">
          <mxGeometry relative="1" as="geometry" />
        </mxCell>
        <mxCell id="3R0D6cxO1X3JCbrjLW3T-56" value="File DB" style="edgeLabel;html=1;align=center;verticalAlign=middle;resizable=0;points=[];" vertex="1" connectable="0" parent="3R0D6cxO1X3JCbrjLW3T-19">
          <mxGeometry x="0.4528" relative="1" as="geometry">
            <mxPoint as="offset" />
          </mxGeometry>
        </mxCell>
        <mxCell id="3R0D6cxO1X3JCbrjLW3T-62" style="edgeStyle=orthogonalEdgeStyle;rounded=0;orthogonalLoop=1;jettySize=auto;html=1;" edge="1" parent="1" source="3R0D6cxO1X3JCbrjLW3T-16" target="3R0D6cxO1X3JCbrjLW3T-61">
          <mxGeometry relative="1" as="geometry" />
        </mxCell>
        <mxCell id="3R0D6cxO1X3JCbrjLW3T-16" value="API Catalog&#xa;Node + Express&#xa;REST API&#xa;" style="shape=image;verticalLabelPosition=bottom;labelBackgroundColor=default;verticalAlign=top;aspect=fixed;imageAspect=0;image=data:image/png,iVBORw0KGgoAAAANSUhEUgAAAW0AAADJCAIAAABnmfQ5AAAACXBIWXMAAAsTAAALEwEAmpwYAAAgAElEQVR4nOxdd3xUxfY/M7uppJBAEkggIWCAUARCExBQRIhSDEhVVFREkR8oj6I+LFQRxYfKkyYdBJQqTbqE3jsGCKGEFCCkkkZ2d+b3x+zOzt675SbZFHz3+/GDN3fnzpw7d+Y7Z86cOYMopaBChQoVpQCuaAFUqFDxxEPlERUqVJQWKo+oUKGitFB5RIUKFaWFyiMqVKgoLVQeUaFCRWmh8ogKFSpKC5VHVNiHnv2PUAJAJL8RSvi/ZqgOSf97UHlEhU0QSgC0jCZSU1LnL5i7/689BQX5jFwIJRhhAGD/mh9BFSWvigqDtqIFUFF5gRHmZHHh4pkNG3738PA40HzfyA8/CgoKYvd5AgDChyV2U/hJxT8cKo+osA1q1jWys7KLdIVFusLYg/vPnz/Xu3dMzCv9qlevJjAFlmgoKon870D90iqsQ5yhcAsIpQSAZOdkrly5/ON/jdjx57aMjAz+CNdQyl1YFRUMVR9RYR0iKXDNAiEMQAAIIHL3buLMb6c93bR1nz4xz3bo7OrqyvQR2XxHxT8fKo+osAdrKgZnBwKAL146dfny2Y4dO0d379W+fTsAPWtUqn3kfwoqj6hwCIKtL8EYzauEQuzB/adPn+zQvsuAAQMjIiKMP6sk8j8D9UurcAhst50Yf8rLz929d8u33027dftW+YilovJA5REVzsT169cunD8PqrX1fwwqj6hwJjBGhOoqWgoV5Q2VR1Q4E4QaAABAz+ysFSyNivKCyiMqygKqH9r/FtQvrcKZwEjDr1V95H8HKo+ocD4IBVD1kf8lqF9ahfNhw99ExT8WKo+ocCZMdla1Xf1vQf3eKlSoKC1UHlGhQkVpofKIChUqSguVR1SoUFFaqDyiQoWK0kLlERUqVJQWKo+oUKGitPjn8Ejl88I2HfhCxTsg3KmsAlesEMJ3tPymxFYy+Z/lCL3sjkwSym8SAAJUvOMAFu9FLVsOBQBSSZr9P4FH2BFNwukHJlTwgUwYKDa2MyYJxcZrZEoAILSwMoejNocFkaykpNaOwnI6JHFhBZktTskxfW69/Kny6lp6ACJEFOTDhqQd6gGBUXiKATAgAESK2/UIJYAIIAIUADBQIEAAAIOpUVUonkgekTQUjDChFsO+MUHFemcb+UILCADpTe2JALIa7rQ8PoSdeO6Emkc2Qq3Lg5D9wGhOA6cJaxFe9WDxIha/8vMuyoNKqJZRhqksU+WwVsfHDNCaRhHW8wmAnhEBANjlZSHCNmV8wWiImH4CIysBa2AViSeSR6QHuLE75u/HQpZXcM2ahg49O5XO1J4wsDHEkvjKbTwRyELKxba6bvlrzhJJLAUwjf/UNH7IpkLlFF8asYFBsh2RmOLpg6kFmo7vQOy7Y/YKxLFmJ2SLRKbAhIoaTaWY1zzxcZ7Z4HPq1MmrV681bNigdes2ptObtBUdr5xRmxYbCQVO3Vt/K/ucv3tIl7APsPFXIgwy5aeSgKyvmq7hwIF9hw4ecXd3fyWmd8MGjUDaT8oc4ll84kEWIgoLC+/evWsguqeeqo812PIVyk1ac98RyjXPMgjg65mxDf07AGAAPVCtSUEmwlDnqAOaZ8HmlOY5HdXyZuaMNyo5nkQesTj/MeFGwurVvx4+sr9IV4iRpnXrZ9955+2nnqqvxdoK3rcu2EFu55zbmfB9ZmEKANxE+FLars5hw56u9pJWg81UUl6wOmsoKiq6Hv/3smVLzpw5RagBgOzdt2PgwMH9+73m6+sLABi7sKfLWlTxwAqrDHLh4vn5835KSk4CgIYNmw57d3jjJo0xtkI3ZQ6mRSKTzIAJEAw4u+jejoRZd7LPE0Q1gMOrtukePsrXtQYACOYw7Kj3ETAPNtwQQ4xzIgRAtYB4bhXckRGlFW2iKSZMjYwkJ6f+uXPLxo3r8vJz+Y8AGCPNwIGv9+rZp2ZwzQqnkvv5N44nr4lLjwUADMhADaDRIkIAIKhK3efDRtTxaQFQAaYcccBPTk7euOm39RvWUkqQ2QZMMHKpUTPovWEjmzdruXHTbytXLaWUIEdV+tHocX37DHCWhOKN+PiElasWx8YeYDYCSgEhDBQPHPhazx4xoaHB/FTzcvju0oONKQAi2Y8fnErdeOr+ZkoNiFCMNZRSirEWUIugV1rX7OvrWkPUSoTBxkoJQDEgkqvLTMu/mfc4EwC83AIo6N00XsFekRmFdx/k32zo3xEAgOKKtQY+eTwCANnZ2UeOxq5es+Lu3UQTwUvbTUD1wNdee7NTx+erVw8ofwkBoKAg/8j9ZecfbDeQAkpNChSimJo/OAZUx6/Ns7WGBHtFlqdsnEQy0tP37du3bv2qtIcP2C/iMVeUAkIAgOtHRObmZaekpLCWbT9zZ/GIiMTExN17tv/225oiXaFMJyIA4OtTbfCgIV26dA0KqglWOKhsYGQB1uH1p1I3H0tem6/LYl/ZxzWwrl/r21lnch7fpwgopZ4uVduFDGoRGKPFWkDEfudnCg4gkpJ77XDSqltZJz20vvX9O1x5uJcCjGuzfenF4ffzbn76zN5ymxTbwZPHI4ePHNq8eZ1J/XaAp5u27vfqgM6dO3DFT9LCitHgeKPhc2BkHogAgDCjOiIA+GjSqtP3Nj82PDIQo5AISaua3UGIuGq8I6s916XWSFdXV6EsNnkmpq6L2YlTDqW1/UYmwqUACPQG/d49e7fv2Hrx0ilFr68YCnnE9oewGBiKiop27Nj+xx/rbt6+YSc3piixQ0K7PP+Cc/sVsxzJur25JVzNjD2W9OuD/FuEGChGXlq/RtW7dK3zIWsbh+4uP31v82N9HpOzumdox9C3G/p3NmViOWcRX984fwFAMPvUK8/WeqNFYMyiC0OzHt/rUOv1K2n7MopS/912XwWvSwJA5eQRWz3h77+vrFu37sTJgwUFBYxERDWbXcsVb1cX93bt2r/ad3CzZs3s569ENPaBTWOF6bZpngwAt7JP7b31c0ZhMkaYkYiJL4xVTSnRIA1FBkKAYoSQBgx6DdK4aD3b1uzfvtYQs3g8WyNVEaBaXpA9KR28IDlx8uSGDRtOnTqshIuLC+X6iB05Wdfd/9e+TZs2X7x4xqESxOHq4t6iRds333y9SePmJStaBhOhA5joSW+yTeCCgvzNt75MenSJUGIA4oK0TQOi2wT383erbVpABADIeHz3UOKy65mHDcTA2k2wd+TLT403J7OhVvOBZNbJXm1r9msc0HXXzR/T8m8XkYIanvVS866Nb7MLkKIBpkxRWeysdl0G4OHDtDVrV8bG7jep38C6tEgZ7FpCKwBQpMuPPbj//PlzL77YfUD/wUFBQaUiEauRRxEBwIX6nPVXP0/NuwYAhBgoogCAEAHQAAAjEYQQAKYIKMUIARCCEKEarZ4aQJ9/8O6yKw/3vhj+UR3fpmbzPgVTQ9EKDGLP1C9fuOV3kpOT1/6+KvbA/qzsdMT9oyoIds4AvnPnztKlC06fPpmXn2siEYeiEgAo0hWeOBl782Zci+bPvP/++9WrVyPU7FFSojPMtWZ9BIAAwcwnCPDOm7MvP9xrIEWEGECjDa3S+Nnab9fxbWFpTAUA8HcPeSXii5S8uNjExbezzmo1LndzLi+5+EGT6l2jw8eYHNUsXShNmgj76MRQxH4p1OeE+TSLzzreoFqn1LxrgAAornD3jUqhj8iX+vhPBQX5u3btWr/x17t3E8UnAMBWw6KUgEAoYuLg4OD+/V57+aXe7u7uEgFAqXFOXLc3jk56A+y9M+fyw73EUESAcgpDyNzveT2LExwMiCIDpZjNqCnGYNCDRlvPt/XL9f7lpa0GIHgK8A+lTI+V1GdhYeGmTeu2bNuQkpKi6PmSogT2EVHUgoL8RYvn79mzKzsns/iFWzSMgOqB/fsN6d27t5u7e4kYBADE+axpAkLhambsnwn/4VMVX7caXcLfb+jfQVjcNS/YWU7ZyNWMI/tvLcgpegAABFEPjdeLYSMbBXTFCFsaXHgmhFA4c29jWNWWvq41bmWfDPSs+yD/Zi3vJnEP/2pds5+R5ip0SKgUPMIhfma2wrdq1coLF084XCPgvdrW7MZM9lQbGdnozTfebdGihYeHp63SlZTFGORq+v79iQu5dY1xgaWiZKWSKcZs1QYAECKEAFvH4ZK7aNza1OzXokZvgU2Iyde+WFQChYVFp8+cWrVqadzVy7ynYaQxEJ2Cii02Sjyvyc7OPnbs2PKV80vPdGzhiVJAoI2MbPT228Ofbvo0/9zFYxNqQeUpeXG7bs5+kH+LfVMXjVuzwB5dwj4A4zhkVlpN38jsOSKWe+ju0hOp6w2kwAAIIU0Njzrd644J9mpgYRkRL4wgQgPg9pQKV0cqGY+YQK5eu7ph/ca9+7bzCbyZGqwvGZhrk6e0tUjJ7nd57uWBgwY0bNDQbPJQ1Lb4hILczr5w+O7SuzmXEcIIIQMQDVAAjQGIlrLJixXDKgZEgBJEAUADWExj8hagjIwwBm+XGs/UHhwV0Euw6YLFeGWt9sSGxYxK+//aCUgvr6KygGIeMcupN+gvXriwdNkSbgopjoT2Zz3G5eFuXXv36dOnUaPGrNziUImxth8U3Dp2d9W19IMGakAIa7CmlnfTPvW/dNf4ANKbTFd6wWgql8pC0XhMCv6In3Yn+zSzo2FADap1ah3cL9grUlRhTLYPkTUsjf0VvegLlYFHLL+o/v79tK3bNm/Zsjk7J50NmyYqKTHvWn2QANX6+vpGR/fo2SMmNLSW0swpABi9Qq5nHmbWNUwRQZSRCAAgasXRXdRKJBoKpQRjANBQSplSY2IlI8sEVanbrtbrJgu/5QhpG4mJidu2b962bXNefi5v1rJJn/NRzHkNuXrt6vYdW7dt3cz835iQTKlkopq8WmwyhbhWDSBJaRxyKIWqvtVe6d0/OvqlkJCa3GiigE30ALD39sJLabt0+nz2Zc1fxKx6cHMsYQqIaFUx9XbBZGvq/Cm5cbtuzr5XcBtTPaXYTVulaUD3jrXfdtO4mBwU2VMCQ1FsYVtV1h7KFBXPIyJOnDy+dOnCuLi/BUc9BrGhSMwTNmFjdmPZ5qi2bnjdN958W9FiIQVAcDRp1YnUdQWGXNEThK3CsEZGEEWEchOJpIa5CwlChFIsKikS0wm7w5YS2UJAdN0xdj2XzEJevnL++1nf3rx9w1o3A+P8SPEiSLGgnEcKCvJ/X7du565NKSlJwm0rq7/2YUN5sd5C6kdEDnn9nc6dOypc48h+fG/NlXEZRansq/m4BrYO7tu6Zj8xf4uFYSrMaCxs4ZIpCRBq3GtHKPk7be/hpBVZj++x1/FzDx7QaIa/e20AMUMi7QiVgEEYKl4CEfPn/RR39TI1b7HDMp9xLLuwCT6mWXvclDkiN2/fWLli6f379y0M5lZAAEGhPudE6rrH+jxMEaWEW1IRwlwHwRQJy0ZSmubsw5zTWAL2rJiY3zHO0Qg5f397Sm4cb4W2Xxv0Bv3vv681OVzIXhlMI6RtyOqtTLBr164lS39OSUlhUlGLfcZY9omJcKFEPOst5Hp83MxvJ8fHJ9jZ/Sxi47UvGYloNW4dar3+TrP5rWv2M+7ZNYlhwUfm5V4tgF5QTEXiJgBg2sJLMMJNArsNfXpuh1qvu2mraJAm5/H9DVe/EDLUy2iRU1Kl6MIVL4QYM6KwKB+s938zlDdxwcvbAQqL8vMLCpWI+tiQz/8sn9U2SglCGooMCKHbWWcAmKpssxIIJXqdPjU1VVlnM5ci/mk5vCvst8UDoeRu0i3bhcqkouIGE35ta5pmT+C8/Nz4G3GgzCj2sOAOAHi6VH3n6fkda73trvUBAJOiYdq3LRpWhRhFhPLMCScCQokx5gDfgkABKLhrvTrWevv1Jj/4uAXpEcksSDY9yPQarDz6Ufmj4nnE6oe0M4FXPrdHCCuctGk0Svxo+M56PVNDCLGibjgdmM2FKaaUGqgOgG05t1kJJfOOQUjKTUIflqsGTgBGWFLtImtYseMggpHGqAUgfbEmPnIUPTYAmP1K7MBADJgif/dg4ywDwKgssl7NdvSbHI7NcxCT2viYFBTqc3J1mbm6zFxdeq4+vciQCwgIt6FRU1gAigFBoEdYnaotMUUE6O3scyBu56scUxirqCx+aMpbv3JLvv2UpVmzMPmnluzp4paFKSVsx5cGuQAoOj1Xo9GYdscoh3GRq6pvtYKCgiJdvqyKStV17YAVJPcqBIvPRAyEaLALIaYJAjdhyrJyopDMRGX6A4yVYF41I4X6/MNJq/KK0oO9I1vX7Mf3SaTkXkvIPH41PTa7KI1SPV/+raKtFuId2aB6J2NIAWkjZGY1YgBEZdOZig6FYROVhUeUg7cqAGBLeixcQN26YSkpSceOHS3SFZrbpW1rYslJpNQ5FBcYM49YwvQRJTAYDIpJxNxSq3h6de7UrUfP6Bvxt7bv2Hz9+jUTd8gN3s6EpCZF/jL/RLUI6Qk1UCAhwbXat+uUlvYg9uBeiUhKPoqo+DhctUEUKGNuo4+pEDELAVCcUZh8NnWTHpHkR3Gta/ZlGsTRpFVHU9YUkUIXpDUQAzPD66keIZylu5+T/uB65uHTVRq8Wu8bD3dPAACzmxxr2FiDCLJY3CFAcaU9gL0S8QjXMB1oCgI1IIQjGzbp3TumW7eXtRotADHuyOB7zxxZEyUFKeF7JNsyU9Yw+dTLF61sopj6CAHAbdt0jnklpn37dgC4SePmnTp13rRp49792wSvMCev8mBsXuIVXX7suP9gpOnZ+9UeL/dq2KARUNi5ayffamhpDrNXP5Js7X9xAlRjNmoSAoBZ/YthDQEwRRgZvQRPpa4/fHe5gRoAoyraan4ewX7uISxZTtHD7MLkzIJkHdUn517ekPDpoMj/aDUsHBExBUwDijEQoMwyYjFXqqSoRDyC5UOQNVDQI8AAOKB64Kt9B774YrQQGQB3ef7F5s1aHojdu279aodukdaaqYLRzNoqTFkDWVCCYyGLo4/gunWe6j9gUMdnn/P29iGUYABA4O/v/+67wzo8237Pnp0bN64j1KDcbq0QhPANBFaIQzq1QfrWrdr37/9a2zbPcJ0wOrpbq1YtDx76i39uk5AOqJYo1uwoxmDyPDYuFTNPEGra+w+AMEbGkMCkUJ97KmUjAUoxigrs2TVslFZjmmdRIEAwglOpGw/eXfqYFCY9+vtG9pGG/h1NRihjEEZKDUhCG5XA2cwOKgWPFGvWx5py505dhr37YWhoqPC4sen4+/v37TOgVctn1m1Ys+WPTWXkJQEAhBiY2aKM8mcw2XQN1KzUYof9RKPR8Gs7+h1Gmr59+/ftMzAkJMR0B4t2kIYNGj31VP0O7TvPmfO9zBvFybAlJEK4du3Qd95+v2VUG18fXwBy6t7Gw0kr3XCVLuHvN6zemX3ubds3b9q0vkhXCAqW6urXr6+w1WkB6RlHcH8TxBePMCBgRitkWvS/l5eQp09HiHhp/aPrjjFlY1RhMAAAbl2zX/bjB6fubwZKLj7Y3dCvs6WfO3MdENut6M1cGVEpbDbFNB3h2rVD3x8+ipEIf5xYdufQ0NBBA4bUr9/AWUJy8E+JEC4HxYRSyrxIRLc3ZR/Oin4nWd/19vZ5pXc/TiLCg+ZHtBptVFTL557vrrhcJwMjzYcfjOny/Iu+vr4peXHzz7657/b8x/q8LN39zdemrro8OleXHhoaOnz4h11feJmtsMpIhPBFYl8fv49Gj2vU6GmFpRPOwmKeSNqlufcQ937SIle9QW+RBIBXYFSNXtXdgl00bm7YnRgXdzFPwHwUzWWxCVRlJRGoJPpIceHhXsXHxxssFRl5UJyAgIA6YRHX4+MqRsqKhxXdQcIprq4uouZia4gmlLi6lB+DSBQoDw8P/2p+AHA1I3ZT/HRM9RRrKTVoAFOgiblXfjn/zjtPL/B1C6xRsyZQLd9JZBkmEqp4erVq1Wbkhx8FBQVwVw6nL3/4utXQYvfHekNO0YPtCTNaB/fzcQt0x75ajXGvMFu+9Xev/V7zZdY2muvB5KP4BOGJ5BEGq3EGGNgdrYvW3dOlIkSr1LA7zbHeu8p5rVEuHjFQAMjIvwsGPWANIgQjCmAAwJgiPSks1Of6utUAAOF8BuOuHEqJBmuaNIl6e+g7UVHN5JHxnMsm/u4hId5NbmaeoBj//fCva+kH3V18/d2Da3g19HUL9ND4eLkF+LnX9HULBCAYiZHQGMtotdjNWcKUG55gHrEVUrzSrrFXElhZUjWBn/NQOevQQHUYs/guVEs10s2QfGcSCBcUN6gf+dJLPfr26UuoxXxN1GSLt/3XweQOdw8ftVX/KDXvml6jJYQU6rKTdFnJuXFMchekddN4B3jWqeXduE3wIDfsYbkfh+jJY0kc38qPJ5hHwAZlKNw3oUIOq0fGVBZOMdKEBoAipCGUsLgtGANCbgCi+YBZJXGVKp59+/Z/Kbp3zeCaAFacL+yotKUA8XWtMaTJT5cf7E7IOpGae62IFOYZcoAQDAgBIVSXq88syMlIzDl77v72XhGfhPu0BgAwxrsjwAJKVPhZm8XBk8ojhB0eKdNLy+3YgX8WzGOsWJNc46s8pEyIASFjCChKMcVsFV7PPPT0Oh1f9ej2Yu9X+/Xl8WWswpZKaxeOEpt2/TYJ7NoooGuRITdHl55X9DDvcWaBIadQ/yg178a93GsF+gwAyNdlbbw26f9arnfTeJj0ES1UhGNBKfGk8og4uAhsIlVWK0a4ygp5WGz+k9VT7OycR1VucjJgDQIETwe+dOnBnke6NB4xGwMmlIZWbVqjSgMAEl43rIqnT0hI7beHDo+Kaunu7gqA5a9WttILDRMj4q71cdf6gEc4gNkVutCQcyPj+M7bPxaRQoOh6Er63qjAXiaGIgDS80kqP55UHiFEStjM8cFCNyEqj1hA4uVFKUlPTz98+NArr8SwgLWSniZGhz567HiFyAkABQUFGemZAODrWmN48xXHUlYeT1mrB4oIeLpU7RI63BjcFKDL88+3e6YDQpgxiPgW5UaIf1yfejP7tIfGe3DjWb5uNfh2G8H5lbhrfZoEdkvIOhGXHkuAFhZlGx+mRgf5J4tE4MnlERvAGAkKeZlt7BejFpUbLFxaHbkkGQwGhxo4QphQw9x5P5w6fXTo0HcaNmwiP93y4cO0ffv2/bp6qcKoyxhpwHkmFaaYEGqY8/N3WdnpHdp39vXx7Vj7rRY1eu9I+I+Pa/XoumMs1Q0sibnrVOjtnPvBv06+PvuxPq/AkJuad83XtYaZRMwxh0Q2R5RSF407mH3trUI8xqgy4knlETavsXqWUjmoryZvblIO6/ysL2FApiO1WINzcMS06BUCdtd6AelPnT5+6tTJfv0G9OzZJ7xOGPP+LiwsPHrs0Jo1q27cuF7ciNDO+gTcXz4lJWXmt9PatjkU80rMM+3aeblUG9BgOrNKltv8i7DjHZB1luQWjVreje9knweA3Tfn+DQMrFGlgZAY86Hnfv6NOzkX2FMh3o2N8y9TrCN2MLBYOCCT43ylpJInlUcYbLk5lEV7EhqrFuAxMbqGlmHAZAaMNQYgCFj0DTCNbEo/nHxLvjUQQGT9hrVHjx3s3fPVTp26JCXf3b59s+kkXR4ktXhUolw8JQkw0pw4GXvi5F8vR/fr0TO6SePmPBS73Pzh1IHEqNnxYKjYbmjlpwNfOnd/e74uK1+XtebvcU9VfSbYO9LbzXw47KPHaSmP4m5mny4w5GJAQVXqBnpEgCzIo5GYjBGSuFN8ZSQReHJ5hNtHysibSA5J5uxEq3LY8ksp1SAMYDAXVBz9VgEF8J9ISkrK/IVzdu/+Mz0jPTsnU4jhiBVSiem7OFCXRPFs/WSNAQkA7Phz86nTh7t06TZo4BB/P3/jO9iw7JQelGILzkAEQGv1EzC7vq9bjX4Np26+NvWR7h6h+rj02KsZByVaM9ssDgBV3Wr0bTCFbVU3neuKAUBLsYGtJPDIrGLIgsqHJ5VHJM4AVm3yTrezsoaiJ4UEUUytH0xTFmAbAo1jU/E3aykc8HnHsNyPZ2GaVVBYMWIdcQOWVYaSMBfboUspIETSHj5Y+9uKUyePv/JK/569emk1AKAtu1GEIj6jBHm1gMxZKdirwZtPzzl3b8vV9NjMgmQDMVDEiMNACLBZqo9rUOOAF1rXfNVd68VoFyPzgg47Tc2Un950pl8lndTAk8sjXB+RT4/N6omz7awYAfNTKE83IYQIpUB4/DXHyi0Bo52V/2kvvXxfrKRXF/MoGan7ib3U5pPArKe0vI+N0lIMiCDQ3rx948efvt2+Y/Nbbw175pl2WosojU7rchiQAQnRWAEsg8ILKU0THwLg5eLbsfbb7YLfyNGlFupzc4oepOXdfGwoqOXT2Mc1UKtx93GpZgr1ygO7AQGC+TITRch4fJ8WkB4rnslWCCq1cFZBKdFoNB4eHiAYViVp2H3L3ZZOAdYgF4S0lDxmhs9yCIlGKcYYAdVTwH5uIY4fAKx10fr5BQLE2T5dUAJSbL3DipyEBaDDyEWycKboQccgGLkQarA4WhDB9fi4L76Y0LFj57fffj8sLKyMtJK0gju3s88Zz+6VzS8wwgZqMEYsB8IDGmk1Wn9NbQAIhkjjYTdIXPSxXACigBFOyY27nnGEuc+H+jQDAEB6UokjoTFUUjXJDhDCrVq1dnXVgu1psHGfnkZbL7y+80omQMHXrbqX1s9cULlMWAlClGKtxq2OX0vTPXsUqdVoe/fu7evjx6ME2Q2yz1cizZvrOcQjqcBusH5W1tNPt2zX7hkAkBsO5ahRowYUg7YwDz5E2RoqIuwOoYbYg/uHvj1w6ZIliYmJppdyDur4tdEQWmDIXfv3+N+vTryVfUbyzRG2WBozOkAizhSmf40qjNYcEIcFbDXSIqTkxf1+deLKy6PzijIwRbW8m2JjFLMvZjcAACAASURBVNgynLI5C5pJkyZVtAxmbNi49tGjRwAEAAHFgCgAEZXI2rVDh7z27pAhbyHT5AXZjVdTt249f3//tPsPMrMy7CTz9fXt8nw3v6r+xqKtgxKgCGlCq7ZIy0vI0qcjAASITQwoJRhTAEQQRYAwICYbQiwgjfHgKwDEU4LJ6YBaewuCKJiscRSIn1vN3hGfB3rWNcnigMFCQ8MaNGiUlZWbmpJEgSJEgWqE+qTc1CcAWYmrAZS9gzEFMn4XmcwkoHrQyy/1em/YiJo1gwGAgINPAwC1atV2d/e+/yD50aNHVitBBkEMyzsMFy6eOX3mOEYuNWsGu7u7WzYPYn024ggN/Don5V7OLkqjQLIKkq9lHM55/CDAM9xd68US/P1wX0LmKYSIh9anVc2+RvH48goihJoq0NgSkDAzIgC4UP/oQOLiPbd/Ts+/wzSPMN/mgxvNMieu9Khc5+kNfj1GCIZoPJkVACglXlV8XnqpZ3T3XhEREeIjVpVny5skMTGJn1Ap16IpJaGhdaZO+S68TrgD+YTTmy+n7T6WsvphfiJotJhSdhanVcsrv2l5NKdxhwi/z0KEAxhjYbEw8QhhT5eqLYJ6dKz9tqBRK538FxUVHT4Sy3xACNVZPmWuXklt2FIQTD+JpRvnFy+/FNOjZ3STxk8rP+/SlEYfH39r48YNe/ftKNIV8sxlLvyg4JWNob812KVJk6geL/eKju7mLMXk8oPdx1JWZxQmM5u3h9Y3zKeZm9Yrp+hhYs55AymilDYP6mEKgGY6Oo9BJAJ+Iq/p/tGkVafvbc7VZ2qAEgLVPUObB/VsXaPfE0EfHBXPI+LC7etD+oo8AgCsHXTu1CXmlf5RUS1t5KFoKn75yvk/Nm/bvXeL7CBxUrt2nalTvlMwuxbcCikQIMeTV7Pj9SgloNEiQhAiiGooMrDzesE4eBoN9Ywy2MGdAOwOO52TAABPww731WDXiKrPdAwdKpzPqNSvUayQ5OTkgwf3r1m7SuKTav8cdbDSmfn0BzgHPd209eBBr7Vp21Y0cxZ3Mws7J3zzH+tiD+63IZ5C6jS3GVcX93bt2vPgmyUHNRtWT6WuP5a8tkCfgUxRCxj7Y4rctFVGtFjpqvEyGkotHAX15skjM5EABiC3sy/tTPg+uygFIxcd1XtovNrW7P9MyGuVfxYjR8XzCJgbPRn8el8hWi8GgPoRkW8PHd6iRQur/s72Wyrf+8vzLywsunDx/KJF865dvwLCzLx27VCTPmK/vZptbMY8KWQX3TuWvOZS2k4d1WspZofRM+4QvV15iHnjjlVLJYUgCmwZiBpPCA71atylzohgrwhjxHAAzl8lG6kSExPXbVizZcsGO7v1rN6x9VNA9cB33hneoX1nX19fKzWlmEQ46eTl5p46fWLJ0gWJibftSCjPwMYnIwB44IAhH3zwf1AqjxKLleyMwrtn7239++H+IlKAAAjVa7F7iHeT58KGBXqI+iwP9S7EfDfZWQsNOeuvfp6ad41QnQGMhze3Ce7n715bsE89SWxS8TwiNDgzjwAACwcfE/Oq/R0TJXA/Kyws3Lnzz1W/Lk5Le8isXEwfcTivMXoug4UnGBMgo/DujhvfJeZewRRJ5i9MywCTHz3vGEzvYCeKs+NJAAAD8nIN6BL+/lO+HUwjPD9ByVigQn8kuYee3qC/Gnd1wcJ5ly+fNdksHazvsjmFcISFMa5H7959Bw96Q2SQEniUWt3WUFCQv3nzBkF7sj7/ErORvAiHr4/fp598yU7SsFqiInBDhvnYLVyoz2E/PjbkG6jOVeOZV5Tp6xborvXiy8MsNLzZmZ0CID07NOvMvU28hQRVqdu3wRRft0ALIcvJgu80VDyPMLAPPPj1mHup9729fTq0f/6DD0b4+nrzfd+SxFCMTRxEPFmeP/LoUc6y5YtiY/enPbwXHFxr5oyfHCnAnDt4wxUOH0AEKL6aGbv75px8XRYYLSAaxhQYA6UWOogBCNvTiQFRBHwi07Zmv4613zaWIuULPQDb5eGgkTkKwkJ2/Llt9ZoVd+8mWrVHWHtx9r5QxdOrSZOWI0Z8GF4nXK4ZlXhvvhDxH4BiAiQ1JXXZsqUnTh7KzslUQCUWoJQEBtRo177j22+9V9WvqjOmCcZIZXI+upoReyzp14cFdwzE4Kat8mLYyIbVujC/OMu3A72BXEz/83Di8lx9Jhs8PF2qdqs7qqF/RzNDCbNmlUeKB7HZbdz0+/nzZwcMGNSk8dMmBmG/WGkKCoc+O+EnCCUJNxJWrlpcr17kwAED2d55O5IKnkiCLi2bdOy9PfdS2i5mNJEfTIEBGaiBYqSlmAClGFNqcMXuEVWf6V73I3etp6kJStSQksAqBfNJxG+//7pv/y75KT/W/dAojoxsFPPKgOjorgrdjhwSiiwBWwHlJz+Ry1curljx66lThwk12MpEIrCvj1/LqHYDBw0QIxiVbs+EYN4WTwI1TVp33podl37gsT6PTU5retZrV+v1hn6dxRnN1YzY0ykbEnOvAICWYhetZ9OA7l3rfGj57thyrFLnNcWDGORWsEhJDhNzQilgRbuR5m/3+/HprsWDEsWBAOBcXfqOhP8kP7pcqHtkManBGBFCMcaUAhiYga2mZ73nwt4L920JYhBzsSypYI6nNtZ6jsWrMY6Oj0/4/fff9u7bbr+j1q4d2uOlV3r2fMXb28d2/s7a4qQHwIIKSXb8ue3PP3eZz0i0jc6duvToEdO2zTPWpFK65UcKixYiLMQIX19P9NsTZlzPPMz2ZCOEQn2avRA+MtA9/H7+jePJa/hPGqwJ823VPXyUMSo18HFILOsJIxGoHDzyj8Wt7FNH7q5kAX7ZNEdymmdVtxptag2MCuxVoWKSo0ePbdz026nTx80rrOzIOMBVPL169ox56aVejhfFyxIZGRkHYveuXr0i7eED2TIwAcBPN23dp0/Msx06u7q6lo9IJmXZNAQC3Mo5dTz5NxY0gCDqofEK8AhLK7hTYMhlc9ha3o061H4j3LeFmdGetPmLLag8UmYwLdNeTtt9OGlFRlGqxrQlxwDIQ+PVqkZM65qvmjZZVPAQlJ2dfebsyV8W/ZycnMRMqhi5PNe5u2SCUP4QdZzExMTde7Zv3LguLz+XG00CqgcOe/f/2rRp4+/vzx8Bp275tSMdAFjMcJH+asaRA7d/yShKZdxBENVS7OMW9GytNxsFdOXbZ0xereRJ3Jsih8ojZQnTaFOozzl7bwvzNAGAyGqdTV4hRDgstoKFBYCMjIxNmzaeOn3Uy8srJqZ/q5at3d21ps2m5U0lVu1fhJI7d+4sXbrg2LGjHh4er776Wq+evURjarmKKpjGTPtxtYSSIkPu2XtbTt/brCMFGGktBgxxFvMPgsojZQxLM4pxLZBiy7BaFauMEPujYrlFeJGXKLktGk0AwIGnT5lXqWATFfxTzXeQ+fQ8S5PWk2f+cAiVR8oOokXWZD82G9IYxLCdlRHlTyK2BHB64lLDwp8AAMx+AILRxLgNjwrb88C8wv2PUUxUHikzWFCG0Y/euBAjojKQiKA0yfpGpTkHyxKCy0mFyyazkjCwwUOqqvwzUeHf4J8Lc3gro9OBuTey3eLItCUUQNBQKgImT38AaTCXirKMSC7kvxq35wseInYeKRvoLRnEVK5Z79Aa/zRPZwDA2CrKUc7ygKqPlCkkvonW7Knm4as8BSsGKqU+4sCmU06w4vph+aulV5HpAp5QZzM7UHlEhQoVpcU/hA5VqFBRgVB5RIUKFaWFyiMqVKgoLVQeUaFCRWmh8ogKFSpKC5VHVKhQUVqoPKJChYrSQuURFSpUlBYqj6hQoaK0UHlEhQoVpYXKIypUqCgtVB5RoUJFaaHyiAoVKkoLlUdUqFBRWqg8okKFitJC5REVKlSUFiqPqFChorRQeUSFChWlhcojKlSoKC1UHlGhQkVpofKIChUqSguVR1SoUFFaqDyiQoWK0qJMeISdFVaCE8NKdsiYnVPXnAsn5ukwq9KXVYIj5pxYaGmeKmXLKeuj6oqbv9PlKYt2WMo8y4RH2JmJ4iFsDru65WGL9iBPwAsilPBflWRVXIgFKRfPflYlTmC/ULH+ldcqPxLcVrYOUdxqF8vld+Rng1p9SrwQHynx6X8KX1z+jvZZzOmnEcoztFNFDrNivaaUQpbVvEZS11alFLslT6+wg1mtJowwz6dMT5PkMlhtNEo+qq2Wp+RoW1vyiGkk766kViX1VqwKdPit7ZRr9Y5YD3a4yX6XLi5E5rWap62mpYTFnHgCsX0aFe+ITZRdWx287fQphahc53IqbLtiMlvXynMrgXi8cRdX2mKlsd+lrb6sU165BAxSDoVa1VOsfu6yqARbeRb349pprqURT/4r2NbyymKILSc7q3zotqVQ2PpJnsz+dZlUlqXSZKthSS6UiCG+uPxBcdS1la39uaTCoUbS/hwOoaxEO2q2knIdMpFVqawqBaUkNblWJaltyQeyVZak5pU01+JCom6IFzyBrddRMj0vLspWH0lOTj516uTdu0lxcXH37t1LT08nxCy6m5ubv79/cHBwgwYNwsPDO3fu5OHhWYJS9AZ9Xm5eFa8q/I5WU04n0esNen7NZNBqtPImLibDWNrxrKoSiYmJx44dvX379rVr11NTU3NzcwkhGBsTeHl5BQUFRUQ8FRZWp3nz5k2aNJFnaOtPCRRKa2u0tyq83qDX6/Sp91J9fXz9/f1tFW0LFy5cOH/hfNLdu/HxN+7fv5+bmyv+6uXlVa1atYiIp+qEhzdv1rxZs2YSqUo5hNjRazIyMq5ejWON+e7dpAcPHqSnp+v1eowxa9gYYyZeWFhY3brhYWF1Wrdu7evrK8+89HKKeT7KeXTlyuX4GzeS7t5lgqWlpUmSsTYTEhLCBIuKipJ8mtLIUyY8UlCQv2vXrh07/rx48aJOp7MoDyEAsFqol5fXs88+26PHy+3bd7Cfv+SFCwry33tv+J07d9zc3NidgICAJUsWl4yVHIL3nBlff/3XXwfYzdzc3E6dO3799QyRwljKwsLCYcOG3bt3j9389NNPu3btKs+Nt93du3Zv3Ljx7NmzDj8NQsbPFxYW9vzzz7/Y7YWGDRqJ2ZbgvQBgyJAhXNoxY8b06NHDIXdkZ2efOnUqISEh4eaN27fuZGRkAEBWVlafPjETJ36usPSEGwk7d+7cvXt3SkoKezX+gpL3FVGrVq3o6OgePXrUql3LiRqo5O3++mv/7t17Ll26lJ+fb18eCTw9PSMjI7t169a9ezdvbx955qWBRDCxczmUjQv24osvcqYrsWDO55HlK5avXbP2wYMHoKyi5WjWrNn7Hwxv2+YZq7/KGzGh5Py5c++9N1xM1rZt27lz55bF7IaVuOWPP6ZOnSa+4PoN68PrhMtTFj0u6t69Ox9UJ02a1KNnD6tSbd++ffny5QkJCSWTCiHUvXv3oUOHRkREiAIUtwa6du2amZnJridMGN9/wACrkyZGkQcOHNi+Y+vFC5clWgNDdHT09OnTHZaYmJi4dOmSLVu22k8m1racYnr16jls2HshISEOi3MI/rLZ2dkrVqxYv3691bezKonVOwDg5+c3ePCgt4YOlSukJRDvUc6jFStW/PHHH/xL2e9rVn9lN50imNJ+7tDKBQAnTh7/ftZ/rHYDhFCVKlWCgoK8vLy4Bpibm5uYmKjT6ay+ZM+ePUeN+r/q1QNsFSfB1q1bJ02aBEKVjf5o9FtvvqXk7SRwaFSLj48fPHiwKPOSJUuYgi1HYWFh//79U1JS2J/Tp0/v1r2bRAdJTUn97rvvDh06JD7IXsTFxSU4OLhq1aq83oqKirKzs3mGcgwdOnTk/40scZt45ZVXkpKS2PUXX3weE9NH8voAUFCQv3r16vXrN7ABwxZ69uw5efJk8Y68bhcvXvTLL4uY3sq/Hb8IDAwMCgriEwcASE9PT01Ntdp13d3dh78/XPLRi8uk3Iiwd+/eb775JjMzU1SOxLbq5+cXEBDg4eEhfpr09HTJICo+Ur9+/SlTpohEXwLs3bv3+++/t1Pzfn5+/v7+Yl+TtxmJePXq1Zs06atGjRqXTCRFdgSrM0bJGDVnzpxly5ZJHkQItWrV6vnnn2vcuEmNGkGcFHi2qSmp9+/fi409ePLkyevXr4ufatu2bUeOHJkyZTKb5jhsCr169bp48cLGjZt4Dj/9+FPrVq0kVaNwXcDWKwOA3qAfN26c2KQ+/HBE06ebKsmc5yOWsn/f/q+++qqwsFBMExkZ2aFDh7Zt21SvHhAcEszNLuzfgoL8e/fvJ95JPHDgr7Nnz7Fuz+VZtmzZuXPnZsyYHhRUU/7WJV7X4KVv3759/vz5VomMyeDl5eXi4pKbm+vq6iIpVKzbhw/T/v3viWfOnOGPc+6Iiorq1q1bcHBwrVohkvlpQUF+UlLynTt3du/ZdfbMOTYgs89RWFj4048/Xbxwcdq0qeypEqhjLL3YnplUrIiGDRs2a9asXftnggJrVKtWrapfVUnFMvHS0h4cOXL07Nmz169fF3Wo69evDx48+Pvvv+/YqaNV+7TDVaF58+YtWrQIISQZfSMjI5s1a9amTZvg4OBq1arJbR+PCwvv3b+fmpJy4sRJ1t1AaDMJCQlvvvnWN99807Vr1xJUmmN9xGqmouFXb9B/9eVXO3fuFBO4uLi8/vrr0dHR9qlXzPzwkUMrlq9krYrN9ACAUvrZZ5/169dPycsQSt584824uDh+Jzg4eMOGDa6urkoetyqV/OaET8bv3/cXr7fWrVvPnTfXTr3L9ZHo6Gie5/Zt2ydNmiQODt27dx8wYIAt7UYuVdHjogMHDqxatYq/OO/Ms2f/JyqqpZw47DcUO/oIIWT6tGlbt26TNBs/P7/IRg2aN2vx1FMRAQHVq1Xzd3Fxy83NdXNzCQqqabXcCxcujB07NisrS8yqXr16r702+IUXXmCmBIcG44cP07bv2LFyxUqu3jOEhYXNmTNHMsdR3j1mz569atUqSUft3btXTEyfZs2aKcmHpzl79syGDRt37twpGf//85//dO7c2c6DVsHZTRxxuWAKs2L3uWCSX5lgxaWSYtsvJAUUFRV98MEHFy5cENNER0e///77oaGhVh+xcxMANm/e9P33/xGtWQDAqETJu92/n9q3b7/Hjx/z93qha5dvZ36nsHSH+O23td9+a87Nz89v69Yt9oc+WzwiN7LUr19//PhxUVEtHUprtazfflv7009zuF6DENJqtXPn/swyVL6Iw3iEScV5hM3JP/jgAzaOcTRt2rR///6dOnWs4uWlXNE7cfL4R6M/1uv14lg9avSo119/3eqCl32xHz5MW7BgwaZNm8XGHBgYuGzZElssZifzzZs3TZ06jUtFKW3WrNm4cWNFxVaJ4iDi77+vfP31jLi4OJFN1qxZIxllJaJKctu8edO0adNBsKQ2adJkwoTxJZiM8Jy5YOKva9eutSWYLSjqS8T2gvnYcWMYiTANwsXFZcqUKdOnT+ckAjbWq7Hl+ja/jonps3bt2rZt27I/WbYzZsw4fOQQtu3XyBEUVPO7774V29P+fX/99ttayeuUYMIMAPHx8d9++x0Tif377bczudZdXGI6fuwYa69M2r59+yxfvlxOImDDf0Qu3sCBg37//feWLVtybU6n03344cj4+Hi5eA4rk9chS5aVmfX222+LJBIYGDhlypRly5b16NHD29vH6leWl4gRjo+PH/nh/+l0Ol5Es2bN1q1f98Ybb7DVLuU1ycqqXj1g4sTPf/hxtqeneQb04MGDESNGFhTkK5/EYYTv309lfZWvffTu3WvR4kW8rxIbLirE0rtcUgmNGjVetnxZdHS0qJJ88skncgFEUcVSHj5MmzZtOqWUqSEA0KNHjyVLl1glEeJogxvPmQvGf0IIjRs3jth2gbGeof2fxVLlTXnmzG+OHjnOrimltWrVWrlyJVsmtC+9PFuxWYeEhMydO7dv3z6iYjlu7Pjk5GQlLax9+w7Dh5vXbiil33773d9/XwHbjUACifwsfWFh4ejRo0GYLY/+aDSbNUiest8/DQYDAGRkZHz22b/5zTFjxkyc+LnWxWLNWPwXW+6DkFQdvw4JCZm/YH6PHj24nDqdbsSIEY8e5cglUdhdMcJ6g37YsGF37twBUwd77rnn1q5d+9LLLynPlgmfnZ09YsQIfhMhxDpqeJ1wsRPab0L8V7GsZzt0XLFyRb169Vi2CKE7d+58/vkXUJyRY/78BaLlq2fPnl99NcnW24lfHJv2ZFhtY4QSrUY7ffr0F7p2AdOnuXPnzvIVyyW58W8tKeLnn3/mHAQA0dHRkydPtm9wsKUxSTLHGDPBOHUmJyevXLlSlMdhvRXPzCbmu3Pnzt9/X8d+QgjVqlVr8eJFTB2SV6L9bK1W/cSJnw8cOBBMFafT6eT8bQvvv/9+x44d+Z8IodGjP2JDk0ONRpRE7MwTJ0588OABH+pf6NrljTfekMivhKeYk8s3M2fwpcQxY8YMGTJEbEAStZZfi71I0uB4oRjhyZMn9+zZk5eYlZX174mfScRQUg8IIY1GCwBfffkVIxEAoJQOHz78+++/F50O7GQiaY6fffZZZmYmHx4GDhz41VeTJAyCLfdJyfOUf0f2Z1hY2OLFi4KDg/m4feDAgd9+W6uQRAoK8v/8cyeY+nlYWNhXk76y05HEOgeBTeyk/PrrGcHBwfz+wgULCwryJWnkOXPBmGwhISHTp0+3OoBJeFaSAITdNGBJN998M7NmzZpg0pXmzZ2Xl5sLygcbJYlANgJkZGRMnTqV/1q1atWFC+f7V6tm9UEl+iRYdlqG8ePHP/fcc5yG4+Li1qxZqVDaGTO+DgwMBFO9ZGVlTfhkvJJn5YJhhNesWXngwAF+Pzg4eMrkqZLvAcoqvUaNGvfvp+7bu5/9OWjQoCFDhkhKtCWJRCrJfbHqJk+ezA1vlNKjR45v3rxJTKlEVEppSEhwcnKyaI374ovP3xv+npiJ1bYrSstTrl+//sSJE/yn6Ojo8ePNH0XClSKH2q8QsRRvb5/58+e7u7tzS+R3381KTk52+LIAcPLkKeaFwP7819gxcl5QMlkAa42ZQavRfvbZp/zPwsLCXbt2iU9ZVTGYYOxPhNC//vUvsCQviQBWFX/7r4ARZoKxStPpdLt27bb1plYeV55UlOCbmTOYPY+bCfgSo1w+paJYU8amT5/O6ICxyX//Oz87O1siDFirGg8Pz9k/fA/CNOTokeOLFy+ypQraweXLl2fN+oFds1r+ac5Prm7FWwPirTMvP3f+/AXsOjIycuy4sezaFlMoh6Q/z5o1y93dnf/6/ff/KSjIl88i7ePRo9yFCxfyP0d/NDompo9V8exIy8eeWbNm8ZthYWHioArWasBhzlYFCAkJmTx5Mld52OIIKPjQN27Eg6nBBAcHP9uhozxNsYSxmviZdu0iIyP5nzt37pI8Jc/qxo143n4CAgI6duoIiifptmSTo337Dkww1sj37t1bjDyVly3aePlwSikdNGiQuLjoXLi7u0+a/BW7Zg4CK1as4CKJ4smlbdig0WeffQZCH547d97Zs0ZvBVHDstXCCCVFRUXimAkAkydPFifzCsG1qoOxh/bv/4tdT502VXmXVgieob+//7//bTbB5OfnL1tmnI1L5kR2sH///iNHjrDrvn37lMyvj2Hx4sXc2QwhNHPmTChRN1CCrl27Pvfcc2DqEgcOHLh67W+HZfHdAAihyEYNy0IwVvMxMTH8zpUrV/jUBmwoMhkZ5plgo0aNJJqaE9sPF4xSKhHMPooxr+Gf4b///Zn3TD8/v7HjxpYRiTC0bfMMM3awNvHrr78ylcRO5wdTA+3Xrx8zknOBJ0z4hNWOkhEPIzxhwgTRcbBv3z7MilkCsIXYbdu25eXlAUCvXj2ZH33ZVV2PHj0iIyP5u69evVqc9Copd/v27cw1IzIyUuFOGat4+DBtw4YN3JI3cOBAvrJox6paXIj5TJw40cXFhVtMf1m42OHjWq2WS1i7VqjD9CUQj9W56OuRn5+fkHAThHZrtTfxj1irVi1+s2R6qyiP5E+JYNevxyvMSpEE4ovFx8efPHmSs+MHH3xgy7bkFLBXHTlyJJgsHTqdbseOLWC384sVNHXa1Hr16nF1IDMzc8In4+UN1+pqy/IVy0Vf9fr165emL1FK9Xp9bm4u47Vhw94rcVb2IdbAv/41hhWHEMrPz9+xY4fyfLiJAQC++uqr0oi0bt16vtDr7u7+wQfvi/ZXp7QfiZLl7+/fp08Mb6ixsbH376c6zIS3E63WyVvGxU5Uu3ZtPz8//tO9e/dE4a3YWYiBv4izBJOwFfuTCcY5KzU1FZTpO8WbeQLA5s1mbx8vL6/evXtLhFOSoRKI9BwREdGyZUte7pYtO8Q0cgrAlgsZM7+dyYcmhNDRI8eXLlkieVxutbpw4cJPP/4EgmuMOL0v2SjKX6Fz585O2VFmC7wGoqJaRkZG8vWLzZv/EN/a/itw01LPnj1LsyWkqKhoy5Yt/M/evXtxfxMnTuvkI/ngwa/xa0rpzl27FZZFKeVzHGdBFMzd3T0gIABMTSsrK8u+ZoGxhl9zwUo5qbFq3mKC8cEjOzvLjlQWjxerbL1BL5qX+/XrJ7qcO3d2I+nYvXr1AlO9X79+nftWSezVklVGhrCwsGnTpol+AXPnzrtw4YK85fHr7OzssWPHgrABYdq0aSEhISI9leZl+/Q1TkSdaxwRwStw4MCBXF2/fv06W8G1pT/LgRAS/XFKgGPHjqWlpXH/PbF7QynUchFWjY6hoaEtW7YEU7PZs3uP/bKqV6/OryVuu06HwWDgTSsvP89WMiZwYFAgv8NaPv/J/mKZfVhdOWb+TUwwO7ucpXIWq+AzZ06z2TJ3hhHlcLrJUMyza9cXXFxcdEFkAwAAIABJREFU+Hh++vRxyXqN2JIklYsR7tq169ChQ0U/17Fjx3JnR/EtGJibA5gqdNCgQSxoSGk+G4efn1+b1m25bKXJyg54hXTt+kKVKuYgTwcPHlRYNPvKbdq0qRlcE0rx1gcO/MUVoiZNmoi+zqXJVszB1ru8/PJLYPqIV69etT+1eeopo86FEIqPj+c9tiwwcuTIjz/+eNy4j8eN+7h9u/ZWp9UcdcLq8OubN2+KgpV41cbqTAojPHLkyDFjxjDBOnXqbEskCYpX/NEjx9gFpbRevXpc17U6tXMWWOYeHp6t25h9xk+cOCOOqFjwXJI8yP8cNWoUG50YMjMzmbOjmJ5dzJs378SJE3yW2LRpU7mbQ2laf4cOHVxdXe03ndKDv46Hh2fbZ9rw+6dPn1RYKOt+3bq9WJo5iN6gP378BM/w+S7P25KzxLCTQ1SUeZcApfTcuQu2UgJA8+bNueJGKZ0/f34pBbODzp07DxkyZPDgNwYPfiMiIkLsyVYFc3Ex7pymlP7888/8pxLXni2FlAk2cNDrTDCFRThOITYdcYt3x44dbS3+Ox0s81atjJ0BIXTt2rWioiKrczw7d7777jtu32LLgaJjMsPRo0cWLVoEpl7k6enJvA8keZbmfRs1igTLQaCMqITP8tq3a8+708ULl+VVZwsIoWbNm/M/S/DWV+Ouigte7du1h7KczUkQGhpat25ddo0QunTpkp3Evr6+XV54nic+cOCAQr/Hsoavr2+nzmZnlkOHDq1ataoEdSgfaG2lLO6HVsA0phwLCvJv3LjB77dsGVV2HcAqGjZswC4opWlpadxT2yG4kL6+vj/88AMfcwDgpx9/Onv2DJ8WSba9AMDMmd+UIMKoHSCEGjY0uyGVnR4nKmsiF+Tm5iqf/AcEBMiDvBULog9VYGCg8iHOWWjcuBGY7Fy3bt2ylYx9iPeGGS1BbBY2a9YPYo+VL5Taz62UEG35XDCG2bNnr/51tf0S5YbYsqt2peu+AHDx0kXuR+Ti4hIWVgfKciyVC1ArpLao3TEeUTR5E6qvSZMmY8d+xK5Z+54w4RPmVUEoGTduHLctIYSGDRv2TLt2CktRCK1WW79+BJQlgzCIppzatWuLVgnmuGkfrHKeiqhb3PkXsYxdfuXKFdGHSnk+pQcrqH79emAaNm7dumWrdFZdERERfJsCe2T27NlTp0xhhhWxtXOatlo/tuxuxYI4W4+IiBg6dCi7zz7N7NmzJ0+exC0+ojB2uKOUqzw2RVWUCGEAuJtojG1DKQ0ODma2NxBeoEyXHgglNYNrSlbdoUT9cPDgN8Rtl5mZmZ988ilGeOmSJWIglXbt244YMaL0sxgJwsPDPTw8nbu2ZQu8FK1GGxoayvWCu3eTHD7LBuTQ2nXsT93lkKxkMScrhvr165fPi4Pw7sHBZgLNzMzMysyy2lD5zY8+/kjcRw8AW7ZsHTBg0Jw5c27dviWvDcmFfFm9lGMtz3bUqFFs+6XgALG1X78Bc+bMsbqIIy9XVFFLLI91IRWmI5QwpxTWFmvUqCHn5jJSzo2CIowRriZsBXz06FFxM+H45puZol/gyZMnx44d+8svi/idwMBAefQjp6B2aC1w0rqPHciVnZCQEN7+mOOTw0wopf7+fmBjyHUoAEZYb9DzAxAQQsHBweU2F+YFBQRUFwOypKenW22oop/B1GlT2eDP16pzc3OXLVvWv1//jz/+eOvWrYmJieKzctaQdFdn2ZK/mvQV10oYCgoKli1bNnjwYCbYrdu35E/J37GUwsih1DcOI/zw4UMwcSHbzyNWvXjhRPCvwv6tV68ej92Uk5OtJAdRKjGrWbNmDRo0CEwzZ7adl5tOvvnmGx6gyLnv5esjjfFfRvUmKYXtCmeQH25iC76+VUsmJ6vn9IdpOTnm0CdNmjYpN30ETJXQqFFjDw8PHmGPhWIRW4L8EYzwqFGjIiIipk+fnp+fzz2PKKWHDx8+dOgQQigqKqpevbrNmjVv0LBBWFiYmJXTly9FaZlgM2YY405wX8FDhw5xwcLCQlu2bMUEE78dH++d3vaKEeeZb7QFgKNHjzJaKWtgjAgxO32cP3+eXSCE8vMLRPFs5iDUl1iDERERkyZNmjRpkuhUwq4nTBjPNxo4vd3zYNdOHKzsgGdevXp17viUn59va9lPAq1WUzI5WeY5Obm5ubm8E/53zn+9vLxK9B4lAWs8er1ePH2N7VOXaP5WXy06OrpFi2YrVqzasGED37bP++2ZM2fOnj3LQvCEhYVFRkbWrRveqlXrGjUC2d53hTWs6EUsvaKio6NbtWq5dOmyDRs2iLEpuWBnzpzZuHGTVcEkHcFZbU8Rj7DCsrKy+J3r16/z8O78puRPZ8FqtpRSjJEonn3IWZlQ0qtXrxs3bvz6669i/r179+o/YIDkQSdCdAkrT/j4ePNx9dGjR0VFRcrDX5egP7D0jx7lICEisRjDpdxgq1lKOpJVDSUoqOb48eMHDhy4ffv2nTt38vDXDDzbO3fumFYP57m4uISHhzds2KBOeHj7du3l8e5LBslcqXr1AFGw5ORkau1kDKuC1av3VFRUi/DwcDd393LlEQamoIpSSj5PWZCInWyLinRW79uBZJYEAA8fPpTk/zA9rUwVBAMxlKduz6HT6cFUmUVFRQaDHkApj5RY2kePcvkAXkbDjENIChUtbpLJCNh409DQ0Pc/eH/EiBFHjx45c+bsoUOHbt68aetddDodH2V/+vEnPz+/tm3bRkZGPv/88/bj1ytRq+WCjRgxoriCsT+ZYPUb1H/+ueflIdmL20SLwSNsVzXfw+P0DZHFhY+Pd3EfkZDI4sWLxEhf7O2OHjn+3XffSWKOOBflTyIM4udzOqy2PBch4iyllC/bVyA8Be1A+dSDpWnfvsMz7dqNGjUqMTHx5MmTt27dunLlyq1bt/Ly8mwRZWZm5s6dO3fu3PnDDz+0atWqR48e/DRFuWlGee+VpGzfvkP79h1GjRqVnJx87NixW7duxcXFJSQkMBuKfcHm/DQnKiqqV69ePXr2AEs1Tbk8xeMCPrZMmDD+xRe7FetZp0MMDu4QcvvIiZPH586dx36VVPTatWubNm0qWfz7B6BMlQJxLUBsfJy8qlSpsmz5Ml8fX41GwzaDVQiq+lUV/1TST+RqS2hoKB/D2ZlkCTcS2PnhFy9eZGeMSGqbUnr69OlTp04tXbp0+PDh7ExFW6U47MBW+znzjeAntDDBrl29Fh8fzwWTNwBuUlm6dOm7774rHuesfMBzzCO8ZWg0GjA1C0/PKs718iwB+GKbQyKXt4Ps7OyJ/zZHEqGUjv5oND+WGAAmTZrUqFEjyY4yp6NMl2wkYKoBa0Ourq6obIqTvIVGqxG7U42goDI6vL0EUF75thoYu+nm7h5eJzy8TjjbyVlYWPjgwYOTJ09eunTp7NmzYtelpjDxEydO3Llz52effSJGIxXzV85u8rbNLzw8PJlgbESUCybJ8M6dO19++eXOXTs+n/h5QGBQsfQjxzzCM2I+YKwu7BwuW26QGzvspATL5jJ+/HjxBLZBgwa98cYbIcEhLCQ9Qkiv13/88cfrN6x3otWdISfbvA5abiQCADk5RncbhJC3t7cYurUswF7K19eH96Lc3NykpORSHm3rLEhIROEnkCSzOmi7u7szbaVfv34FBflxcXF79uw5evQYM4XyZIcOHbp8+fIPP/zQpEkTW/nbF0Mutn2NhgvW99W+jwsL4+Li9u3bf/DgQUlfPnrk+Ouvv/HDDz80atxIebMsRvP18PBgFyyylvIHywKi/sxX7+yDJ1uwYIF4+icLtowR7tq1K2Nutkh5586dqVOmOL2Ty91eysdccv/Bfe4dU6wpYcnAatvNzUO8mZ+fXz5OaHYgmXkpV+A549jKU/6nh4dnVFTL8RMmrF27Zvz4ccHBwaJxKisra8SIEcyxvVj+JpLlaonlGBzxEUbYKNj48b///tuECeNFn0wAyMzMHDFiRGqK4/Bx5jyVJ2WujQBAKU29V8H6iNxGpfCps2fPLFy4kPcoFxeXmTNn8scnT5nMjhdhCbZu3bZ923bnSp6dYy+4bNnhwf0H1BQ0kAXjKjsxeCuvXq1a1apVeedJSyvbtTAlKJkAVsd/sNH/5TqCh4fnwIGD1q1b9+6773IfWUppfn7+qFEficoRKPgoEkZzqCKJokqu3dzdBw4c9Ntvvw0dOlTkuPz8/DFjxtgXw+KVlSetUaMGv36Ylq78QeeiZE2fPZWdnT1hwicgrAXOnDlTjHKm1WinTZsmrsNPnjxZ4gRdSqQkp1bIui8/w4VSygN/OV0MYnk8pbe3j4+PD69t0QXpSYS8uhxWoJjA3d19xIgRCxcu8PT05HWSkJCw+tfVROZT7zDP4n47q/YXVqK7u/uoUaMWLlwgegkmJCQsX7FcYXcrhighIWblJzEx8dGjHF5G2Y2uchKVkH2xcuNRzhiGDBnCznwX2b1Zs2ajRo8CYXHq448/lhdU4le+e/euXqcvfT7Fgt6gF7fMBwdbP2yo9MAyF0nRVp2QcEP2RFlByahesgdLiaiolkuWLBGnlr/88svjwkJbU5uyloc3/qiolosWLeKCIYSWLF7y2HTsvINMFBZGKGEnpzJkZmbeuZMomWSWxQtLSPTRoxz2X0ZGht6gF/u//dIxwgsWLDh58iS/07RpU665SRTFt958q32HZ3hKZiixI1ixkJeXx3yBijUlVg65bkwouXXzVlJSEldcy9PYWa9ePV7upUuXobyoU7Q4sjaTnZ0t7u2w1WPLWlUklERERHz6qflUvby8vNjYg6LAYvpykIcXERERMXHiRHZNKWWCKclEkXkJADDC4XXDxW37ly6d4wnKtEtwnD175sUXu7H/BgwYkP4wDSw1NKtPMRw9emThwoVcmRSjnFldLf96+gz2sqwPbNmydevWrSJnlbgzsGg6ZTe1kb8LRvjq1at83cTFxaU8eYRFqwcAhNCNGzcyMjLKeU73/azvWZvp3r27GNpO/JqxsbHz5s37ZeEvCxYsiI2NLVN52Ou/9PJLfGCmlB47dgysEdnhI4cWLFiwYMGCefPmlYVg8nYYHR3Nz1pngilaxHCcwlSMVqMVj8k5dOgYf+0y0kck2R45clRngr+/v/KTQLOzs1mUMz4wTps2jfu/WG3W3t4+3347EwRLyuTJk5PuJoFsX0YJcPHihdLMzhxCnuGhwwe5J2vDhg29vX2cW6IdREZG8kM/dDod6zDlAK6X7dq1S6/Xs2ZTt15d/qu47nvgwF+LFi1auHDhwoULly5dWg6yYYS7dzd7cl6/ft3q3Dn2QOwvv/yycOHCRYsW/fLLL86VQX7NLrp378ZHnevXrytp6kr1EYYWLVrw67Nnz2akp4tadJkOsIQS8UiqdqYwZbaW3MQ/x4wZw3edgmAWsY+oqJYffjgChGACo0aNYpOpUr7RyZOnxD+dXm+iakYoyc7OPnb0OJg4kQe7Lp/5RUhIyFNPPcXpeP/+/eVQKJgq4fy5c1lZWbz01q1ageU0liVjMdMYHj9+XA4mCTAF32BISUnR6/SS0QUjLFadwWBwomCi3irxY2rStAkfdRR6iinSRzhZdHi2A7+v0+n27dsnWpjLovZ50Vfj4hISEthNhFD7Du0keoHV0jHCc+bMYVHO2Pdo2rTpRx9/pKRcQsm77w5j52+xOk1OTv7qy6/ENCV7qaSkpL//vgKyccCJEDvJnj17RH+fTp06iasDzi3XqiQdOpibzZEjR7Kzs8tt2XvPnj18VhUYGNhQiJsjtpyAgJpcV01MTLQVM825CAgwn0qj1+sNBr34K/s61apVB9NIduvWrbQH950ogGSezivE368aH3T1ej0oaJ/F8HvBCIfXCRdJdPXqNSDbkl/st3FUNPt33bp1/GbVqlWbPd1cUpzVxbCjR48sW7aMXbOwsjNnzpCwntVFe85Q33zzDVulYzW7c+fO9evXg0DeJQBCaNOmTaK0zlVJJOPt6tXmgMDBwcHNmjUro3KtAiPMHMYZdDrd+vXrysdEUlCQv2PHn2Ca6nfp0sVquRjhek/Vo6bTSwsLCy9dulQOJKt10XLysrXrtX79+mAaAnU63aVLV5xVuqSRiDXj5ubGrzFWtMas2O/VlFGvXj35zaSkpL179/IEZWc7zMjI2Lp1G/+ze/fuzK3bvr+NJPg7pXTatGncqiKhP1uS+/v7T5s2DYSTX2fMmBEfH1+adkYp3b17DwvMVRYQKXXv3r137tzh7bVbtwrYXRkREdG0aVP+5/r1G/SWY28Z4fd168SgYXbePSwsLDAwkPkxA8D2Hdug7ElWrzOHIBIjLYGgTtaqXSsw0Ky2/Pnnn04UwNZM4vHjx+Y0RFEjV1RT4oj98ssvi0vfc+bMMeflpHqX98958+aKexNiYmLszAi4GJ9++ql4sCA/E0+e2JbkLPPOnTsPGNCf3WFijBs3rpSGktzc3FWrfrWqCjkXc+fOBcFa/Morr5RdWXbAg7ADwIMHD5ablEQos+lwYWHhyhXm02fq1asnrhJIgBGOiorif+7f9xd325MI6cRPJpoeMMbizkmxabVpYz7DLDY2VhSsNGKIOoiETe4/uMcbjMLwIErnNfxfb2+fIUOG8PEtOTl5wYIFxRBfWXHi14qPj2dB4lihHTt2ZOePiSYAeYXyTTQM9evXHztuLLtWXvu8osdPmBAWFsbvJyUl/fvfn0kSOzR2sIkV3yC3fPnyjPR0sRSn08rixYtEZ9wXunZhXmHlZp5gIJR0eaGLuInjl18WJScnO9dMI5nk/vjjD5mZmbyhvvPOO/ZL4doKmwT9+NMPYp4SS6RThsyLFy/y6+DgYKs7JzHCXbp04X9SSsWla+dqTDy3c2fN0UuDgoKcs+4rb9xvvfVWlSpV+CrGwoUL4+PjrRZWLDuiZOmHzzjYHlyOkSNHGkW33JUklnXi5PGFCxfyR9zd3WfNmiWhHoeSiMAI8wO0GPbt3f/bb2slaUBoanIwjo+JiWHexzqd7vPPv7Bq4pGvQxVLWnbz77+vzJ07jw8sCKGPRn8sqYHyIRQ29P3rX//id3Q63SeffOKwxpRA0tUZzp49wyKnstevV6+ew2gyHTt1ZDMI9sj+fX/FxsZKKsop6wm80e7evZvf5Ge8SV4KADo820Hc4HfgwAHRkaTEY4+tZsMFY3waGRnpnHVfycoQALi7u3/xxRfiRGPEiBF5wgxC/mkViWLJ9Kw7TZ0yhZ+bRynt27eP6EMlmjb4g1mZWRPGW1DP119/zTbRKGyvVrtZaGjo558bXf3YR/322+/kR0nbH111Ot0LL3R5+eWXWA6nTp1aMN+KNoetHVcsgbySxfRZmVmjR38EgsvMiBEfhISEWDVOlw86d+4segnHxcVNnz6t9DLIH3/4MI3touL49NNPHBaEEf7www/FTXRffvml5JQpcMZ6Ant85cqVLDQJu/ncc+ZjjyVmC61GO3LkSLG7McEkI24JxAAZDWGEmWBg4tOOHTvazkPIrQRlA0CXF7qwI3lYRWRmZr777rCMjIzSaKryR37+789btmzlpQQGBo4dO05MbLUGuVmEPSVuorFTllVhJONPTEyf6OhoMaLU6NGjC2UbEOy/vkaj/fDDD/la8qJFi8RDZJV3csmvYlXcv586bNgwtpOIFRQZGfnuu8OUZFtGYO81edJUcSfYxo2bZs+eLUlTspz5xaNHOcOHvy8JLhMV1VJJ/r169YqIiBADpgwbNvzhQ/MZHQ6t8gpx/ty5OT/NAVNfDfz/9s49KIrkDOA9K1i4pnywgixZWGQJwqYQ3T0vigUHJ0kZFVByEi28E+8QRFOeaCXxCixdFQsSUVPGo05Jae6wNOehUD6ilga13FXuCkoeZymICrvs8hBzcCDq7s3mj9a2nZkdZmcWtEz//qDYmX58X0/3193f9HT7++MrKhhdKQBg3rx5+HtSKBhavSVFGEYfXFtbAwWD+Pv7xyfEC0pHdPZbtm7RaDSoPbS0tKxcubLlbgsun0A4B9sFBTvgK1v0XIuLd/n4+OCB2W2ppKQEuUWcTmd0dDT8iIZtd4dUkDOwYZtBqXy51qCrqwt9j4CLwZO+zWaDPiZkjIqL/1ZSUgKk9XUox1u3vs/I+Bh/RzNmzJji4lfO9Bp5/wgUz9fXd8+el9N7iqLKysq2bNkCX9+Iaw/45Kitre2TTzKR7hRFRUVFwa12BTb+oqIiJBsAwGq1rlz5MfIxecQ5Ultbs2bNWnyj3E2bNnmN8uJ8KCivnTt34tNqKJhFwLmIAqGdNBIMvFB/48aNXqM852fFM3sZk5J9/vl++LYM5mqxWJYtW4a8BsKdI4wHYzFbVq9eDX2r4IXN3rw5X6v9JWCNEXBuXL9eWvr8TDyKouRy+a5du/As3JrfclYXr1FeuKOLoqjLly9DlTmdNWzg1qS5ubmoh3E6naWlpX/68x/hKiPR1ZR20mVlZR9++BE85gpViJKSEsY3BJ5ybQqUCi92nU7/2WfPXdSw5pw+fTpjRQZcmCcaGSU7d+5ceno6XKwIdffz84MPS6CBpp10cHCwwWAA2Bsuq9Wanp6O1jeILjcYsaysbNWqLHgaDswiNXUxPl7GOzz8b3BwMFx/gLDZbOnp6fhG5VI4/vXXSDAoW3JyUmJiokB9R23dulV4ZoytxuXysQkJCZcuXRoYGEC3jEZTTU2NQuEbHKzmjMXDo0ePDh8+nJ+fbzab8YjrPl239PdLeSQBADx82J2ZuQoVBABg9+7i8PCX7ivaSaNuSqA8nCgUivHjxxmNJnTFZLoeExMDPdvsca/D4Th+/Dg6RTQxMTEsLIx20gkJCVVVVei4ufv37p88WeF00lqtVsRe/FeuXDFsNVRWVsKfUEdvb++9e/fo9e+ww/MUwrFjx5BU770XFxER6SqkEFBG6B+tVjthwnij0YRGmj09PSdOnOzr6wsJCRk3zu1vfxobG3cV/7W09B/40584ceIXB74IVL7clWrI505RFO2kp4ZPVSgURqMRXbfb7RcvXmxqagoICFAGKFFFcovr103bt++A6w9R9JkzZxYWFaKfjPrDEDssLGzyZP+rV6/iglVVVd25cycgIADfHsgtTCZjQcFOfJ0nAECv1xcXFwPBjUX87uFI50c9PevX596+fZuRlF6vT01NjYqKYhzbwWZw8HFTU/OFCxfOnz+Pz2wBABRF5efnLVq02NXUFF3JyMhoaGhAVXPp0qXDenbE+vXr8e99AgMDy8vLOU+WevLkyZIlS9BigYKCAvjugHbSP/z3h8zMTORIhsKrVKrExMS5c9+PEOAqb2trq62tqaiobGxsZJS/v79/YWEhz6IJHLx4U1JS0IFPmzfnw8IHnnasnDp1qqCgALV8qLuPj8/8+b9duDApPPwX/DtC007aZrU1NDScOXvKZLzBuBseHr537264WbE48SoqTu7YUcBuHTFzZv3m1/N0Ot2QtRoA0Nvbazabq6tvXLx4CR0cg5ib+H5hYZG7EvILFh0dLWRz8h9/7GttbXMlWHx8fNFfiuBUS+A7NUmnEKDUnz17tmfPbvim7WXSz3eWl0dFRanVwRpNGNzOz263w3NMuru7zWazxWJpamri/BxIo9Hk5eVFR0fzmA/4//6/78fXv4eGhh771zHg0arPkGFw8HFSUjJu9eLj46EJZ8BpR1C7Hejv375j+6WL/2FH1Gg0IVPUQapg1EvDorPb7d3dtnv3Wltb2+rr6/FOGBcmLy9vwsQJwksAKZiUlGSz2eCkIz8/LzklZZhcs83NzQaDAR3YjKAoCn7dFxISwhih2O32dmu7xWw2my03b97k1D01dfGGDRvgYXFSfKJ1dXUGgwFZeRxvb+/p06cHBalCQ9V+fkr8XJ7+/v6ODltHR0d7u/X+/fvoBAKkGmxxWVlZ2dnZ4gRrbGzctm0b/rkZasXe3t7Tpk1Tq4NDQ9WBga8YFCRYR6ftbvM9V4JlZmbm5OS4K5InTzMxmYwHDhxsaGhgCwewr2Y57zIuyuXytLS07OxsnrMjUVP87rtv1+SsRde9vb3Ly8thdyHdte4qUxklq/72xto1f8BVyM3NXb58OSNTnvEIMvZnTp8pLS2FowBGoTGKiP8uAEClUuXk5KDlEiJKgHM8MkymxPGT45+HD3/55Vdo5bGrWgEwjw9nmVAUFRERsWrVKvQxtwix2c/u4MGDR44cYRyj6wpO4RnExsauXbtW4hYwSDBoSdm1QogkjJCxsbGrc7IipmpFvJby/KlIV65cOXToEG5NwFDli/QBACiVyoULFy5alOxqexHw6sOura3JysrGE8c7fKnKcGWKp7xv377D2BJv8KLh4VeGtCMo2Llz//7mm3LYP7sqMR7LEhkZ+cEHv5s/f8Ho0aOlqK/X61Ga6z5dt+KjFeLSEQKU8+HD7qNHj509e5bRSTJw1UIoitLpdGlpafC7Bym6c8Zta2urrKzkEU9Io5XL5XFxcckpSb96dxZPXm6JarPaTpw4gQTjEQPdYofx8fGJj4/HBRMhm2fsCDvXuro6k8lUXV3d3NwMV1gwFMB/+vj4TJkyRa/Xz3z3nZiYOWwFGLMYPIDJZKyrq5ePfT6XnqSYtGDBAukaDQkS4+jRr57Zn/u0HXa7QqEQaEdcJXvr+1tVVVU1NTUtLS0853uggVtkZKRer581axZ7AiiuplZUnOx94WeNmR2jCdMM02CEbUkvX75cV3fz2jVjd3e33W7nGYZQFDV27NgZM2bM0M2Ii4tTq9VCFBdeIOwq5/jJYbxmrK+vr66ubm1tZT8adluVy+UqlUqn02m12tmzZ8Ots6Q7m5iOfF7BOC0IEiwiImLOnDmMM+0Y4xEhheYZ/wjPrd7e3paWu+3t1q6uTsbJ3vKx8sn+k5VKZVBQEK7JkHKQmKsaAAACiElEQVQPqaGn1gu5mztnjkLsCGdE6AyzWCydXZ19vX3oJY7D4Rg3ftwkxSS1Wq3RhCJHAGCttROivist2A1p+GY3bJFsVltr6wOr1dbT04M+OXU4HF5eXhMm/MzPT6lWq9VqNc+0V0Sm+JtXdkPC//b29j548MBms3V2dT4eeKXdymQyhULh5+cXGBioUv0ceovZKXh80ASvD/T337t3n1MwAIBSGTBxoi8umPDE+RmW8YgQ+8J/i6eJsp/3kCl7HP68BPpHXEV0SxGPt3Ceuv4aS9gjWQvpn+A//Lq79fQ5A0tXR8iAy60Bhat0BMb1TLVg5IS3cyQWZ0g8AH6LHQxdwfteRhR6pNZWceZFu16qLwQU0a3oKIpHdH9DjAjgqlFDKsgTQOBUQsb6lJ5THnYP5yokeLWfEy4JP+xHwy+niOzcjTuMNYPfLvAEditl0YlIxJWlEy2DROE9ojuuAk9Dei1IqUIeqV0Sw0usHjw5vvZHA4bVjhAIhP8TiB0hEAhSIXaEQCBIhdgRAoEgFWJHCASCVIgdIRAIUiF2hEAgSIXYkRFF4hZKBMKbCbEjIwfn55i0O0dMEAhvJsSOjBy4EcE/FHgT1iMSCFIgNXjkwCc1xHYQ3iZIbR458KMGyFyG8DZB7MgIwdhWkoxHCG8TpDYPL7STdjrpwcFBZEHsdjsajJBRCeHtwO1zUgjCgftEUJTM19f36dOnAACapseMGSNlYwgC4Q2EctJOQAEAaDI2IRAI4pABAIATACcxIgQCQSQvzAdZZkkgEMQiIxaEQCBIRAYATUwJgUCQggwAGjgBAOQFJIFAEIkMAC8yHiEQCFKAflby0pdAIIgHvvclRoRAIIjnfzNyUmmDNia6AAAAAElFTkSuQmCC;fontStyle=1" vertex="1" parent="1">
          <mxGeometry x="550" y="550" width="127.11" height="70" as="geometry" />
        </mxCell>
        <mxCell id="3R0D6cxO1X3JCbrjLW3T-18" value="&lt;div&gt;&lt;b&gt;APIs Extract&lt;/b&gt;&lt;/div&gt;&lt;b&gt;(database)&lt;br&gt;&lt;/b&gt;" style="dashed=0;outlineConnect=0;html=1;align=center;labelPosition=center;verticalLabelPosition=bottom;verticalAlign=top;shape=mxgraph.weblogos.json_2" vertex="1" parent="1">
          <mxGeometry x="573.35" y="726" width="80.4" height="25.200000000000003" as="geometry" />
        </mxCell>
        <mxCell id="3R0D6cxO1X3JCbrjLW3T-20" value="Paul R. De Buck" style="sketch=0;outlineConnect=0;fontColor=#232F3E;gradientColor=none;fillColor=#232F3D;strokeColor=none;dashed=0;verticalLabelPosition=bottom;verticalAlign=top;align=center;html=1;fontSize=12;fontStyle=1;aspect=fixed;pointerEvents=1;shape=mxgraph.aws4.user;" vertex="1" parent="1">
          <mxGeometry x="70" y="642" width="78" height="78" as="geometry" />
        </mxCell>
        <mxCell id="3R0D6cxO1X3JCbrjLW3T-22" style="edgeStyle=orthogonalEdgeStyle;rounded=0;orthogonalLoop=1;jettySize=auto;html=1;" edge="1" parent="1" source="3R0D6cxO1X3JCbrjLW3T-21" target="3R0D6cxO1X3JCbrjLW3T-3">
          <mxGeometry relative="1" as="geometry" />
        </mxCell>
        <mxCell id="3R0D6cxO1X3JCbrjLW3T-34" style="edgeStyle=orthogonalEdgeStyle;rounded=0;orthogonalLoop=1;jettySize=auto;html=1;entryX=0;entryY=0.5;entryDx=0;entryDy=0;" edge="1" parent="1" source="3R0D6cxO1X3JCbrjLW3T-21" target="3R0D6cxO1X3JCbrjLW3T-33">
          <mxGeometry relative="1" as="geometry" />
        </mxCell>
        <mxCell id="3R0D6cxO1X3JCbrjLW3T-21" value="Development&lt;br&gt;&lt;div&gt;Frontend+Backend&lt;/div&gt;&lt;div&gt;Infrastructure&lt;br&gt;CI/CD&lt;br&gt;&lt;/div&gt;" style="sketch=0;pointerEvents=1;shadow=0;dashed=0;html=1;strokeColor=none;fillColor=#434445;aspect=fixed;labelPosition=center;verticalLabelPosition=bottom;verticalAlign=top;align=center;outlineConnect=0;shape=mxgraph.vvd.laptop;fontStyle=1" vertex="1" parent="1">
          <mxGeometry x="179.50000000000003" y="655.5" width="70.84" height="51" as="geometry" />
        </mxCell>
        <mxCell id="3R0D6cxO1X3JCbrjLW3T-23" value="" style="shape=image;html=1;verticalAlign=top;verticalLabelPosition=bottom;labelBackgroundColor=#ffffff;imageAspect=0;aspect=fixed;image=https://cdn0.iconfinder.com/data/icons/social-media-2104/24/social_media_social_media_logo_docker-128.png" vertex="1" parent="1">
          <mxGeometry x="534.36" y="540" width="39" height="39" as="geometry" />
        </mxCell>
        <mxCell id="3R0D6cxO1X3JCbrjLW3T-24" value="" style="shape=image;html=1;verticalAlign=top;verticalLabelPosition=bottom;labelBackgroundColor=#ffffff;imageAspect=0;aspect=fixed;image=https://cdn0.iconfinder.com/data/icons/social-media-2104/24/social_media_social_media_logo_docker-128.png" vertex="1" parent="1">
          <mxGeometry x="380.16" y="380" width="39" height="39" as="geometry" />
        </mxCell>
        <mxCell id="3R0D6cxO1X3JCbrjLW3T-27" value="Goal: Sept. 22nd 2023" style="text;strokeColor=none;align=center;fillColor=none;html=1;verticalAlign=middle;whiteSpace=wrap;rounded=0;fontStyle=2" vertex="1" parent="1">
          <mxGeometry x="90" y="389" width="70" height="30" as="geometry" />
        </mxCell>
        <mxCell id="3R0D6cxO1X3JCbrjLW3T-28" value="&lt;b&gt;https://eccatalog.debuck.tech&lt;/b&gt;" style="text;strokeColor=none;align=center;fillColor=none;html=1;verticalAlign=middle;whiteSpace=wrap;rounded=0;" vertex="1" parent="1">
          <mxGeometry x="500" y="400" width="180" height="30" as="geometry" />
        </mxCell>
        <mxCell id="3R0D6cxO1X3JCbrjLW3T-29" value="&lt;b&gt;https://api.catalog.debuck.tech&lt;/b&gt;" style="text;strokeColor=none;align=center;fillColor=none;html=1;verticalAlign=middle;whiteSpace=wrap;rounded=0;" vertex="1" parent="1">
          <mxGeometry x="620" y="520" width="180" height="30" as="geometry" />
        </mxCell>
        <mxCell id="3R0D6cxO1X3JCbrjLW3T-31" value="&lt;b&gt;European Commission&lt;br&gt;Datacenter&lt;br&gt;&lt;/b&gt;" style="text;strokeColor=none;align=center;fillColor=none;html=1;verticalAlign=middle;whiteSpace=wrap;rounded=0;" vertex="1" parent="1">
          <mxGeometry x="1040" y="160" width="160" height="30" as="geometry" />
        </mxCell>
        <mxCell id="3R0D6cxO1X3JCbrjLW3T-32" value="&lt;i&gt;Future&lt;/i&gt;" style="text;strokeColor=none;align=center;fillColor=none;html=1;verticalAlign=middle;whiteSpace=wrap;rounded=0;" vertex="1" parent="1">
          <mxGeometry x="1090" y="193.5" width="60" height="30" as="geometry" />
        </mxCell>
        <mxCell id="3R0D6cxO1X3JCbrjLW3T-33" value="&lt;b&gt;Gitlab CI/CD&lt;br&gt;&lt;/b&gt;&lt;div&gt;code.europa.eu&lt;/div&gt;" style="shape=image;html=1;verticalAlign=top;verticalLabelPosition=bottom;labelBackgroundColor=#ffffff;imageAspect=0;aspect=fixed;image=https://cdn4.iconfinder.com/data/icons/socialcones/508/Gitlab-128.png" vertex="1" parent="1">
          <mxGeometry x="340" y="850" width="90" height="90" as="geometry" />
        </mxCell>
        <mxCell id="3R0D6cxO1X3JCbrjLW3T-37" value="&lt;b&gt;1 VM&lt;br&gt;&lt;/b&gt;" style="verticalLabelPosition=bottom;sketch=0;aspect=fixed;html=1;verticalAlign=top;strokeColor=none;align=center;outlineConnect=0;shape=mxgraph.citrix.tower_server;" vertex="1" parent="1">
          <mxGeometry x="1280" y="342.5" width="65" height="85" as="geometry" />
        </mxCell>
        <mxCell id="3R0D6cxO1X3JCbrjLW3T-38" value="API Catalog&#xa;Node + Express&#xa;REST API&#xa;" style="shape=image;verticalLabelPosition=bottom;labelBackgroundColor=default;verticalAlign=top;aspect=fixed;imageAspect=0;image=data:image/png,iVBORw0KGgoAAAANSUhEUgAAAW0AAADJCAIAAABnmfQ5AAAACXBIWXMAAAsTAAALEwEAmpwYAAAgAElEQVR4nOxdd3xUxfY/M7uppJBAEkggIWCAUARCExBQRIhSDEhVVFREkR8oj6I+LFQRxYfKkyYdBJQqTbqE3jsGCKGEFCCkkkZ2d+b3x+zOzt675SbZFHz3+/GDN3fnzpw7d+Y7Z86cOYMopaBChQoVpQCuaAFUqFDxxEPlERUqVJQWKo+oUKGitFB5RIUKFaWFyiMqVKgoLVQeUaFCRWmh8ogKFSpKC5VHVNiHnv2PUAJAJL8RSvi/ZqgOSf97UHlEhU0QSgC0jCZSU1LnL5i7/689BQX5jFwIJRhhAGD/mh9BFSWvigqDtqIFUFF5gRHmZHHh4pkNG3738PA40HzfyA8/CgoKYvd5AgDChyV2U/hJxT8cKo+osA1q1jWys7KLdIVFusLYg/vPnz/Xu3dMzCv9qlevJjAFlmgoKon870D90iqsQ5yhcAsIpQSAZOdkrly5/ON/jdjx57aMjAz+CNdQyl1YFRUMVR9RYR0iKXDNAiEMQAAIIHL3buLMb6c93bR1nz4xz3bo7OrqyvQR2XxHxT8fKo+osAdrKgZnBwKAL146dfny2Y4dO0d379W+fTsAPWtUqn3kfwoqj6hwCIKtL8EYzauEQuzB/adPn+zQvsuAAQMjIiKMP6sk8j8D9UurcAhst50Yf8rLz929d8u33027dftW+YilovJA5REVzsT169cunD8PqrX1fwwqj6hwJjBGhOoqWgoV5Q2VR1Q4E4QaAABAz+ysFSyNivKCyiMqygKqH9r/FtQvrcKZwEjDr1V95H8HKo+ocD4IBVD1kf8lqF9ahfNhw99ExT8WKo+ocCZMdla1Xf1vQf3eKlSoKC1UHlGhQkVpofKIChUqSguVR1SoUFFaqDyiQoWK0kLlERUqVJQWKo+oUKGitPjn8Ejl88I2HfhCxTsg3KmsAlesEMJ3tPymxFYy+Z/lCL3sjkwSym8SAAJUvOMAFu9FLVsOBQBSSZr9P4FH2BFNwukHJlTwgUwYKDa2MyYJxcZrZEoAILSwMoejNocFkaykpNaOwnI6JHFhBZktTskxfW69/Kny6lp6ACJEFOTDhqQd6gGBUXiKATAgAESK2/UIJYAIIAIUADBQIEAAAIOpUVUonkgekTQUjDChFsO+MUHFemcb+UILCADpTe2JALIa7rQ8PoSdeO6Emkc2Qq3Lg5D9wGhOA6cJaxFe9WDxIha/8vMuyoNKqJZRhqksU+WwVsfHDNCaRhHW8wmAnhEBANjlZSHCNmV8wWiImH4CIysBa2AViSeSR6QHuLE75u/HQpZXcM2ahg49O5XO1J4wsDHEkvjKbTwRyELKxba6bvlrzhJJLAUwjf/UNH7IpkLlFF8asYFBsh2RmOLpg6kFmo7vQOy7Y/YKxLFmJ2SLRKbAhIoaTaWY1zzxcZ7Z4HPq1MmrV681bNigdes2ptObtBUdr5xRmxYbCQVO3Vt/K/ucv3tIl7APsPFXIgwy5aeSgKyvmq7hwIF9hw4ecXd3fyWmd8MGjUDaT8oc4ll84kEWIgoLC+/evWsguqeeqo812PIVyk1ac98RyjXPMgjg65mxDf07AGAAPVCtSUEmwlDnqAOaZ8HmlOY5HdXyZuaMNyo5nkQesTj/MeFGwurVvx4+sr9IV4iRpnXrZ9955+2nnqqvxdoK3rcu2EFu55zbmfB9ZmEKANxE+FLars5hw56u9pJWg81UUl6wOmsoKiq6Hv/3smVLzpw5RagBgOzdt2PgwMH9+73m6+sLABi7sKfLWlTxwAqrDHLh4vn5835KSk4CgIYNmw57d3jjJo0xtkI3ZQ6mRSKTzIAJEAw4u+jejoRZd7LPE0Q1gMOrtukePsrXtQYACOYw7Kj3ETAPNtwQQ4xzIgRAtYB4bhXckRGlFW2iKSZMjYwkJ6f+uXPLxo3r8vJz+Y8AGCPNwIGv9+rZp2ZwzQqnkvv5N44nr4lLjwUADMhADaDRIkIAIKhK3efDRtTxaQFQAaYcccBPTk7euOm39RvWUkqQ2QZMMHKpUTPovWEjmzdruXHTbytXLaWUIEdV+tHocX37DHCWhOKN+PiElasWx8YeYDYCSgEhDBQPHPhazx4xoaHB/FTzcvju0oONKQAi2Y8fnErdeOr+ZkoNiFCMNZRSirEWUIugV1rX7OvrWkPUSoTBxkoJQDEgkqvLTMu/mfc4EwC83AIo6N00XsFekRmFdx/k32zo3xEAgOKKtQY+eTwCANnZ2UeOxq5es+Lu3UQTwUvbTUD1wNdee7NTx+erVw8ofwkBoKAg/8j9ZecfbDeQAkpNChSimJo/OAZUx6/Ns7WGBHtFlqdsnEQy0tP37du3bv2qtIcP2C/iMVeUAkIAgOtHRObmZaekpLCWbT9zZ/GIiMTExN17tv/225oiXaFMJyIA4OtTbfCgIV26dA0KqglWOKhsYGQB1uH1p1I3H0tem6/LYl/ZxzWwrl/r21lnch7fpwgopZ4uVduFDGoRGKPFWkDEfudnCg4gkpJ77XDSqltZJz20vvX9O1x5uJcCjGuzfenF4ffzbn76zN5ymxTbwZPHI4ePHNq8eZ1J/XaAp5u27vfqgM6dO3DFT9LCitHgeKPhc2BkHogAgDCjOiIA+GjSqtP3Nj82PDIQo5AISaua3UGIuGq8I6s916XWSFdXV6EsNnkmpq6L2YlTDqW1/UYmwqUACPQG/d49e7fv2Hrx0ilFr68YCnnE9oewGBiKiop27Nj+xx/rbt6+YSc3piixQ0K7PP+Cc/sVsxzJur25JVzNjD2W9OuD/FuEGChGXlq/RtW7dK3zIWsbh+4uP31v82N9HpOzumdox9C3G/p3NmViOWcRX984fwFAMPvUK8/WeqNFYMyiC0OzHt/rUOv1K2n7MopS/912XwWvSwJA5eQRWz3h77+vrFu37sTJgwUFBYxERDWbXcsVb1cX93bt2r/ad3CzZs3s569ENPaBTWOF6bZpngwAt7JP7b31c0ZhMkaYkYiJL4xVTSnRIA1FBkKAYoSQBgx6DdK4aD3b1uzfvtYQs3g8WyNVEaBaXpA9KR28IDlx8uSGDRtOnTqshIuLC+X6iB05Wdfd/9e+TZs2X7x4xqESxOHq4t6iRds333y9SePmJStaBhOhA5joSW+yTeCCgvzNt75MenSJUGIA4oK0TQOi2wT383erbVpABADIeHz3UOKy65mHDcTA2k2wd+TLT403J7OhVvOBZNbJXm1r9msc0HXXzR/T8m8XkYIanvVS866Nb7MLkKIBpkxRWeysdl0G4OHDtDVrV8bG7jep38C6tEgZ7FpCKwBQpMuPPbj//PlzL77YfUD/wUFBQaUiEauRRxEBwIX6nPVXP0/NuwYAhBgoogCAEAHQAAAjEYQQAKYIKMUIARCCEKEarZ4aQJ9/8O6yKw/3vhj+UR3fpmbzPgVTQ9EKDGLP1C9fuOV3kpOT1/6+KvbA/qzsdMT9oyoIds4AvnPnztKlC06fPpmXn2siEYeiEgAo0hWeOBl782Zci+bPvP/++9WrVyPU7FFSojPMtWZ9BIAAwcwnCPDOm7MvP9xrIEWEGECjDa3S+Nnab9fxbWFpTAUA8HcPeSXii5S8uNjExbezzmo1LndzLi+5+EGT6l2jw8eYHNUsXShNmgj76MRQxH4p1OeE+TSLzzreoFqn1LxrgAAornD3jUqhj8iX+vhPBQX5u3btWr/x17t3E8UnAMBWw6KUgEAoYuLg4OD+/V57+aXe7u7uEgFAqXFOXLc3jk56A+y9M+fyw73EUESAcgpDyNzveT2LExwMiCIDpZjNqCnGYNCDRlvPt/XL9f7lpa0GIHgK8A+lTI+V1GdhYeGmTeu2bNuQkpKi6PmSogT2EVHUgoL8RYvn79mzKzsns/iFWzSMgOqB/fsN6d27t5u7e4kYBADE+axpAkLhambsnwn/4VMVX7caXcLfb+jfQVjcNS/YWU7ZyNWMI/tvLcgpegAABFEPjdeLYSMbBXTFCFsaXHgmhFA4c29jWNWWvq41bmWfDPSs+yD/Zi3vJnEP/2pds5+R5ip0SKgUPMIhfma2wrdq1coLF084XCPgvdrW7MZM9lQbGdnozTfebdGihYeHp63SlZTFGORq+v79iQu5dY1xgaWiZKWSKcZs1QYAECKEAFvH4ZK7aNza1OzXokZvgU2Iyde+WFQChYVFp8+cWrVqadzVy7ynYaQxEJ2Cii02Sjyvyc7OPnbs2PKV80vPdGzhiVJAoI2MbPT228Ofbvo0/9zFYxNqQeUpeXG7bs5+kH+LfVMXjVuzwB5dwj4A4zhkVlpN38jsOSKWe+ju0hOp6w2kwAAIIU0Njzrd644J9mpgYRkRL4wgQgPg9pQKV0cqGY+YQK5eu7ph/ca9+7bzCbyZGqwvGZhrk6e0tUjJ7nd57uWBgwY0bNDQbPJQ1Lb4hILczr5w+O7SuzmXEcIIIQMQDVAAjQGIlrLJixXDKgZEgBJEAUADWExj8hagjIwwBm+XGs/UHhwV0Euw6YLFeGWt9sSGxYxK+//aCUgvr6KygGIeMcupN+gvXriwdNkSbgopjoT2Zz3G5eFuXXv36dOnUaPGrNziUImxth8U3Dp2d9W19IMGakAIa7CmlnfTPvW/dNf4ANKbTFd6wWgql8pC0XhMCv6In3Yn+zSzo2FADap1ah3cL9grUlRhTLYPkTUsjf0VvegLlYFHLL+o/v79tK3bNm/Zsjk7J50NmyYqKTHvWn2QANX6+vpGR/fo2SMmNLSW0swpABi9Qq5nHmbWNUwRQZSRCAAgasXRXdRKJBoKpQRjANBQSplSY2IlI8sEVanbrtbrJgu/5QhpG4mJidu2b962bXNefi5v1rJJn/NRzHkNuXrt6vYdW7dt3cz835iQTKlkopq8WmwyhbhWDSBJaRxyKIWqvtVe6d0/OvqlkJCa3GiigE30ALD39sJLabt0+nz2Zc1fxKx6cHMsYQqIaFUx9XbBZGvq/Cm5cbtuzr5XcBtTPaXYTVulaUD3jrXfdtO4mBwU2VMCQ1FsYVtV1h7KFBXPIyJOnDy+dOnCuLi/BUc9BrGhSMwTNmFjdmPZ5qi2bnjdN958W9FiIQVAcDRp1YnUdQWGXNEThK3CsEZGEEWEchOJpIa5CwlChFIsKikS0wm7w5YS2UJAdN0xdj2XzEJevnL++1nf3rx9w1o3A+P8SPEiSLGgnEcKCvJ/X7du565NKSlJwm0rq7/2YUN5sd5C6kdEDnn9nc6dOypc48h+fG/NlXEZRansq/m4BrYO7tu6Zj8xf4uFYSrMaCxs4ZIpCRBq3GtHKPk7be/hpBVZj++x1/FzDx7QaIa/e20AMUMi7QiVgEEYKl4CEfPn/RR39TI1b7HDMp9xLLuwCT6mWXvclDkiN2/fWLli6f379y0M5lZAAEGhPudE6rrH+jxMEaWEW1IRwlwHwRQJy0ZSmubsw5zTWAL2rJiY3zHO0Qg5f397Sm4cb4W2Xxv0Bv3vv681OVzIXhlMI6RtyOqtTLBr164lS39OSUlhUlGLfcZY9omJcKFEPOst5Hp83MxvJ8fHJ9jZ/Sxi47UvGYloNW4dar3+TrP5rWv2M+7ZNYlhwUfm5V4tgF5QTEXiJgBg2sJLMMJNArsNfXpuh1qvu2mraJAm5/H9DVe/EDLUy2iRU1Kl6MIVL4QYM6KwKB+s938zlDdxwcvbAQqL8vMLCpWI+tiQz/8sn9U2SglCGooMCKHbWWcAmKpssxIIJXqdPjU1VVlnM5ci/mk5vCvst8UDoeRu0i3bhcqkouIGE35ta5pmT+C8/Nz4G3GgzCj2sOAOAHi6VH3n6fkda73trvUBAJOiYdq3LRpWhRhFhPLMCScCQokx5gDfgkABKLhrvTrWevv1Jj/4uAXpEcksSDY9yPQarDz6Ufmj4nnE6oe0M4FXPrdHCCuctGk0Svxo+M56PVNDCLGibjgdmM2FKaaUGqgOgG05t1kJJfOOQUjKTUIflqsGTgBGWFLtImtYseMggpHGqAUgfbEmPnIUPTYAmP1K7MBADJgif/dg4ywDwKgssl7NdvSbHI7NcxCT2viYFBTqc3J1mbm6zFxdeq4+vciQCwgIt6FRU1gAigFBoEdYnaotMUUE6O3scyBu56scUxirqCx+aMpbv3JLvv2UpVmzMPmnluzp4paFKSVsx5cGuQAoOj1Xo9GYdscoh3GRq6pvtYKCgiJdvqyKStV17YAVJPcqBIvPRAyEaLALIaYJAjdhyrJyopDMRGX6A4yVYF41I4X6/MNJq/KK0oO9I1vX7Mf3SaTkXkvIPH41PTa7KI1SPV/+raKtFuId2aB6J2NIAWkjZGY1YgBEZdOZig6FYROVhUeUg7cqAGBLeixcQN26YSkpSceOHS3SFZrbpW1rYslJpNQ5FBcYM49YwvQRJTAYDIpJxNxSq3h6de7UrUfP6Bvxt7bv2Hz9+jUTd8gN3s6EpCZF/jL/RLUI6Qk1UCAhwbXat+uUlvYg9uBeiUhKPoqo+DhctUEUKGNuo4+pEDELAVCcUZh8NnWTHpHkR3Gta/ZlGsTRpFVHU9YUkUIXpDUQAzPD66keIZylu5+T/uB65uHTVRq8Wu8bD3dPAACzmxxr2FiDCLJY3CFAcaU9gL0S8QjXMB1oCgI1IIQjGzbp3TumW7eXtRotADHuyOB7zxxZEyUFKeF7JNsyU9Yw+dTLF61sopj6CAHAbdt0jnklpn37dgC4SePmnTp13rRp49792wSvMCev8mBsXuIVXX7suP9gpOnZ+9UeL/dq2KARUNi5ayffamhpDrNXP5Js7X9xAlRjNmoSAoBZ/YthDQEwRRgZvQRPpa4/fHe5gRoAoyraan4ewX7uISxZTtHD7MLkzIJkHdUn517ekPDpoMj/aDUsHBExBUwDijEQoMwyYjFXqqSoRDyC5UOQNVDQI8AAOKB64Kt9B774YrQQGQB3ef7F5s1aHojdu279aodukdaaqYLRzNoqTFkDWVCCYyGLo4/gunWe6j9gUMdnn/P29iGUYABA4O/v/+67wzo8237Pnp0bN64j1KDcbq0QhPANBFaIQzq1QfrWrdr37/9a2zbPcJ0wOrpbq1YtDx76i39uk5AOqJYo1uwoxmDyPDYuFTNPEGra+w+AMEbGkMCkUJ97KmUjAUoxigrs2TVslFZjmmdRIEAwglOpGw/eXfqYFCY9+vtG9pGG/h1NRihjEEZKDUhCG5XA2cwOKgWPFGvWx5py505dhr37YWhoqPC4sen4+/v37TOgVctn1m1Ys+WPTWXkJQEAhBiY2aKM8mcw2XQN1KzUYof9RKPR8Gs7+h1Gmr59+/ftMzAkJMR0B4t2kIYNGj31VP0O7TvPmfO9zBvFybAlJEK4du3Qd95+v2VUG18fXwBy6t7Gw0kr3XCVLuHvN6zemX3ubds3b9q0vkhXCAqW6urXr6+w1WkB6RlHcH8TxBePMCBgRitkWvS/l5eQp09HiHhp/aPrjjFlY1RhMAAAbl2zX/bjB6fubwZKLj7Y3dCvs6WfO3MdENut6M1cGVEpbDbFNB3h2rVD3x8+ipEIf5xYdufQ0NBBA4bUr9/AWUJy8E+JEC4HxYRSyrxIRLc3ZR/Oin4nWd/19vZ5pXc/TiLCg+ZHtBptVFTL557vrrhcJwMjzYcfjOny/Iu+vr4peXHzz7657/b8x/q8LN39zdemrro8OleXHhoaOnz4h11feJmtsMpIhPBFYl8fv49Gj2vU6GmFpRPOwmKeSNqlufcQ937SIle9QW+RBIBXYFSNXtXdgl00bm7YnRgXdzFPwHwUzWWxCVRlJRGoJPpIceHhXsXHxxssFRl5UJyAgIA6YRHX4+MqRsqKhxXdQcIprq4uouZia4gmlLi6lB+DSBQoDw8P/2p+AHA1I3ZT/HRM9RRrKTVoAFOgiblXfjn/zjtPL/B1C6xRsyZQLd9JZBkmEqp4erVq1Wbkhx8FBQVwVw6nL3/4utXQYvfHekNO0YPtCTNaB/fzcQt0x75ajXGvMFu+9Xev/V7zZdY2muvB5KP4BOGJ5BEGq3EGGNgdrYvW3dOlIkSr1LA7zbHeu8p5rVEuHjFQAMjIvwsGPWANIgQjCmAAwJgiPSks1Of6utUAAOF8BuOuHEqJBmuaNIl6e+g7UVHN5JHxnMsm/u4hId5NbmaeoBj//fCva+kH3V18/d2Da3g19HUL9ND4eLkF+LnX9HULBCAYiZHQGMtotdjNWcKUG55gHrEVUrzSrrFXElhZUjWBn/NQOevQQHUYs/guVEs10s2QfGcSCBcUN6gf+dJLPfr26UuoxXxN1GSLt/3XweQOdw8ftVX/KDXvml6jJYQU6rKTdFnJuXFMchekddN4B3jWqeXduE3wIDfsYbkfh+jJY0kc38qPJ5hHwAZlKNw3oUIOq0fGVBZOMdKEBoAipCGUsLgtGANCbgCi+YBZJXGVKp59+/Z/Kbp3zeCaAFacL+yotKUA8XWtMaTJT5cf7E7IOpGae62IFOYZcoAQDAgBIVSXq88syMlIzDl77v72XhGfhPu0BgAwxrsjwAJKVPhZm8XBk8ojhB0eKdNLy+3YgX8WzGOsWJNc46s8pEyIASFjCChKMcVsFV7PPPT0Oh1f9ej2Yu9X+/Xl8WWswpZKaxeOEpt2/TYJ7NoooGuRITdHl55X9DDvcWaBIadQ/yg178a93GsF+gwAyNdlbbw26f9arnfTeJj0ES1UhGNBKfGk8og4uAhsIlVWK0a4ygp5WGz+k9VT7OycR1VucjJgDQIETwe+dOnBnke6NB4xGwMmlIZWbVqjSgMAEl43rIqnT0hI7beHDo+Kaunu7gqA5a9WttILDRMj4q71cdf6gEc4gNkVutCQcyPj+M7bPxaRQoOh6Er63qjAXiaGIgDS80kqP55UHiFEStjM8cFCNyEqj1hA4uVFKUlPTz98+NArr8SwgLWSniZGhz567HiFyAkABQUFGemZAODrWmN48xXHUlYeT1mrB4oIeLpU7RI63BjcFKDL88+3e6YDQpgxiPgW5UaIf1yfejP7tIfGe3DjWb5uNfh2G8H5lbhrfZoEdkvIOhGXHkuAFhZlGx+mRgf5J4tE4MnlERvAGAkKeZlt7BejFpUbLFxaHbkkGQwGhxo4QphQw9x5P5w6fXTo0HcaNmwiP93y4cO0ffv2/bp6qcKoyxhpwHkmFaaYEGqY8/N3WdnpHdp39vXx7Vj7rRY1eu9I+I+Pa/XoumMs1Q0sibnrVOjtnPvBv06+PvuxPq/AkJuad83XtYaZRMwxh0Q2R5RSF407mH3trUI8xqgy4knlETavsXqWUjmoryZvblIO6/ysL2FApiO1WINzcMS06BUCdtd6AelPnT5+6tTJfv0G9OzZJ7xOGPP+LiwsPHrs0Jo1q27cuF7ciNDO+gTcXz4lJWXmt9PatjkU80rMM+3aeblUG9BgOrNKltv8i7DjHZB1luQWjVreje9knweA3Tfn+DQMrFGlgZAY86Hnfv6NOzkX2FMh3o2N8y9TrCN2MLBYOCCT43ylpJInlUcYbLk5lEV7EhqrFuAxMbqGlmHAZAaMNQYgCFj0DTCNbEo/nHxLvjUQQGT9hrVHjx3s3fPVTp26JCXf3b59s+kkXR4ktXhUolw8JQkw0pw4GXvi5F8vR/fr0TO6SePmPBS73Pzh1IHEqNnxYKjYbmjlpwNfOnd/e74uK1+XtebvcU9VfSbYO9LbzXw47KPHaSmP4m5mny4w5GJAQVXqBnpEgCzIo5GYjBGSuFN8ZSQReHJ5hNtHysibSA5J5uxEq3LY8ksp1SAMYDAXVBz9VgEF8J9ISkrK/IVzdu/+Mz0jPTsnU4jhiBVSiem7OFCXRPFs/WSNAQkA7Phz86nTh7t06TZo4BB/P3/jO9iw7JQelGILzkAEQGv1EzC7vq9bjX4Np26+NvWR7h6h+rj02KsZByVaM9ssDgBV3Wr0bTCFbVU3neuKAUBLsYGtJPDIrGLIgsqHJ5VHJM4AVm3yTrezsoaiJ4UEUUytH0xTFmAbAo1jU/E3aykc8HnHsNyPZ2GaVVBYMWIdcQOWVYaSMBfboUspIETSHj5Y+9uKUyePv/JK/569emk1AKAtu1GEIj6jBHm1gMxZKdirwZtPzzl3b8vV9NjMgmQDMVDEiMNACLBZqo9rUOOAF1rXfNVd68VoFyPzgg47Tc2Un950pl8lndTAk8sjXB+RT4/N6omz7awYAfNTKE83IYQIpUB4/DXHyi0Bo52V/2kvvXxfrKRXF/MoGan7ib3U5pPArKe0vI+N0lIMiCDQ3rx948efvt2+Y/Nbbw175pl2WosojU7rchiQAQnRWAEsg8ILKU0THwLg5eLbsfbb7YLfyNGlFupzc4oepOXdfGwoqOXT2Mc1UKtx93GpZgr1ygO7AQGC+TITRch4fJ8WkB4rnslWCCq1cFZBKdFoNB4eHiAYViVp2H3L3ZZOAdYgF4S0lDxmhs9yCIlGKcYYAdVTwH5uIY4fAKx10fr5BQLE2T5dUAJSbL3DipyEBaDDyEWycKboQccgGLkQarA4WhDB9fi4L76Y0LFj57fffj8sLKyMtJK0gju3s88Zz+6VzS8wwgZqMEYsB8IDGmk1Wn9NbQAIhkjjYTdIXPSxXACigBFOyY27nnGEuc+H+jQDAEB6UokjoTFUUjXJDhDCrVq1dnXVgu1psHGfnkZbL7y+80omQMHXrbqX1s9cULlMWAlClGKtxq2OX0vTPXsUqdVoe/fu7evjx6ME2Q2yz1cizZvrOcQjqcBusH5W1tNPt2zX7hkAkBsO5ahRowYUg7YwDz5E2RoqIuwOoYbYg/uHvj1w6ZIliYmJppdyDur4tdEQWmDIXfv3+N+vTryVfUbyzRG2WBozOkAizhSmf40qjNYcEIcFbDXSIqTkxf1+deLKy6PzijIwRbW8m2JjFLMvZjcAACAASURBVNgynLI5C5pJkyZVtAxmbNi49tGjRwAEAAHFgCgAEZXI2rVDh7z27pAhbyHT5AXZjVdTt249f3//tPsPMrMy7CTz9fXt8nw3v6r+xqKtgxKgCGlCq7ZIy0vI0qcjAASITQwoJRhTAEQQRYAwICYbQiwgjfHgKwDEU4LJ6YBaewuCKJiscRSIn1vN3hGfB3rWNcnigMFCQ8MaNGiUlZWbmpJEgSJEgWqE+qTc1CcAWYmrAZS9gzEFMn4XmcwkoHrQyy/1em/YiJo1gwGAgINPAwC1atV2d/e+/yD50aNHVitBBkEMyzsMFy6eOX3mOEYuNWsGu7u7WzYPYn024ggN/Don5V7OLkqjQLIKkq9lHM55/CDAM9xd68US/P1wX0LmKYSIh9anVc2+RvH48goihJoq0NgSkDAzIgC4UP/oQOLiPbd/Ts+/wzSPMN/mgxvNMieu9Khc5+kNfj1GCIZoPJkVACglXlV8XnqpZ3T3XhEREeIjVpVny5skMTGJn1Ap16IpJaGhdaZO+S68TrgD+YTTmy+n7T6WsvphfiJotJhSdhanVcsrv2l5NKdxhwi/z0KEAxhjYbEw8QhhT5eqLYJ6dKz9tqBRK538FxUVHT4Sy3xACNVZPmWuXklt2FIQTD+JpRvnFy+/FNOjZ3STxk8rP+/SlEYfH39r48YNe/ftKNIV8sxlLvyg4JWNob812KVJk6geL/eKju7mLMXk8oPdx1JWZxQmM5u3h9Y3zKeZm9Yrp+hhYs55AymilDYP6mEKgGY6Oo9BJAJ+Iq/p/tGkVafvbc7VZ2qAEgLVPUObB/VsXaPfE0EfHBXPI+LC7etD+oo8AgCsHXTu1CXmlf5RUS1t5KFoKn75yvk/Nm/bvXeL7CBxUrt2nalTvlMwuxbcCikQIMeTV7Pj9SgloNEiQhAiiGooMrDzesE4eBoN9Ywy2MGdAOwOO52TAABPww731WDXiKrPdAwdKpzPqNSvUayQ5OTkgwf3r1m7SuKTav8cdbDSmfn0BzgHPd209eBBr7Vp21Y0cxZ3Mws7J3zzH+tiD+63IZ5C6jS3GVcX93bt2vPgmyUHNRtWT6WuP5a8tkCfgUxRCxj7Y4rctFVGtFjpqvEyGkotHAX15skjM5EABiC3sy/tTPg+uygFIxcd1XtovNrW7P9MyGuVfxYjR8XzCJgbPRn8el8hWi8GgPoRkW8PHd6iRQur/s72Wyrf+8vzLywsunDx/KJF865dvwLCzLx27VCTPmK/vZptbMY8KWQX3TuWvOZS2k4d1WspZofRM+4QvV15iHnjjlVLJYUgCmwZiBpPCA71atylzohgrwhjxHAAzl8lG6kSExPXbVizZcsGO7v1rN6x9VNA9cB33hneoX1nX19fKzWlmEQ46eTl5p46fWLJ0gWJibftSCjPwMYnIwB44IAhH3zwf1AqjxKLleyMwrtn7239++H+IlKAAAjVa7F7iHeT58KGBXqI+iwP9S7EfDfZWQsNOeuvfp6ad41QnQGMhze3Ce7n715bsE89SWxS8TwiNDgzjwAACwcfE/Oq/R0TJXA/Kyws3Lnzz1W/Lk5Le8isXEwfcTivMXoug4UnGBMgo/DujhvfJeZewRRJ5i9MywCTHz3vGEzvYCeKs+NJAAAD8nIN6BL+/lO+HUwjPD9ByVigQn8kuYee3qC/Gnd1wcJ5ly+fNdksHazvsjmFcISFMa5H7959Bw96Q2SQEniUWt3WUFCQv3nzBkF7sj7/ErORvAiHr4/fp598yU7SsFqiInBDhvnYLVyoz2E/PjbkG6jOVeOZV5Tp6xborvXiy8MsNLzZmZ0CID07NOvMvU28hQRVqdu3wRRft0ALIcvJgu80VDyPMLAPPPj1mHup9729fTq0f/6DD0b4+nrzfd+SxFCMTRxEPFmeP/LoUc6y5YtiY/enPbwXHFxr5oyfHCnAnDt4wxUOH0AEKL6aGbv75px8XRYYLSAaxhQYA6UWOogBCNvTiQFRBHwi07Zmv4613zaWIuULPQDb5eGgkTkKwkJ2/Llt9ZoVd+8mWrVHWHtx9r5QxdOrSZOWI0Z8GF4nXK4ZlXhvvhDxH4BiAiQ1JXXZsqUnTh7KzslUQCUWoJQEBtRo177j22+9V9WvqjOmCcZIZXI+upoReyzp14cFdwzE4Kat8mLYyIbVujC/OMu3A72BXEz/83Di8lx9Jhs8PF2qdqs7qqF/RzNDCbNmlUeKB7HZbdz0+/nzZwcMGNSk8dMmBmG/WGkKCoc+O+EnCCUJNxJWrlpcr17kwAED2d55O5IKnkiCLi2bdOy9PfdS2i5mNJEfTIEBGaiBYqSlmAClGFNqcMXuEVWf6V73I3etp6kJStSQksAqBfNJxG+//7pv/y75KT/W/dAojoxsFPPKgOjorgrdjhwSiiwBWwHlJz+Ry1curljx66lThwk12MpEIrCvj1/LqHYDBw0QIxiVbs+EYN4WTwI1TVp33podl37gsT6PTU5retZrV+v1hn6dxRnN1YzY0ykbEnOvAICWYhetZ9OA7l3rfGj57thyrFLnNcWDGORWsEhJDhNzQilgRbuR5m/3+/HprsWDEsWBAOBcXfqOhP8kP7pcqHtkManBGBFCMcaUAhiYga2mZ73nwt4L920JYhBzsSypYI6nNtZ6jsWrMY6Oj0/4/fff9u7bbr+j1q4d2uOlV3r2fMXb28d2/s7a4qQHwIIKSXb8ue3PP3eZz0i0jc6duvToEdO2zTPWpFK65UcKixYiLMQIX19P9NsTZlzPPMz2ZCOEQn2avRA+MtA9/H7+jePJa/hPGqwJ823VPXyUMSo18HFILOsJIxGoHDzyj8Wt7FNH7q5kAX7ZNEdymmdVtxptag2MCuxVoWKSo0ePbdz026nTx80rrOzIOMBVPL169ox56aVejhfFyxIZGRkHYveuXr0i7eED2TIwAcBPN23dp0/Msx06u7q6lo9IJmXZNAQC3Mo5dTz5NxY0gCDqofEK8AhLK7hTYMhlc9ha3o061H4j3LeFmdGetPmLLag8UmYwLdNeTtt9OGlFRlGqxrQlxwDIQ+PVqkZM65qvmjZZVPAQlJ2dfebsyV8W/ZycnMRMqhi5PNe5u2SCUP4QdZzExMTde7Zv3LguLz+XG00CqgcOe/f/2rRp4+/vzx8Bp275tSMdAFjMcJH+asaRA7d/yShKZdxBENVS7OMW9GytNxsFdOXbZ0xereRJ3Jsih8ojZQnTaFOozzl7bwvzNAGAyGqdTV4hRDgstoKFBYCMjIxNmzaeOn3Uy8srJqZ/q5at3d21ps2m5U0lVu1fhJI7d+4sXbrg2LGjHh4er776Wq+evURjarmKKpjGTPtxtYSSIkPu2XtbTt/brCMFGGktBgxxFvMPgsojZQxLM4pxLZBiy7BaFauMEPujYrlFeJGXKLktGk0AwIGnT5lXqWATFfxTzXeQ+fQ8S5PWk2f+cAiVR8oOokXWZD82G9IYxLCdlRHlTyK2BHB64lLDwp8AAMx+AILRxLgNjwrb88C8wv2PUUxUHikzWFCG0Y/euBAjojKQiKA0yfpGpTkHyxKCy0mFyyazkjCwwUOqqvwzUeHf4J8Lc3gro9OBuTey3eLItCUUQNBQKgImT38AaTCXirKMSC7kvxq35wseInYeKRvoLRnEVK5Z79Aa/zRPZwDA2CrKUc7ygKqPlCkkvonW7Knm4as8BSsGKqU+4sCmU06w4vph+aulV5HpAp5QZzM7UHlEhQoVpcU/hA5VqFBRgVB5RIUKFaWFyiMqVKgoLVQeUaFCRWmh8ogKFSpKC5VHVKhQUVqoPKJChYrSQuURFSpUlBYqj6hQoaK0UHlEhQoVpYXKIypUqCgtVB5RoUJFaaHyiAoVKkoLlUdUqFBRWqg8okKFitJC5REVKlSUFiqPqFChorRQeUSFChWlhcojKlSoKC1UHlGhQkVpofKIChUqSguVR1SoUFFaqDyiQoWK0qJMeISdFVaCE8NKdsiYnVPXnAsn5ukwq9KXVYIj5pxYaGmeKmXLKeuj6oqbv9PlKYt2WMo8y4RH2JmJ4iFsDru65WGL9iBPwAsilPBflWRVXIgFKRfPflYlTmC/ULH+ldcqPxLcVrYOUdxqF8vld+Rng1p9SrwQHynx6X8KX1z+jvZZzOmnEcoztFNFDrNivaaUQpbVvEZS11alFLslT6+wg1mtJowwz6dMT5PkMlhtNEo+qq2Wp+RoW1vyiGkk766kViX1VqwKdPit7ZRr9Y5YD3a4yX6XLi5E5rWap62mpYTFnHgCsX0aFe+ITZRdWx287fQphahc53IqbLtiMlvXynMrgXi8cRdX2mKlsd+lrb6sU165BAxSDoVa1VOsfu6yqARbeRb349pprqURT/4r2NbyymKILSc7q3zotqVQ2PpJnsz+dZlUlqXSZKthSS6UiCG+uPxBcdS1la39uaTCoUbS/hwOoaxEO2q2knIdMpFVqawqBaUkNblWJaltyQeyVZak5pU01+JCom6IFzyBrddRMj0vLspWH0lOTj516uTdu0lxcXH37t1LT08nxCy6m5ubv79/cHBwgwYNwsPDO3fu5OHhWYJS9AZ9Xm5eFa8q/I5WU04n0esNen7NZNBqtPImLibDWNrxrKoSiYmJx44dvX379rVr11NTU3NzcwkhGBsTeHl5BQUFRUQ8FRZWp3nz5k2aNJFnaOtPCRRKa2u0tyq83qDX6/Sp91J9fXz9/f1tFW0LFy5cOH/hfNLdu/HxN+7fv5+bmyv+6uXlVa1atYiIp+qEhzdv1rxZs2YSqUo5hNjRazIyMq5ejWON+e7dpAcPHqSnp+v1eowxa9gYYyZeWFhY3brhYWF1Wrdu7evrK8+89HKKeT7KeXTlyuX4GzeS7t5lgqWlpUmSsTYTEhLCBIuKipJ8mtLIUyY8UlCQv2vXrh07/rx48aJOp7MoDyEAsFqol5fXs88+26PHy+3bd7Cfv+SFCwry33tv+J07d9zc3NidgICAJUsWl4yVHIL3nBlff/3XXwfYzdzc3E6dO3799QyRwljKwsLCYcOG3bt3j9389NNPu3btKs+Nt93du3Zv3Ljx7NmzDj8NQsbPFxYW9vzzz7/Y7YWGDRqJ2ZbgvQBgyJAhXNoxY8b06NHDIXdkZ2efOnUqISEh4eaN27fuZGRkAEBWVlafPjETJ36usPSEGwk7d+7cvXt3SkoKezX+gpL3FVGrVq3o6OgePXrUql3LiRqo5O3++mv/7t17Ll26lJ+fb18eCTw9PSMjI7t169a9ezdvbx955qWBRDCxczmUjQv24osvcqYrsWDO55HlK5avXbP2wYMHoKyi5WjWrNn7Hwxv2+YZq7/KGzGh5Py5c++9N1xM1rZt27lz55bF7IaVuOWPP6ZOnSa+4PoN68PrhMtTFj0u6t69Ox9UJ02a1KNnD6tSbd++ffny5QkJCSWTCiHUvXv3oUOHRkREiAIUtwa6du2amZnJridMGN9/wACrkyZGkQcOHNi+Y+vFC5clWgNDdHT09OnTHZaYmJi4dOmSLVu22k8m1racYnr16jls2HshISEOi3MI/rLZ2dkrVqxYv3691bezKonVOwDg5+c3ePCgt4YOlSukJRDvUc6jFStW/PHHH/xL2e9rVn9lN50imNJ+7tDKBQAnTh7/ftZ/rHYDhFCVKlWCgoK8vLy4Bpibm5uYmKjT6ay+ZM+ePUeN+r/q1QNsFSfB1q1bJ02aBEKVjf5o9FtvvqXk7SRwaFSLj48fPHiwKPOSJUuYgi1HYWFh//79U1JS2J/Tp0/v1r2bRAdJTUn97rvvDh06JD7IXsTFxSU4OLhq1aq83oqKirKzs3mGcgwdOnTk/40scZt45ZVXkpKS2PUXX3weE9NH8voAUFCQv3r16vXrN7ABwxZ69uw5efJk8Y68bhcvXvTLL4uY3sq/Hb8IDAwMCgriEwcASE9PT01Ntdp13d3dh78/XPLRi8uk3Iiwd+/eb775JjMzU1SOxLbq5+cXEBDg4eEhfpr09HTJICo+Ur9+/SlTpohEXwLs3bv3+++/t1Pzfn5+/v7+Yl+TtxmJePXq1Zs06atGjRqXTCRFdgSrM0bJGDVnzpxly5ZJHkQItWrV6vnnn2vcuEmNGkGcFHi2qSmp9+/fi409ePLkyevXr4ufatu2bUeOHJkyZTKb5jhsCr169bp48cLGjZt4Dj/9+FPrVq0kVaNwXcDWKwOA3qAfN26c2KQ+/HBE06ebKsmc5yOWsn/f/q+++qqwsFBMExkZ2aFDh7Zt21SvHhAcEszNLuzfgoL8e/fvJ95JPHDgr7Nnz7Fuz+VZtmzZuXPnZsyYHhRUU/7WJV7X4KVv3759/vz5VomMyeDl5eXi4pKbm+vq6iIpVKzbhw/T/v3viWfOnOGPc+6Iiorq1q1bcHBwrVohkvlpQUF+UlLynTt3du/ZdfbMOTYgs89RWFj4048/Xbxwcdq0qeypEqhjLL3YnplUrIiGDRs2a9asXftnggJrVKtWrapfVUnFMvHS0h4cOXL07Nmz169fF3Wo69evDx48+Pvvv+/YqaNV+7TDVaF58+YtWrQIISQZfSMjI5s1a9amTZvg4OBq1arJbR+PCwvv3b+fmpJy4sRJ1t1AaDMJCQlvvvnWN99807Vr1xJUmmN9xGqmouFXb9B/9eVXO3fuFBO4uLi8/vrr0dHR9qlXzPzwkUMrlq9krYrN9ACAUvrZZ5/169dPycsQSt584824uDh+Jzg4eMOGDa6urkoetyqV/OaET8bv3/cXr7fWrVvPnTfXTr3L9ZHo6Gie5/Zt2ydNmiQODt27dx8wYIAt7UYuVdHjogMHDqxatYq/OO/Ms2f/JyqqpZw47DcUO/oIIWT6tGlbt26TNBs/P7/IRg2aN2vx1FMRAQHVq1Xzd3Fxy83NdXNzCQqqabXcCxcujB07NisrS8yqXr16r702+IUXXmCmBIcG44cP07bv2LFyxUqu3jOEhYXNmTNHMsdR3j1mz569atUqSUft3btXTEyfZs2aKcmHpzl79syGDRt37twpGf//85//dO7c2c6DVsHZTRxxuWAKs2L3uWCSX5lgxaWSYtsvJAUUFRV98MEHFy5cENNER0e///77oaGhVh+xcxMANm/e9P33/xGtWQDAqETJu92/n9q3b7/Hjx/z93qha5dvZ36nsHSH+O23td9+a87Nz89v69Yt9oc+WzwiN7LUr19//PhxUVEtHUprtazfflv7009zuF6DENJqtXPn/swyVL6Iw3iEScV5hM3JP/jgAzaOcTRt2rR///6dOnWs4uWlXNE7cfL4R6M/1uv14lg9avSo119/3eqCl32xHz5MW7BgwaZNm8XGHBgYuGzZElssZifzzZs3TZ06jUtFKW3WrNm4cWNFxVaJ4iDi77+vfP31jLi4OJFN1qxZIxllJaJKctu8edO0adNBsKQ2adJkwoTxJZiM8Jy5YOKva9eutSWYLSjqS8T2gvnYcWMYiTANwsXFZcqUKdOnT+ckAjbWq7Hl+ja/jonps3bt2rZt27I/WbYzZsw4fOQQtu3XyBEUVPO7774V29P+fX/99ttayeuUYMIMAPHx8d9++x0Tif377bczudZdXGI6fuwYa69M2r59+yxfvlxOImDDf0Qu3sCBg37//feWLVtybU6n03344cj4+Hi5eA4rk9chS5aVmfX222+LJBIYGDhlypRly5b16NHD29vH6leWl4gRjo+PH/nh/+l0Ol5Es2bN1q1f98Ybb7DVLuU1ycqqXj1g4sTPf/hxtqeneQb04MGDESNGFhTkK5/EYYTv309lfZWvffTu3WvR4kW8rxIbLirE0rtcUgmNGjVetnxZdHS0qJJ88skncgFEUcVSHj5MmzZtOqWUqSEA0KNHjyVLl1glEeJogxvPmQvGf0IIjRs3jth2gbGeof2fxVLlTXnmzG+OHjnOrimltWrVWrlyJVsmtC+9PFuxWYeEhMydO7dv3z6iYjlu7Pjk5GQlLax9+w7Dh5vXbiil33773d9/XwHbjUACifwsfWFh4ejRo0GYLY/+aDSbNUiest8/DQYDAGRkZHz22b/5zTFjxkyc+LnWxWLNWPwXW+6DkFQdvw4JCZm/YH6PHj24nDqdbsSIEY8e5cglUdhdMcJ6g37YsGF37twBUwd77rnn1q5d+9LLLynPlgmfnZ09YsQIfhMhxDpqeJ1wsRPab0L8V7GsZzt0XLFyRb169Vi2CKE7d+58/vkXUJyRY/78BaLlq2fPnl99NcnW24lfHJv2ZFhtY4QSrUY7ffr0F7p2AdOnuXPnzvIVyyW58W8tKeLnn3/mHAQA0dHRkydPtm9wsKUxSTLHGDPBOHUmJyevXLlSlMdhvRXPzCbmu3Pnzt9/X8d+QgjVqlVr8eJFTB2SV6L9bK1W/cSJnw8cOBBMFafT6eT8bQvvv/9+x44d+Z8IodGjP2JDk0ONRpRE7MwTJ0588OABH+pf6NrljTfekMivhKeYk8s3M2fwpcQxY8YMGTJEbEAStZZfi71I0uB4oRjhyZMn9+zZk5eYlZX174mfScRQUg8IIY1GCwBfffkVIxEAoJQOHz78+++/F50O7GQiaY6fffZZZmYmHx4GDhz41VeTJAyCLfdJyfOUf0f2Z1hY2OLFi4KDg/m4feDAgd9+W6uQRAoK8v/8cyeY+nlYWNhXk76y05HEOgeBTeyk/PrrGcHBwfz+wgULCwryJWnkOXPBmGwhISHTp0+3OoBJeFaSAITdNGBJN998M7NmzZpg0pXmzZ2Xl5sLygcbJYlANgJkZGRMnTqV/1q1atWFC+f7V6tm9UEl+iRYdlqG8ePHP/fcc5yG4+Li1qxZqVDaGTO+DgwMBFO9ZGVlTfhkvJJn5YJhhNesWXngwAF+Pzg4eMrkqZLvAcoqvUaNGvfvp+7bu5/9OWjQoCFDhkhKtCWJRCrJfbHqJk+ezA1vlNKjR45v3rxJTKlEVEppSEhwcnKyaI374ovP3xv+npiJ1bYrSstTrl+//sSJE/yn6Ojo8ePNH0XClSKH2q8QsRRvb5/58+e7u7tzS+R3381KTk52+LIAcPLkKeaFwP7819gxcl5QMlkAa42ZQavRfvbZp/zPwsLCXbt2iU9ZVTGYYOxPhNC//vUvsCQviQBWFX/7r4ARZoKxStPpdLt27bb1plYeV55UlOCbmTOYPY+bCfgSo1w+paJYU8amT5/O6ICxyX//Oz87O1siDFirGg8Pz9k/fA/CNOTokeOLFy+ypQraweXLl2fN+oFds1r+ac5Prm7FWwPirTMvP3f+/AXsOjIycuy4sezaFlMoh6Q/z5o1y93dnf/6/ff/KSjIl88i7ePRo9yFCxfyP0d/NDompo9V8exIy8eeWbNm8ZthYWHioArWasBhzlYFCAkJmTx5Mld52OIIKPjQN27Eg6nBBAcHP9uhozxNsYSxmviZdu0iIyP5nzt37pI8Jc/qxo143n4CAgI6duoIiifptmSTo337Dkww1sj37t1bjDyVly3aePlwSikdNGiQuLjoXLi7u0+a/BW7Zg4CK1as4CKJ4smlbdig0WeffQZCH547d97Zs0ZvBVHDstXCCCVFRUXimAkAkydPFifzCsG1qoOxh/bv/4tdT502VXmXVgieob+//7//bTbB5OfnL1tmnI1L5kR2sH///iNHjrDrvn37lMyvj2Hx4sXc2QwhNHPmTChRN1CCrl27Pvfcc2DqEgcOHLh67W+HZfHdAAihyEYNy0IwVvMxMTH8zpUrV/jUBmwoMhkZ5plgo0aNJJqaE9sPF4xSKhHMPooxr+Gf4b///Zn3TD8/v7HjxpYRiTC0bfMMM3awNvHrr78ylcRO5wdTA+3Xrx8zknOBJ0z4hNWOkhEPIzxhwgTRcbBv3z7MilkCsIXYbdu25eXlAUCvXj2ZH33ZVV2PHj0iIyP5u69evVqc9Copd/v27cw1IzIyUuFOGat4+DBtw4YN3JI3cOBAvrJox6paXIj5TJw40cXFhVtMf1m42OHjWq2WS1i7VqjD9CUQj9W56OuRn5+fkHAThHZrtTfxj1irVi1+s2R6qyiP5E+JYNevxyvMSpEE4ovFx8efPHmSs+MHH3xgy7bkFLBXHTlyJJgsHTqdbseOLWC384sVNHXa1Hr16nF1IDMzc8In4+UN1+pqy/IVy0Vf9fr165emL1FK9Xp9bm4u47Vhw94rcVb2IdbAv/41hhWHEMrPz9+xY4fyfLiJAQC++uqr0oi0bt16vtDr7u7+wQfvi/ZXp7QfiZLl7+/fp08Mb6ixsbH376c6zIS3E63WyVvGxU5Uu3ZtPz8//tO9e/dE4a3YWYiBv4izBJOwFfuTCcY5KzU1FZTpO8WbeQLA5s1mbx8vL6/evXtLhFOSoRKI9BwREdGyZUte7pYtO8Q0cgrAlgsZM7+dyYcmhNDRI8eXLlkieVxutbpw4cJPP/4EgmuMOL0v2SjKX6Fz585O2VFmC7wGoqJaRkZG8vWLzZv/EN/a/itw01LPnj1LsyWkqKhoy5Yt/M/evXtxfxMnTuvkI/ngwa/xa0rpzl27FZZFKeVzHGdBFMzd3T0gIABMTSsrK8u+ZoGxhl9zwUo5qbFq3mKC8cEjOzvLjlQWjxerbL1BL5qX+/XrJ7qcO3d2I+nYvXr1AlO9X79+nftWSezVklVGhrCwsGnTpol+AXPnzrtw4YK85fHr7OzssWPHgrABYdq0aSEhISI9leZl+/Q1TkSdaxwRwStw4MCBXF2/fv06W8G1pT/LgRAS/XFKgGPHjqWlpXH/PbF7QynUchFWjY6hoaEtW7YEU7PZs3uP/bKqV6/OryVuu06HwWDgTSsvP89WMiZwYFAgv8NaPv/J/mKZfVhdOWb+TUwwO7ucpXIWq+AzZ06z2TJ3hhHlcLrJUMyza9cXXFxcdEFkAwAAIABJREFU+Hh++vRxyXqN2JIklYsR7tq169ChQ0U/17Fjx3JnR/EtGJibA5gqdNCgQSxoSGk+G4efn1+b1m25bKXJyg54hXTt+kKVKuYgTwcPHlRYNPvKbdq0qRlcE0rx1gcO/MUVoiZNmoi+zqXJVszB1ru8/PJLYPqIV69etT+1eeopo86FEIqPj+c9tiwwcuTIjz/+eNy4j8eN+7h9u/ZWp9UcdcLq8OubN2+KgpV41cbqTAojPHLkyDFjxjDBOnXqbEskCYpX/NEjx9gFpbRevXpc17U6tXMWWOYeHp6t25h9xk+cOCOOqFjwXJI8yP8cNWoUG50YMjMzmbOjmJ5dzJs378SJE3yW2LRpU7mbQ2laf4cOHVxdXe03ndKDv46Hh2fbZ9rw+6dPn1RYKOt+3bq9WJo5iN6gP378BM/w+S7P25KzxLCTQ1SUeZcApfTcuQu2UgJA8+bNueJGKZ0/f34pBbODzp07DxkyZPDgNwYPfiMiIkLsyVYFc3Ex7pymlP7888/8pxLXni2FlAk2cNDrTDCFRThOITYdcYt3x44dbS3+Ox0s81atjJ0BIXTt2rWioiKrczw7d7777jtu32LLgaJjMsPRo0cWLVoEpl7k6enJvA8keZbmfRs1igTLQaCMqITP8tq3a8+708ULl+VVZwsIoWbNm/M/S/DWV+Ouigte7du1h7KczUkQGhpat25ddo0QunTpkp3Evr6+XV54nic+cOCAQr/Hsoavr2+nzmZnlkOHDq1ataoEdSgfaG2lLO6HVsA0phwLCvJv3LjB77dsGVV2HcAqGjZswC4opWlpadxT2yG4kL6+vj/88AMfcwDgpx9/Onv2DJ8WSba9AMDMmd+UIMKoHSCEGjY0uyGVnR4nKmsiF+Tm5iqf/AcEBMiDvBULog9VYGCg8iHOWWjcuBGY7Fy3bt2ylYx9iPeGGS1BbBY2a9YPYo+VL5Taz62UEG35XDCG2bNnr/51tf0S5YbYsqt2peu+AHDx0kXuR+Ti4hIWVgfKciyVC1ArpLao3TEeUTR5E6qvSZMmY8d+xK5Z+54w4RPmVUEoGTduHLctIYSGDRv2TLt2CktRCK1WW79+BJQlgzCIppzatWuLVgnmuGkfrHKeiqhb3PkXsYxdfuXKFdGHSnk+pQcrqH79emAaNm7dumWrdFZdERERfJsCe2T27NlTp0xhhhWxtXOatlo/tuxuxYI4W4+IiBg6dCi7zz7N7NmzJ0+exC0+ojB2uKOUqzw2RVWUCGEAuJtojG1DKQ0ODma2NxBeoEyXHgglNYNrSlbdoUT9cPDgN8Rtl5mZmZ988ilGeOmSJWIglXbt244YMaL0sxgJwsPDPTw8nbu2ZQu8FK1GGxoayvWCu3eTHD7LBuTQ2nXsT93lkKxkMScrhvr165fPi4Pw7sHBZgLNzMzMysyy2lD5zY8+/kjcRw8AW7ZsHTBg0Jw5c27dviWvDcmFfFm9lGMtz3bUqFFs+6XgALG1X78Bc+bMsbqIIy9XVFFLLI91IRWmI5QwpxTWFmvUqCHn5jJSzo2CIowRriZsBXz06FFxM+H45puZol/gyZMnx44d+8svi/idwMBAefQjp6B2aC1w0rqPHciVnZCQEN7+mOOTw0wopf7+fmBjyHUoAEZYb9DzAxAQQsHBweU2F+YFBQRUFwOypKenW22oop/B1GlT2eDP16pzc3OXLVvWv1//jz/+eOvWrYmJieKzctaQdFdn2ZK/mvQV10oYCgoKli1bNnjwYCbYrdu35E/J37GUwsih1DcOI/zw4UMwcSHbzyNWvXjhRPCvwv6tV68ej92Uk5OtJAdRKjGrWbNmDRo0CEwzZ7adl5tOvvnmGx6gyLnv5esjjfFfRvUmKYXtCmeQH25iC76+VUsmJ6vn9IdpOTnm0CdNmjYpN30ETJXQqFFjDw8PHmGPhWIRW4L8EYzwqFGjIiIipk+fnp+fzz2PKKWHDx8+dOgQQigqKqpevbrNmjVv0LBBWFiYmJXTly9FaZlgM2YY405wX8FDhw5xwcLCQlu2bMUEE78dH++d3vaKEeeZb7QFgKNHjzJaKWtgjAgxO32cP3+eXSCE8vMLRPFs5iDUl1iDERERkyZNmjRpkuhUwq4nTBjPNxo4vd3zYNdOHKzsgGdevXp17viUn59va9lPAq1WUzI5WeY5Obm5ubm8E/53zn+9vLxK9B4lAWs8er1ePH2N7VOXaP5WXy06OrpFi2YrVqzasGED37bP++2ZM2fOnj3LQvCEhYVFRkbWrRveqlXrGjUC2d53hTWs6EUsvaKio6NbtWq5dOmyDRs2iLEpuWBnzpzZuHGTVcEkHcFZbU8Rj7DCsrKy+J3r16/z8O78puRPZ8FqtpRSjJEonn3IWZlQ0qtXrxs3bvz6669i/r179+o/YIDkQSdCdAkrT/j4ePNx9dGjR0VFRcrDX5egP7D0jx7lICEisRjDpdxgq1lKOpJVDSUoqOb48eMHDhy4ffv2nTt38vDXDDzbO3fumFYP57m4uISHhzds2KBOeHj7du3l8e5LBslcqXr1AFGw5ORkau1kDKuC1av3VFRUi/DwcDd393LlEQamoIpSSj5PWZCInWyLinRW79uBZJYEAA8fPpTk/zA9rUwVBAMxlKduz6HT6cFUmUVFRQaDHkApj5RY2kePcvkAXkbDjENIChUtbpLJCNh409DQ0Pc/eH/EiBFHjx45c+bsoUOHbt68aetddDodH2V/+vEnPz+/tm3bRkZGPv/88/bj1ytRq+WCjRgxoriCsT+ZYPUb1H/+ueflIdmL20SLwSNsVzXfw+P0DZHFhY+Pd3EfkZDI4sWLxEhf7O2OHjn+3XffSWKOOBflTyIM4udzOqy2PBch4iyllC/bVyA8Be1A+dSDpWnfvsMz7dqNGjUqMTHx5MmTt27dunLlyq1bt/Ly8mwRZWZm5s6dO3fu3PnDDz+0atWqR48e/DRFuWlGee+VpGzfvkP79h1GjRqVnJx87NixW7duxcXFJSQkMBuKfcHm/DQnKiqqV69ePXr2AEs1Tbk8xeMCPrZMmDD+xRe7FetZp0MMDu4QcvvIiZPH586dx36VVPTatWubNm0qWfz7B6BMlQJxLUBsfJy8qlSpsmz5Ml8fX41GwzaDVQiq+lUV/1TST+RqS2hoKB/D2ZlkCTcS2PnhFy9eZGeMSGqbUnr69OlTp04tXbp0+PDh7ExFW6U47MBW+znzjeAntDDBrl29Fh8fzwWTNwBuUlm6dOm7774rHuesfMBzzCO8ZWg0GjA1C0/PKs718iwB+GKbQyKXt4Ps7OyJ/zZHEqGUjv5oND+WGAAmTZrUqFEjyY4yp6NMl2wkYKoBa0Ourq6obIqTvIVGqxG7U42goDI6vL0EUF75thoYu+nm7h5eJzy8TjjbyVlYWPjgwYOTJ09eunTp7NmzYtelpjDxEydO3Llz52effSJGIxXzV85u8rbNLzw8PJlgbESUCybJ8M6dO19++eXOXTs+n/h5QGBQsfQjxzzCM2I+YKwu7BwuW26QGzvspATL5jJ+/HjxBLZBgwa98cYbIcEhLCQ9Qkiv13/88cfrN6x3otWdISfbvA5abiQCADk5RncbhJC3t7cYurUswF7K19eH96Lc3NykpORSHm3rLEhIROEnkCSzOmi7u7szbaVfv34FBflxcXF79uw5evQYM4XyZIcOHbp8+fIPP/zQpEkTW/nbF0Mutn2NhgvW99W+jwsL4+Li9u3bf/DgQUlfPnrk+Ouvv/HDDz80atxIebMsRvP18PBgFyyylvIHywKi/sxX7+yDJ1uwYIF4+icLtowR7tq1K2Nutkh5586dqVOmOL2Ty91eysdccv/Bfe4dU6wpYcnAatvNzUO8mZ+fXz5OaHYgmXkpV+A549jKU/6nh4dnVFTL8RMmrF27Zvz4ccHBwaJxKisra8SIEcyxvVj+JpLlaonlGBzxEUbYKNj48b///tuECeNFn0wAyMzMHDFiRGqK4/Bx5jyVJ2WujQBAKU29V8H6iNxGpfCps2fPLFy4kPcoFxeXmTNn8scnT5nMjhdhCbZu3bZ923bnSp6dYy+4bNnhwf0H1BQ0kAXjKjsxeCuvXq1a1apVeedJSyvbtTAlKJkAVsd/sNH/5TqCh4fnwIGD1q1b9+6773IfWUppfn7+qFEficoRKPgoEkZzqCKJokqu3dzdBw4c9Ntvvw0dOlTkuPz8/DFjxtgXw+KVlSetUaMGv36Ylq78QeeiZE2fPZWdnT1hwicgrAXOnDlTjHKm1WinTZsmrsNPnjxZ4gRdSqQkp1bIui8/w4VSygN/OV0MYnk8pbe3j4+PD69t0QXpSYS8uhxWoJjA3d19xIgRCxcu8PT05HWSkJCw+tfVROZT7zDP4n47q/YXVqK7u/uoUaMWLlwgegkmJCQsX7FcYXcrhighIWblJzEx8dGjHF5G2Y2uchKVkH2xcuNRzhiGDBnCznwX2b1Zs2ajRo8CYXHq448/lhdU4le+e/euXqcvfT7Fgt6gF7fMBwdbP2yo9MAyF0nRVp2QcEP2RFlByahesgdLiaiolkuWLBGnlr/88svjwkJbU5uyloc3/qiolosWLeKCIYSWLF7y2HTsvINMFBZGKGEnpzJkZmbeuZMomWSWxQtLSPTRoxz2X0ZGht6gF/u//dIxwgsWLDh58iS/07RpU665SRTFt958q32HZ3hKZiixI1ixkJeXx3yBijUlVg65bkwouXXzVlJSEldcy9PYWa9ePV7upUuXobyoU7Q4sjaTnZ0t7u2w1WPLWlUklERERHz6qflUvby8vNjYg6LAYvpykIcXERERMXHiRHZNKWWCKclEkXkJADDC4XXDxW37ly6d4wnKtEtwnD175sUXu7H/BgwYkP4wDSw1NKtPMRw9emThwoVcmRSjnFldLf96+gz2sqwPbNmydevWrSJnlbgzsGg6ZTe1kb8LRvjq1at83cTFxaU8eYRFqwcAhNCNGzcyMjLKeU73/azvWZvp3r27GNpO/JqxsbHz5s37ZeEvCxYsiI2NLVN52Ou/9PJLfGCmlB47dgysEdnhI4cWLFiwYMGCefPmlYVg8nYYHR3Nz1pngilaxHCcwlSMVqMVj8k5dOgYf+0y0kck2R45clRngr+/v/KTQLOzs1mUMz4wTps2jfu/WG3W3t4+3347EwRLyuTJk5PuJoFsX0YJcPHihdLMzhxCnuGhwwe5J2vDhg29vX2cW6IdREZG8kM/dDod6zDlAK6X7dq1S6/Xs2ZTt15d/qu47nvgwF+LFi1auHDhwoULly5dWg6yYYS7dzd7cl6/ft3q3Dn2QOwvv/yycOHCRYsW/fLLL86VQX7NLrp378ZHnevXrytp6kr1EYYWLVrw67Nnz2akp4tadJkOsIQS8UiqdqYwZbaW3MQ/x4wZw3edgmAWsY+oqJYffjgChGACo0aNYpOpUr7RyZOnxD+dXm+iakYoyc7OPnb0OJg4kQe7Lp/5RUhIyFNPPcXpeP/+/eVQKJgq4fy5c1lZWbz01q1ageU0liVjMdMYHj9+XA4mCTAF32BISUnR6/SS0QUjLFadwWBwomCi3irxY2rStAkfdRR6iinSRzhZdHi2A7+v0+n27dsnWpjLovZ50Vfj4hISEthNhFD7Du0keoHV0jHCc+bMYVHO2Pdo2rTpRx9/pKRcQsm77w5j52+xOk1OTv7qy6/ENCV7qaSkpL//vgKyccCJEDvJnj17RH+fTp06iasDzi3XqiQdOpibzZEjR7Kzs8tt2XvPnj18VhUYGNhQiJsjtpyAgJpcV01MTLQVM825CAgwn0qj1+sNBr34K/s61apVB9NIduvWrbQH950ogGSezivE368aH3T1ej0oaJ/F8HvBCIfXCRdJdPXqNSDbkl/st3FUNPt33bp1/GbVqlWbPd1cUpzVxbCjR48sW7aMXbOwsjNnzpCwntVFe85Q33zzDVulYzW7c+fO9evXg0DeJQBCaNOmTaK0zlVJJOPt6tXmgMDBwcHNmjUro3KtAiPMHMYZdDrd+vXrysdEUlCQv2PHn2Ca6nfp0sVquRjhek/Vo6bTSwsLCy9dulQOJKt10XLysrXrtX79+mAaAnU63aVLV5xVuqSRiDXj5ubGrzFWtMas2O/VlFGvXj35zaSkpL179/IEZWc7zMjI2Lp1G/+ze/fuzK3bvr+NJPg7pXTatGncqiKhP1uS+/v7T5s2DYSTX2fMmBEfH1+adkYp3b17DwvMVRYQKXXv3r137tzh7bVbtwrYXRkREdG0aVP+5/r1G/SWY28Z4fd168SgYXbePSwsLDAwkPkxA8D2Hdug7ElWrzOHIBIjLYGgTtaqXSsw0Ky2/Pnnn04UwNZM4vHjx+Y0RFEjV1RT4oj98ssvi0vfc+bMMeflpHqX98958+aKexNiYmLszAi4GJ9++ql4sCA/E0+e2JbkLPPOnTsPGNCf3WFijBs3rpSGktzc3FWrfrWqCjkXc+fOBcFa/Morr5RdWXbAg7ADwIMHD5ablEQos+lwYWHhyhXm02fq1asnrhJIgBGOiorif+7f9xd325MI6cRPJpoeMMbizkmxabVpYz7DLDY2VhSsNGKIOoiETe4/uMcbjMLwIErnNfxfb2+fIUOG8PEtOTl5wYIFxRBfWXHi14qPj2dB4lihHTt2ZOePiSYAeYXyTTQM9evXHztuLLtWXvu8osdPmBAWFsbvJyUl/fvfn0kSOzR2sIkV3yC3fPnyjPR0sRSn08rixYtEZ9wXunZhXmHlZp5gIJR0eaGLuInjl18WJScnO9dMI5nk/vjjD5mZmbyhvvPOO/ZL4doKmwT9+NMPYp4SS6RThsyLFy/y6+DgYKs7JzHCXbp04X9SSsWla+dqTDy3c2fN0UuDgoKcs+4rb9xvvfVWlSpV+CrGwoUL4+PjrRZWLDuiZOmHzzjYHlyOkSNHGkW33JUklnXi5PGFCxfyR9zd3WfNmiWhHoeSiMAI8wO0GPbt3f/bb2slaUBoanIwjo+JiWHexzqd7vPPv7Bq4pGvQxVLWnbz77+vzJ07jw8sCKGPRn8sqYHyIRQ29P3rX//id3Q63SeffOKwxpRA0tUZzp49wyKnstevV6+ew2gyHTt1ZDMI9sj+fX/FxsZKKsop6wm80e7evZvf5Ge8SV4KADo820Hc4HfgwAHRkaTEY4+tZsMFY3waGRnpnHVfycoQALi7u3/xxRfiRGPEiBF5wgxC/mkViWLJ9Kw7TZ0yhZ+bRynt27eP6EMlmjb4g1mZWRPGW1DP119/zTbRKGyvVrtZaGjo558bXf3YR/322+/kR0nbH111Ot0LL3R5+eWXWA6nTp1aMN+KNoetHVcsgbySxfRZmVmjR38EgsvMiBEfhISEWDVOlw86d+4segnHxcVNnz6t9DLIH3/4MI3touL49NNPHBaEEf7www/FTXRffvml5JQpcMZ6Ant85cqVLDQJu/ncc+ZjjyVmC61GO3LkSLG7McEkI24JxAAZDWGEmWBg4tOOHTvazkPIrQRlA0CXF7qwI3lYRWRmZr777rCMjIzSaKryR37+789btmzlpQQGBo4dO05MbLUGuVmEPSVuorFTllVhJONPTEyf6OhoMaLU6NGjC2UbEOy/vkaj/fDDD/la8qJFi8RDZJV3csmvYlXcv586bNgwtpOIFRQZGfnuu8OUZFtGYO81edJUcSfYxo2bZs+eLUlTspz5xaNHOcOHvy8JLhMV1VJJ/r169YqIiBADpgwbNvzhQ/MZHQ6t8gpx/ty5OT/NAVNfDfz/9s49KIrkDOA9K1i4pnywgixZWGQJwqYQ3T0vigUHJ0kZFVByEi28E+8QRFOeaCXxCixdFQsSUVPGo05Jae6wNOehUD6ilga13FXuCkoeZymICrvs8hBzcCDq7s3mj9a2nZkdZmcWtEz//qDYmX58X0/3193f9HT7++MrKhhdKQBg3rx5+HtSKBhavSVFGEYfXFtbAwWD+Pv7xyfEC0pHdPZbtm7RaDSoPbS0tKxcubLlbgsun0A4B9sFBTvgK1v0XIuLd/n4+OCB2W2ppKQEuUWcTmd0dDT8iIZtd4dUkDOwYZtBqXy51qCrqwt9j4CLwZO+zWaDPiZkjIqL/1ZSUgKk9XUox1u3vs/I+Bh/RzNmzJji4lfO9Bp5/wgUz9fXd8+el9N7iqLKysq2bNkCX9+Iaw/45Kitre2TTzKR7hRFRUVFwa12BTb+oqIiJBsAwGq1rlz5MfIxecQ5Ultbs2bNWnyj3E2bNnmN8uJ8KCivnTt34tNqKJhFwLmIAqGdNBIMvFB/48aNXqM852fFM3sZk5J9/vl++LYM5mqxWJYtW4a8BsKdI4wHYzFbVq9eDX2r4IXN3rw5X6v9JWCNEXBuXL9eWvr8TDyKouRy+a5du/As3JrfclYXr1FeuKOLoqjLly9DlTmdNWzg1qS5ubmoh3E6naWlpX/68x/hKiPR1ZR20mVlZR9++BE85gpViJKSEsY3BJ5ybQqUCi92nU7/2WfPXdSw5pw+fTpjRQZcmCcaGSU7d+5ceno6XKwIdffz84MPS6CBpp10cHCwwWAA2Bsuq9Wanp6O1jeILjcYsaysbNWqLHgaDswiNXUxPl7GOzz8b3BwMFx/gLDZbOnp6fhG5VI4/vXXSDAoW3JyUmJiokB9R23dulV4ZoytxuXysQkJCZcuXRoYGEC3jEZTTU2NQuEbHKzmjMXDo0ePDh8+nJ+fbzab8YjrPl239PdLeSQBADx82J2ZuQoVBABg9+7i8PCX7ivaSaNuSqA8nCgUivHjxxmNJnTFZLoeExMDPdvsca/D4Th+/Dg6RTQxMTEsLIx20gkJCVVVVei4ufv37p88WeF00lqtVsRe/FeuXDFsNVRWVsKfUEdvb++9e/fo9e+ww/MUwrFjx5BU770XFxER6SqkEFBG6B+tVjthwnij0YRGmj09PSdOnOzr6wsJCRk3zu1vfxobG3cV/7W09B/40584ceIXB74IVL7clWrI505RFO2kp4ZPVSgURqMRXbfb7RcvXmxqagoICFAGKFFFcovr103bt++A6w9R9JkzZxYWFaKfjPrDEDssLGzyZP+rV6/iglVVVd25cycgIADfHsgtTCZjQcFOfJ0nAECv1xcXFwPBjUX87uFI50c9PevX596+fZuRlF6vT01NjYqKYhzbwWZw8HFTU/OFCxfOnz+Pz2wBABRF5efnLVq02NXUFF3JyMhoaGhAVXPp0qXDenbE+vXr8e99AgMDy8vLOU+WevLkyZIlS9BigYKCAvjugHbSP/z3h8zMTORIhsKrVKrExMS5c9+PEOAqb2trq62tqaiobGxsZJS/v79/YWEhz6IJHLx4U1JS0IFPmzfnw8IHnnasnDp1qqCgALV8qLuPj8/8+b9duDApPPwX/DtC007aZrU1NDScOXvKZLzBuBseHr537264WbE48SoqTu7YUcBuHTFzZv3m1/N0Ot2QtRoA0Nvbazabq6tvXLx4CR0cg5ib+H5hYZG7EvILFh0dLWRz8h9/7GttbXMlWHx8fNFfiuBUS+A7NUmnEKDUnz17tmfPbvim7WXSz3eWl0dFRanVwRpNGNzOz263w3NMuru7zWazxWJpamri/BxIo9Hk5eVFR0fzmA/4//6/78fXv4eGhh771zHg0arPkGFw8HFSUjJu9eLj46EJZ8BpR1C7Hejv375j+6WL/2FH1Gg0IVPUQapg1EvDorPb7d3dtnv3Wltb2+rr6/FOGBcmLy9vwsQJwksAKZiUlGSz2eCkIz8/LzklZZhcs83NzQaDAR3YjKAoCn7dFxISwhih2O32dmu7xWw2my03b97k1D01dfGGDRvgYXFSfKJ1dXUGgwFZeRxvb+/p06cHBalCQ9V+fkr8XJ7+/v6ODltHR0d7u/X+/fvoBAKkGmxxWVlZ2dnZ4gRrbGzctm0b/rkZasXe3t7Tpk1Tq4NDQ9WBga8YFCRYR6ftbvM9V4JlZmbm5OS4K5InTzMxmYwHDhxsaGhgCwewr2Y57zIuyuXytLS07OxsnrMjUVP87rtv1+SsRde9vb3Ly8thdyHdte4qUxklq/72xto1f8BVyM3NXb58OSNTnvEIMvZnTp8pLS2FowBGoTGKiP8uAEClUuXk5KDlEiJKgHM8MkymxPGT45+HD3/55Vdo5bGrWgEwjw9nmVAUFRERsWrVKvQxtwix2c/u4MGDR44cYRyj6wpO4RnExsauXbtW4hYwSDBoSdm1QogkjJCxsbGrc7IipmpFvJby/KlIV65cOXToEG5NwFDli/QBACiVyoULFy5alOxqexHw6sOura3JysrGE8c7fKnKcGWKp7xv377D2BJv8KLh4VeGtCMo2Llz//7mm3LYP7sqMR7LEhkZ+cEHv5s/f8Ho0aOlqK/X61Ga6z5dt+KjFeLSEQKU8+HD7qNHj509e5bRSTJw1UIoitLpdGlpafC7Bym6c8Zta2urrKzkEU9Io5XL5XFxcckpSb96dxZPXm6JarPaTpw4gQTjEQPdYofx8fGJj4/HBRMhm2fsCDvXuro6k8lUXV3d3NwMV1gwFMB/+vj4TJkyRa/Xz3z3nZiYOWwFGLMYPIDJZKyrq5ePfT6XnqSYtGDBAukaDQkS4+jRr57Zn/u0HXa7QqEQaEdcJXvr+1tVVVU1NTUtLS0853uggVtkZKRer581axZ7AiiuplZUnOx94WeNmR2jCdMM02CEbUkvX75cV3fz2jVjd3e33W7nGYZQFDV27NgZM2bM0M2Ii4tTq9VCFBdeIOwq5/jJYbxmrK+vr66ubm1tZT8adluVy+UqlUqn02m12tmzZ8Ots6Q7m5iOfF7BOC0IEiwiImLOnDmMM+0Y4xEhheYZ/wjPrd7e3paWu+3t1q6uTsbJ3vKx8sn+k5VKZVBQEK7JkHKQmKsaAAACiElEQVQPqaGn1gu5mztnjkLsCGdE6AyzWCydXZ19vX3oJY7D4Rg3ftwkxSS1Wq3RhCJHAGCttROivist2A1p+GY3bJFsVltr6wOr1dbT04M+OXU4HF5eXhMm/MzPT6lWq9VqNc+0V0Sm+JtXdkPC//b29j548MBms3V2dT4eeKXdymQyhULh5+cXGBioUv0ceovZKXh80ASvD/T337t3n1MwAIBSGTBxoi8umPDE+RmW8YgQ+8J/i6eJsp/3kCl7HP68BPpHXEV0SxGPt3Ceuv4aS9gjWQvpn+A//Lq79fQ5A0tXR8iAy60Bhat0BMb1TLVg5IS3cyQWZ0g8AH6LHQxdwfteRhR6pNZWceZFu16qLwQU0a3oKIpHdH9DjAjgqlFDKsgTQOBUQsb6lJ5THnYP5yokeLWfEy4JP+xHwy+niOzcjTuMNYPfLvAEditl0YlIxJWlEy2DROE9ojuuAk9Dei1IqUIeqV0Sw0usHjw5vvZHA4bVjhAIhP8TiB0hEAhSIXaEQCBIhdgRAoEgFWJHCASCVIgdIRAIUiF2hEAgSIXYkRFF4hZKBMKbCbEjIwfn55i0O0dMEAhvJsSOjBy4EcE/FHgT1iMSCFIgNXjkwCc1xHYQ3iZIbR458KMGyFyG8DZB7MgIwdhWkoxHCG8TpDYPL7STdjrpwcFBZEHsdjsajJBRCeHtwO1zUgjCgftEUJTM19f36dOnAACapseMGSNlYwgC4Q2EctJOQAEAaDI2IRAI4pABAIATACcxIgQCQSQvzAdZZkkgEMQiIxaEQCBIRAYATUwJgUCQggwAGjgBAOQFJIFAEIkMAC8yHiEQCFKAflby0pdAIIgHvvclRoRAIIjnfzNyUmmDNia6AAAAAElFTkSuQmCC;fontStyle=1" vertex="1" parent="1">
          <mxGeometry x="1460" y="302.5" width="127.11" height="70" as="geometry" />
        </mxCell>
        <mxCell id="3R0D6cxO1X3JCbrjLW3T-39" value="API Catalog&#xa;eUI&#xa;nGinx" style="shape=image;verticalLabelPosition=bottom;labelBackgroundColor=default;verticalAlign=top;aspect=fixed;imageAspect=0;image=https://euidev.ecdevops.eu/assets/images/landing-page/eui-logo.svg;fontStyle=1" vertex="1" parent="1">
          <mxGeometry x="1135" y="457.5" width="74.48" height="74.48" as="geometry" />
        </mxCell>
        <mxCell id="3R0D6cxO1X3JCbrjLW3T-40" value="API Gateway PROD" style="shape=image;verticalLabelPosition=bottom;labelBackgroundColor=default;verticalAlign=top;aspect=fixed;imageAspect=0;image=data:image/png,iVBORw0KGgoAAAANSUhEUgAAASwAAAEiCAYAAABDd+8FAAB2AklEQVR4XuxdB5xTxfbOk930tksVffp8YMWOXRGxP3nWv106CEiv0pUqIIIiFkARQQV26W3p7Ca3JUuoDyyP5/Mp9oKwm9yWLPOfM2FxmZuFbE9wvt/v+7Ekd+69uZn5cs6ZM2dMJgaGGoAa8jQLS9aOETHzGvo9BgYGhpRCjHN3iIguFBZc01GuqR79PgMDA0PKQMeCFRWsKMp5l6L8hk76fQYGBoaUQbFknaBxNhSVXL+hYOML6PcZGBgYUgK65O0UFmxIkZxI5b0oEjC/Qh/DwMDAkBIoKXAt0AMOpPNWFONcSBUdmh44uz19HAMDA0OdQxHNCzTeSQQrKriRKthRNOgaipDpL/SxDAwMDHWGw3zWeUdE6w5d8CANu4Wy4EBR3obUwuxvkXiujT6egYGBoc6gCJmdFdGBSrCFpUmZCGJZUT+4hY12o4PNLfTxDAwMDHWGCGc+FOPdSOMs2BV0IQVTwxaWwjsQ2mRy0MczMDAw1Al+L2yKrSuPonBYpEQrcQmJWIlm/K8D076AbsPAwMBQJ1BDTYboojeqiNi6Ep0k2H4yHd/qvOc6uh0DAwNDrSMquCaFsWUV87uxVWVLIFj4Nc7yIN2OgYGBoVYh87absCB9p/AW7ApC3IoWKzvSsXuoi84edFsGBgaGWoUmmCVNdKCo4EARyYp0zugS6ljEImL2YbotAwNDHaEoeM5FsuBdGs53NKHfS1X8LmRejTY1dhQXeluHA557o0IjQhX/rQayT0tZajhFFR26xmPLCguWLIKV5TAIlordRWxhleh+x4eqANfJJqTPBwxjRvxNr9XF+jfAfUS4s1sW+5tcpuLjkdj0kqJQ/Uvoz8HAwFBByGL2NI13I9lve5p+L1Xxu1RvuybYV2ERUVTBi4UlCymiB6kS/O0+PQWjNXVqOuJuI74W0HC+44wKWdjFtP4CeV2q6PpeFe0HVSnrWNhnP3B4j/tN+nMwMDBUEFG/Y5rGYStDSB/BAsgB0+OylPWdytmxiJgRzPTJYiYWF2sSTBRgPw15x3HC/08+n4ap4NeLiaXmRFFYj8jDQmonChe4BtH3nuqQD9S/kSXNMqQcsDtYH7s8W1XBgge8l6ffT3Uc3tnoSlmwLtI5bN0AsYunY3E5HTVajJIiJJNigYJAfJlzAVXRhsXSuU3nHCX4fmIRCbLlraLi99yF8k0Z9H2nOiKFDcbEttd7E9xu+j0GhjqDImaPkbFYaWRK3xyLFWSl3RQ+QqazsJs2NsJn/g+E4g9L6BRMFK9KmsbzgYUa8ztJwmlMzP41IlrfLd5lakjfa7rgt0LH/brglPFnepx+j4GhTlC0s0nnqN+j6WA5wIJfwYVKCixz6ePSBZrPfEWUt/gV0aaQbHX8mRTIXgeriLiAwONuXMKcq9PwJMGz4/PHz0mSTomF6i5SeLdfDTb+JzrQwkzfX7qgKORqEC2w5ULmf1jyfEW/z8BQJ5A5R39YOwdT9xoecDrnQTEhfQWrFErQPlKXnCgsOBHMAoILB7N94AZC4BzWCqpgidGClCxJDAu3l7DIc3YiijqfhTS/az5Ye/T9pBsU0fshVKwowVZjUTA7TL/PwFAn0H2Z/VURBMuJrSs7kgMWdIx3bjoqnptNH5tOgBpWEDdStzsKdPyZwMLSeZgZBCsIBCcLQbKoQYiSJFhWYJVqnJNUKNWwKxjjPe+fCWKFhXiQzjmOqfg5QSJtUcDNBIuh7gGDq8TvHQPLUXRsIUSxaEWCsAGDMyqL2bfQx6cjwvmmJorfugmLTLHOexCkMihSPUQGYwIhSpaQrwWCFeGtESxWP8T8lnfChQ3TJoftVCgJ1O+lC64oWKAw8wpxzSLBNAyFTJn0sQwMtYZwYb12KocHnQRVNqEqAQSM44Xr8L+T6ePTFVAeBg+6KWEx82cFkkSxdaWSmFblg+4ahy02wRrTCp2P0ddLd4QLLUNg4gBcQl1wY8sRPzO/DSzUm+hjGRhqBUe487JinMMPrmAYWxtRHoLTuFP6oaa5C6ysb3/h7U3pdumMiFCvrSrUI59PFjKQBq5hAjFKhproPKIX1u9EXyPdAW60LDlnahKkbmSTGU+YUFCwZQrrLunjGRhqBZHA2S11IevrsAi1n8DFwdYVHojHOBeKwC8rtrKOBtwv0e3SGbpovyYKwXJsRcLnjiVY6Jw0RXseff4zAXLAOzj+GY3WJxMshjpDNNDwNjx4f1IkC3ZvXEiHZSRQFpjDFpcEcSzcSSXXa2fS7sfqjqYXY1f3R4XPRLJkRzpkotNClDSdX+pco6voa6Q7NNGaF69YYRSsiJS5hz6egaFWEBbrdYANQ3UyQwidM56XBHGssGQmSZAKb/lO4W3n0W3TFeFgo6tkwavrJDcLrEhahJInPJ8Ib5boa6Q7opInTxYzUKJlSzpnKZY50xN0GwaGGkVxgamNKp6lkcW/XHwfPpgxg6l6qGEO+Uqq4CZ5WZrf8THadfb59DnSEZrkGSZzHvyZnaQyAwgXPSiTZbytTaOvkc5Qg6aLwoL5U5XLRoksrCjvQUqBeSTdjoGhXByVzKOx27ZTE2w7SwTLTv0E7Zi2Mv//g7KYtUbF/2KB2qmKmTtV3vFLFCwEqD5AxbAgg1uHXCXosCIkWDpjMm8/GC407yzB142SaxivA6+XCA58DCa+lyj87cdt8DXDQuZ8+nPUNoryXQ2wBfnvuFUFuzubsXBBmgPkGsFnhZnR41YF/E2eBRwbd5X/yIqH/8dfkwWHLovnnkNfK12hipYhECKA+GUiwVJ5V1iTMphgMSSPsGC5F4tBFKbnYeYmXvIkviAXMrgNnazWaANrDIudC8lkhgmsEEhGxR3f7+5Lf47ahio6hhjvGQalE2b8TixeVrEVAaKmkDWBkBiafXw2Mb7EB1YFqLBZBWcns6uq4En7VQGlwG6upksg3vE8M/p5Yavym4iQwR0OmTx0WwaGchELWv6piJafYbo5hi0lcHEUqAzAwYCiB2XtEGbdZBHK04B15sJChe+Js8q6z9IjFQL3iQQL1hqqohmFJYjXQea6GVxjQRPrP6JJrvXYGg3rWHwVLE6QdApxK42HY/Bn5dz489pQCZepoO2ZN9LXSyegfZ6sKFd/aVi0xrPbufiu1zQh7gf5Z4ro8uPPfsZYlgy1AEWw3q7w7g+xNaBpvPuHiOCOkYTIBB2tNgibjkKVhEggXrVAkdw/qIK7F33fdQFYpqOJjuGGeyZrDC1IhcRZn7NE5jPfRGWWJCHe/cAxn3s9eR9iXpBAycXrXoFVFgMLFwsd4l23lb1ebaIo5LoEi+qHCm9eovudS2TBveSoYFuikL+tmObTU7RsUyGjXYrn451wiSlGRBBuF/musXAHFP4s3D7TeL4EjPFWfE/WJcUBG6Z1iebLXBDdlnE7/XkYznAoIdt5qlhvToyzq/FgubGj1QYVKRNbKR6wRg6pQc+79H3WJSK8vWmYVFM4+Z4jItRxt8saZ94f5UyD6XalKBZsb0YE6/80fI6o4D4etMeWFliUXAZ+zTyablPbKA46341wGYegaixY2zEe3NzkWIIFCP/AIN0P6SwOSGdBiWYJo/B5sWCFgxnk2ZHNZhOcLxFhzaVMKrUSr2AH2uqqT38Ghj8RIr7MHopQ7z8ndzRjp6selsY34uVb4G+Nd+iq4PqPLLlupe+trlGy3f2WDBZEPBYVg/sFC0LnbUewxdBR5Tx/ByuMblcWEc7TUhbP+hkWiGsQrCcLgz0yid3xTqVIzOxCt6ltKIGsdlHe+SvJTi+dHIC4HLhygv2YJjhKjN8lJog5mWyBHx7cNsFGHPHvOB4nJSIFMUoQtwTHlU5MkJlnEZ413AdM8FiPYlHshHzZf6XvneFPCLS3sQMCxNBB4h2rzMxXdfJ4wD+K3amwADNtUG/KOQnl35FyVTXlPeeeo/COHVhQI5roCcuiTVY497GwYFuM+Kx/0MefCrLfdIPuz5wVIXW2YC2h63/YFSMDtzho8x3Z58mi29Q25MJGt2hcw9E6ZwuQSRgxk3xXWDximIrhu6wJQtIxTGTwsE41/toxzrv56O6stvT9MvyJAVaCjH+9dF+9T6J8BnZboFRw9QsWCTzDL6bfgc17S0yRrCPRAVNKFqsrDjgfDwvWKP6lL9EEawnEnGKQ1iFYKxU/gYoF4aBlKLZGdKhmoOPBKYtupEn1v0IpVK3haKh+P0Vy/AtmM2N+DyqCSZGq1P+qAHWSKgOibonXtRfsXDjQ6B76HhkYCFAg2x2THB1xRzms8V5Dh6oqiUvgx/8GG7yq+RzP0tdPJRQLzqd1Ejtx4wHkhgmB3VGx0X30cRWF5ndOisCzED3YynQQKwsL99/o4+oSSsh0nipk7ozX63KRKhwJ86uqmRH8nCEwrwYdhxSftyPK/5uVvjcGhoRQA5nd6Q5VVWq869dwwJEWv5iRoFPVObMmc7alUb7BePr9qgBccB1muzjrT7qYhcJS1nP0MXUNFGpqx9/XAl0w/1obYgWU+UxNKXSk3LNgSBNUd0eVRXNarCeTBccgjXeES/zuPjW5XVWUz75HCbo/V3kXD7W36PdTAYrkWR/lbIfw90cmHeKsDourtD38S1xOWRYs/ejrMzAkDVVqSIqxkQ4FhfqExLNAyVLjnS3oa6QiIvmuR+R821P06zWFsC9zZoR3daVfTyUognWuzFuPqYLnF5gRhHpo9PdbIULWvwB11OI18hXR24G+JgNDhaBKjXBHgo4JS3jgV7Bqwdd0EazaxiHxXNvhUFZKL1v5HruIYcFxtc45teP7KBq+34oQ2kd99b5VtllvV4Oui86EmvYMdQywsEoFK86qJZgywUpvkD0cA66FUP44UUZ7RajzrpISviFbEM1QfVCkLJLA90fMomoWli54O9PXYEgvKEFPV3AH45UZjN9x0sRu4FHJPpE+PwNDhQE5QyjkagDLLuRSq4qHJMKygVa6w5b9f+KAbInftQeJJht9vXTH27kHnHNCoT/FzjD4B6wrKdQIOVMJvuNkqXMQF7Uf1ETXJfQ1GBgqhKjguRPWcdGdDBh3BTzxgCms84KyIpL3RKKpTDZXTVyuBgr9ydJZdV4yprrw3rp9LScs3DGwz0w+MPK9wJzJH4cGz1q575HcAwdSMhm2OqDw1q4R/CMGuWn09xtnafigLOljoC9Yyea7smQ946qvMtQyjga90xWydCZBRxOh3hPZWIB0Rs1n+bbEZ9mlCubDIFYaJBvyFhUfa1x/xnsR2mZLW8F6a8Wei4bPLbz+5QW7c0a8t2PHk+O3f9eq/9pjl3ddga57YRVqPWAtemD4xqP9ZvH/Gr9w1+RXl+y9dsayA2dM3E7lrH9XOcsh+N4hU9/w/VaAupBJZqBxf2GCxVA1qFLDvno5AXYoiwz1qzQhC7sF7lyda9AS2sQ4+4MxslDYBfWPjmC3MEq3JbsoS578dMpgXrDh8ytHzg1OGfAO/3qnKQXftx2xEV3ZbQW6tNMy1LxdLvr7czmYS44zBzXDr13aaTm6td86hAUNtZ/sL+r/TuD1KYv2vUifO92g8OZPokJWMSmXgwWnPOspGZL1pOTHLZMJFkPVIAvOL2FTCbqTkY7GOb9XCqyLEefJQnknJ1XCa7Jge03zub5IFMcii1pha3vJe0fZdqmEd1bvvXjgm9yDQ98J9O4x3f/FQ6M3FV/ZbfmxyzpjgWqfi5oRgSplqVDRjL/frF0OFrWlWMCWoht7r451mOI7/Px03/cD3hZefnn+jgcWbP0sbUqlKMH6d2qiR4sIfzkm++2zoEx2ou84aULFBtGNf9wyokqgXp1XrGBIUyC+6UOq6AjHZwcNVBW/tTXdhkax33QZPvabBO3J1mDRgJv/YVeThnS7usDY+fnWJ8bmO0e/t/PSTlN8yx59afOBVv3XoBt6rUIXd1x6GmGqGJu1W4IuxKJ3bY8V6N6hedGnx20reGr81mVTFu/sDfeQm5u6sa8iyfVQBFxB/B0qnEvVEtdQ01XeXnwyHRAeoI87HsMC0XKhMO/2owMtUvazM6QwSvzOSVBFAHZ3ifodSJYycOeqD+VmPlF2NmxFH18eju5s2FwRsj+FfQuV45tVxDdngAXFHuxOuh6l29QmRszbdfMDIzf3fnjM1tBt/dehm/qsIWJyeuupulh6jRx0TfcV6Pb+a1G3ab419764odfAt/gnF27am1JLdVTe/QNYyODWkxpV8J1C0T+hHqwRRcWS/WBR0Gv4TosKTK2w1f0jVJOF8tdQLJLUu5KgPfQHN+4XVoT2pubSJIYUhhJqep4sub+TyVZdVhSWXDB9HY1yts8Uyfs3+vjTQQk2vkAX3TcUSfYVKtSNF20oLGYiXfSiRJ27JjHoreBFj4zadkOnV7ngXYM3BLFIfd+iy3IsUkuPu3m0oNQm4+7jJdiiA9cTi2fkriHrd/WZ6V/8fy9vvq7dhO0X5+aiOqtvL4vOPhpv00lNetw3Ivg7JEUNiWjZUbTA8bnssz1GtysF8mdfht3JV3XRGgULjRTxg9poZB/D+I/YUbFhc7odA8MpofKuiyEuEeOh5K0TRYSsX0ry3WPp4yqKH/c2diiia3iUd/wYgzpHmEVizQoWQuiseXkH771nyKZXWnRZMfn+4Zs0IlAdwIqKCwWIRO1YU8mzWZm/L+6Yi1p0WYZa9V+vX99rzcwOU3zDN+z+4W9bg9/WauyrhHNMhWRR2EwCUlNgn8Eo2XDC8ZXGNx6e7GYhkR31e2s+x06oAa/B5hyk/pWXWFsRwb6UPp6BoVwU72rSUBWz/DoPm6DafjtaaN9cLDgboXxTtVUDlf22GxSf82vYtSfKmQ+hzy920cdUBmB9zF67/6qX5hc+OGyONGPou8LqtiM2fd/yhVXFEIcCYSolLRDpQrj3y7suj133wqpf2wzK+6n3TCmnx+vSY7OWf37r/A1fXF+T8S9V8Ewl60lh/R8PuyzBpiHmLzXJfCl97OmA8r1ejcv4F+kDMKtMUmFssNejogay06L0EEMKQPd5O8oQNBWcJRrnqbEyMEf4zOvwr2qhzjmjRwON+9PvJwNsPf0lNze33rL8Ly6ZlrP7owkLdyx5ZsL2b+5/cQO6omtpykH6itPpWOo+3th7LXr0pa1Hnxi3/afRH+zOmbfh4CAQLng28Izo51YZYFfvrwrvOACzxrDqIco7lbBgOXR4Z9aV9LHJAkE+l+TtG/O7v5ID5ghJQhacCFJj6GMZGBLi9/3ONrqv3ryYv16t1M9WtpoqVE5lLHbx3lm+96ax8wNdRr8XGN/7DU55ZMwmLFDL0eXYbYL8p9oLmKcK/0ixgNjXdS+sRt1n8Fqfmbw8bLY0f9yHhc99nH/wXPpZVgSa1OBjsoUXb1VjvFMOC+YvoLoCfVxlEBFMbTUh63OFbBHmgFABEyyG9MXUxZ83Hf6u9Lch70pP9pzB+f9v7OZv7xy0Dt3cezVJOWjevqw4/ZmEqnxe1CGXPJtre6xEdw9eH+3wyrZ9PWf4Cl76oPCVAfhZzskNVaiMTVRyhYoF62FVdP47EnB/WhQ0VYtYlUINNLwwKjZ8QxZtiiJY2eJ4hvTDzBWfPt3v7eDLnab6v3to1GbUqv86dDEeiOkcg6orgqiDiF3/wkr04KhNqPt0/9Y+s7iXx7wf7JPnP3jaXDjEZXaX/aYa34JNkbKf1zjLzh/2ZJ8xS5kYzkBAzGX4eztb9p4ZaN95Kr/r8XHbv7xzUF4EYlEXdUiFlIMzh6XLhq7EbvSNvVfrD43cdOiF131reszg7u/7ZrDVtIV1m/sV3mpqDDPK9OsMKQyYIpYD59xEv34mAQLC89d/es+jo7a+9+joLYvufXHj7xB/AYEqm1BJDzjG6mDZ55tD0iaweKE2gzagB4ZtXt5z0kfvLVjQoVbTJhjSGGqoUTNFcMRkwXYz/V66Ij8fZYz6YPcttw9c/2yXaf7p9wzNk2FtHfzik3QDSJxkAlXHjH8H4Hq36rs02mbQOr3rdD/fbsLWHrNXf37d5l3fNIXvkf5uGf7EgB1aIoJ1js57kcy7VtDvpwPAegqFUOaLs/im7af5Lhj0rvTCHQPXbYXM8su6LEeXdKre9XmM1c3SRdu5JPZ1VbcV6O4heV+3HrRuZ783xXlTFu++5Y3V/2qcn/+VtbpSJ1IBRcFz6sP2a/TrDKdAJOhuq0uwbi8TxTjXL0WFjW6hj0lV5Pq/vmzRtv8+2P8tqd+DIze9efeQDUehDAtkl5dmlP+RekAPEsZUJLF8T3x3OSS/7apuK9HjY7ccfHrCtkWdpviGf7D538+MHYvSfgOJIsm1Ry70rkXiuWdcRdwaQ8xvb6vB6nXRjnS/A3bCHU0fkwqAzPJ3V+y9/LUlu68f++HO7kNnF/rvH7bpW+zmHbm6+8oorM+DX+hUXPrCWBX+YX3B7OMVXZeX3NBrTeS5Sb7QmPm71ox4PzT69eWfXvvWivQpmwOIbxpr3a8GLAgFXWl173UKECxYDCoHHGQtnyaclXKCNXPpnjFD54iz203afvipcVvQrX0hJ6psygETqD8bocoF5H7BxMmT47drHadwWyZ+smfWtNz90+n+k4pQhAvO1zn7l5Btj7YywUoaGu9+Kb7RAyxVcKHiQOYi2A+OPq628Am3L2v4++L9I+YGJnScUvBTu0nbim7us6YEssvja/OMnZfxz8u4C7kEXYR/wK56HspGrz72zMT8on5vB74Y+G7w0SHvio9OyQ2dR/ezugQ6YDKrknOuznlLFCkTW1gmJlinA6Qy6Jynu8o7NChoFuEzUQkPNdWtqEg6q9Z+pSAn6uWFextN+jjU9/npvlXdpvkK7n0xT76xF7aiOizFv6R/xDTozsrIeDLj/QSsrxZdVqDWA9ehOwevR/hHb+eAN/lVkz/accer8wubvPlxwF2XwXvks/015reQShRQqSRSYB5PH8NAIcw5rtI518+KYImBhQU7kpACelCdk/fk08dXJ2CqetyC3Q93nsb16/qaf/4/hm1AIFAXEoFiQXLG6mRcwC7tvAy1GbQO3fdiHuo+3fd1r9e5UfPW7W8jioeyQ7W8XZrGm9epARuKQMUIqBxRkLkf+dwX0scxlEE46LgKixV+aCBUWO0FqD3kRjKUoZWs1SZY8EsG++f1e3fH5c9M2npln7fFaQ+N2rK79cC84zN6y07qXMYOx8hYHSy10uNVJ6DvPTBiw88Pj9l84PlX/StHvV/44Msf7Wy+NvS9Heqa0f24OqHw2euiUDmV1PpyoBjUgROz8ujjGMpAx4IFJYR1WLUOJTxO7LLsgVXy30QE0/V0m8qg9xuBV+8asmn2fcM2oZv7rCVxBiZMjKnDHGJ9Qeb9P0ds/Oah0RsXPTW+YPqW0OEKLdhOFjrX6KrigPPLKGdFpEAheDewSaxgleljGY7jyN7GF5Twll2ymBWFLbToYv0aFjFdtM1AyFRpP3/0/F3Dbum79qfLu6449kfKwR+VNxkZU4fH0yYwyexjh6Xo4THbfh3zQehGul9XFSW85xPNl4FFCkqBQ70vM4qKLnSk0MEEqzyEQ45BuuAuUYIuXU20OSUPBfvN2DI2Vdo0HjEvNPOSjstI+V1W8YAxXVi6bKvNoDw0+O3QbXS/ripkv/tXRcJGAmdB8c0wnOgYl4X/zYxFJFc3+ngGjBLJNkiB/foEC4ol2B4ettuCioxVEaxhcwPjrn5+Jcs0Z0wrliapth2xUakJC0sVM2WIF5eQXczNZFMMKBFO9h3gHT4UaNSYbvOnBjposmCF/0iTrF8rnH1jjMSwaCvr+NZKheZpkJFLnyMZTFlceMsjozfpdIdgZEx1wo/sc69sW17d254V+50Ndd6hRrksDfZY1DgwDGCiy4ZkCVtconMV4htUy54DaYOI1PAfxYJ1gibYJyg+0wVl31MCzpd0n+e1MBalGA8mKezZRosVPEQrgl12NY6kOnxcwrknRDnnhBKfe4IsNnim9HxqsMFF+NdiQkQwTwj7HSfV235r1YEbnxi7RaE7AyNjqhOsrOcmbptbtj9XBxTRM1uWINhuQ2FwCwUXsa5AtGBnoIho3nk4ZEqpJNcqAW0xeWSh3nZNcH4d47CFJAItX+u852ssNMfpKFL+EJ+f/nid8Fh8q28H2Viy1JqiBeuEcPHx40qPjf/riPxxPufP4INrfCYc+6vM2b/WOO/XCu/8+tv8m358dtyGY8wdZEw3gmA9PaF6BSvC2VsqvL1YDtSLz8yTDV3Ljj8H2ZVaFq0Bum1aA4vV5XKg8Wd6QRaKkhQEWFID1pJRcGqeNvILoZINKsGsNZNddhXOhn7yX4F6T4WdZEpnB5lwMaY+4xVSl6Ee0/3VKliK5PgAtisju1dzXixMsN3YyeMJciCxZ3NU5b0P0e3TGpBucHSHt70sufKVgBuBi0d/+NogWFw67MoLvxIiiBcIKFhcnr3aLu/ol9/3vwdfPt0pGBlTlzBDuF5fu+eLc0rHW3iro7HCOdorgpVQFxyESkK6j/8Lx8K/me01v2WZwmUgTbSjKAehFm/8x50aT5CTpYv4ff6sY7rfMkApwOfgSs9HEe6HYhjui6vXHgXc7cPbTVeV1YyUAPI7G6pcvTU6fgD0h68tgu8NvwwxbO1pXEY4ErDsVjnP3+H+pi/eOfeyzssTdApGxlRlDrpn6Aat7DjTt9e/UeM8YejrsDpEIzxuLQk08Q82WSNoRbDkTSdeCG4nuUnuFfwfYsfQnh5Lut+D3UI7CkuZKCq6cTssatIfYZmTCa+XITYYFPB0IAmcy/5C5UxkDKYcUJ7JEhWcG+kPXzuEh4UFi3x5TvygLe+XvbcpH+8mgsUSRhnThzno7kGrThIsgCY1HqWI2ZpM1t0axaaUkLIQ/9dKQiUwLmA2kHggHGS0O1FEwj/wvDGdiFRN4a1E8BTyrwfJJP0h0XVOJkn2ho1neduecKDyG87WCmArboVz3lEs2CVZtGvwCwBJafAASvwuBMKi8Bb8wFxB+oMnS7JTLg/WVPxB66IFRUhKhAubt45QOOjtGA44Tsohmb/xwP33DM2LNScLmumOwciYeoQQRqeJGw6U7ccASDdQxYbNi6TMubqQ/Tn+kY5pgheLkQ12piapCSBKGg/jrXTcxCe44n/bjltVIHilE1iJCMeV/hu3niBADwF5HSwoWM6DGYX1v1x8/IEoYhf1d4U3jsGUh1ZgfwWEJb4VN/jJ+MNANVERhCUzwQNKjvDLIcM0LMmMt5FfjRK/G5us9hUoZCo3V6v365wWr8Bg7ByMjKnGa3usRo+/vPVpuh+XheI7/wJsaf1P593YWspAkSC2hsjkl5mIET12qkJIMSLuJVhk4CIKGUTQwiB+AUiRcKMi3r5HE+s/St9nWoBs2SW6B0Q4c64iWX6GDwy+NghXlR8mtqog4U0VsvRIwJNbHMi+DOWbTrmryQtv8NqFHZhgMaYDc7BgrUKPj990SsECKHzT81Q+i1cliFXZUdTvRDERltokSsSuPMFi0zk3GXuqCDExsOrcSId4GHYbYz7zh1AQkL6/tER4h+NubE7uV8CkxP5wtCoPExJMIS/LbxbDwez76GuVh+7T/SqzsBjTgznomu6r0KNjTi9YAG1PkxYR0TwmKph/gzW5EfBoSMA9wfipJEmAnRgJ8UoqsgDpDxZNF5zfxPz12h4OmWqkqkSdIbzDco/K2X6P4g8NH5Z+IMkSgnok2LizcXf6GqfCoLfFFfCrZewcjIypxhx0x6D1Pw5+O1ChRc8w8SVL7uma5PkBjAN67FSJkNeIvaMoLJDGVlaxaNtWtLNJJ/oezijIvO0g/hVAMMNheCAVoMZbEOJNFVrrNGXJ/qfvfXET6QzGDsLImErMQW1Hbtxc2QqkUZ/1doWz/wiVe4skLDIgXpyHiA49lpIlWXPIu/+rCC6o8PDZkcKGT9HXPeOgSJaDMJuRaN1g8oSgn63CgjVj6f6n72OCxZgWzEEPDN9Ypcqf8g7XrRHOelTBHgkYCRDjgsooxvGUJKEtHreyYNl6VHRn09c74yAHPI+rgrcYZjGqJlhknROK+V0L6WucCtOwhXXP0I2kMxg7CCNjKjEHar5XSbAAspR1a5TzHlIh9UCC/KuyqQ6VoUfWdjU+UXTgjAUs4VF463iVh6oL9nKT0JIj5GBZUMzn+TZSWD/p8slz1n92xT9HbTnIBIsx1Qn7HD7/WsFKug9XBjKf+ZEiwlI1WL5WhVAMzMwLtu/o85+RUHjTebKQSTJndQ7SGqomWPEZECdYWQ/T1zoVhs/bmceqjjKmOm/usxr9Y0ReQ7r/Vgaa5P0ongPpQJEqxLBUMm6dfxbBsp0HGbIqpDSQhE/IloXpV2s8EOh3kweqiPFdc+IlLuxkWYDCwzKC0rwSM1nULEN1CNxWDzboSV/rVBj+/o48ZmExpjpvqkbBUnjXRyQlQfpjuc5JhPDM8ez4eMpCKU8+ThPdYY2zf0mf/4wE4rPOA6GS8cOBrYRgpkGBwvc87JIDpiqUsyAFxBaV8K4Rsuj4Oiy5sO9t02JkHRQoPCzpic94kHwQPxazgO0Ifa1TYdQHu/LY8hzG1GYOuqXvmmoTLFnK/Aiql8CPvkZWnBitJ0gVIgYByWKHEslGYSPJ3qL5zLewfuHtTZWgoyBeFMyGYpApy8FqcfygOBAjGxYuCxau7DeQaLJBm6KQq4G23fyqLnmOhUXYKw3iVvBgoRIDZNnCA3WD+JX8HvBOoK9ZHkbMCV1y95ANpFMYOwojY93zog5LUbvJ2/49dv5uL91/K4riQssLULsdxhnMFibKfielmSC+BYuWSfWGuIdjPA6PX94eUwP2uWivqVpLNqcMINgekbwCVmayjlDlIcsdNpcwI4Wk9XuOYf86dlRyfQQ13su2DQe9V2ETdqIuOGKwd1qUsx0DF1EWYePH0pXmNlQsZL5Ztt2p8ErurobPTipATLAYU5WXdFyO7h6aN4TuuxWFJtmelP0eGTaZwMbBsdJQCy1EJxNKw5Rms5/8HgTsSR0tbKVpkvlS+npnBGC3m6jf+x2sO5KxyweryUk8SsJqHbSrP/P1kko+Kwp6349w9rdjJB0CqjVAPAweKv43aK+QYD09kQkWY+oSBOvOQdUgWHzGZFjrp4iWY7JkWR6fJUxQEVj0IEVqgI/LQqWVVeJrfinCcjgJqkDgMRfIvpe+3hkBIlgnZgVhpsJ8vDSFLaxKWS/Qx58Kxb6M2/FDOwxlLKBAWAwC9VwWOhK0fVu0o9Gt9PGJMHZRqMGT47drUC6ZiRZjqhH2IYQ9NO8ZkjcMIVTpzYMBeIxNBpEida9I3BcWRmNj4fhEF3YDw6pg6aeI3taK2ASzQWv4WxXtS3UOCviRkAsKgysYsMQL/hHRw0aH5DwzLSyZtz1GZvYgwE62xIY4luNrFGic1KJOGkU7ra0UPvMXCB4qAVt830J8zhIxez99bCLk5R209J4pftiiC2xTb+wwjIx1yxx0Y6/VR0a9X/gg3XcrApTvahAVnX6I90L+FIRgYGdnmIUnoRkojyxmPUu3A0DVk7BoXwe5jqqERY73ohKotMJlk9LjmnAWtsiyRtHt0h7hwoZXRznXIRIkJ9Om2CoSskW5sNFjVdl6XhGdrbHFximCNwYla+ALUHhzUoIFGDY3MOSa7isTdBZGxromzBCu21/ZNYSl0Pz2hzGxJQRpQQ487lyq5s/SFSkT6T7XDuzldD3VGESBbLcs2G6WOfM3MCkWETKx2EEZmfiyOE10qUrA255ul9ZQec89UCtHFiy/K7znG13K7vYbfhD0cZWF7mvSUeXsu+N1pF1JC9bQ2UywGFOVOejmPuv20X22IigOedsonO1n2JRFJjFjM7iCxWHR8V1EsldoDP7CmVpqnOu3GCmtfHyWEf8bJZNfNuGrfJOVbpO2iGLBwj5vCQqZMoH0+9UBKBgW5qztZd6xN9mZCyZYjKnLHHRTFQVLFl2PRgVrkUKqK7iwwLhRcdD7ZXhf4yvoY5NBWDRfIQtnLdJFqyhLEIKJpzhEJAv6pYIFCFIaaKupPlbjpAvsVQWa3/z4Ue6s3vTriTBr2Z77Wg9c/xsLujOmFnNQ83ZLUcepfo7usxVBMe98EotLWIbFznympvgzxhXvcF5OH1dRoM0NmkYk7wTFb1NVyY2gUOCfbjv7ukKHV/L3McFiTDXCZNB1PVdfQ/fXZAEeh8pZVmqQS+V3+SK8qRt9TFWADrQwK7yjoyae9WsJZ0PFvDmptCSGKuKZCduYYDGmGHMQbEVXFcGKBBuPUn22nyKi5Z8wU0i/X11QRVNzVXBMUf2Wn5XtGa3p9xmqGd2n+/dd2H4p6STGjsPIWPuEHKyWPVeju4dvqbxghc4/G4nOWhMQJJzdDonnntiZmqGG8Px03y2t+q01dBpGxroiJDP/c+SWZfP4z1lciOFk9HxTvKbN4DxDp2FkrCuCYN02YP0bdF9lYMCC5bumzaD1hk7DyFhXZILFUC4Gvcldde/QDRqLYTGmBnNIWZn7hm1kgsVgxPyVu73Pv+Zbd2EHCLzTnafu+dTQsejtt/4PvfPWY0lx5ptPoqu7zDOcpyq8vNMCw3UqQ/gcM2c+gV6d8SwaM6Ub6v3yQPTwwFfQ1Z2rdr8PDZxiuFZ18+Ye7xquWzPMQVd3X6VOXbz/cbqvMjAQ9JopvAHF/o2dp24JQrHuo1uN5T1OQUVwoP7j+hnOVRVe1+09w3UqS6hWKfMOFOZc6Kjfg37Lz0bfbWmCti+5jojYP/q9ii5st8hwD6fi4Al9DNepbj44YIrhujXFa3uuOrpWPMRm3BgSo9dMEQtW6pVLbv3CTPTz9gaGwXM6rl14G7qo/ceG81WW1SlYpyII2X83/hVbNI+i23rOQs2eW2y4l0Q84wSrx4rIWv7LCu30zPAnwsB3C9+4tNNylGq76Eyd8Zxh4CTDrzedgx4ZNMlwvsqytgSrLL/b0hgNmtAbXdrhI8P90DyTBKtZu1x0Q69V4bXSwWvpfsrAQDA1d+/FrQfmFaVS4P2aLvOQuOwqw8BJhhHeiSZPb2c4Z2VZF4IF/DW/PpqCP8elHRYa7qkszyTBgoB719d8X+UdPHhSmXAGhpPw6EvbDqeSYHUYPgr9VAl3sJT/WtsMNa9gLKg81pVgAX8vyEJjp3Y55Wc5kwTr0k7LUO83uKQ3U2H4k+LBUVuxYKVGHKsZ5oK5/4hvp1RJQjzo/wZPMJy7MqxLwQL+jC2tf55CMM4kwYLJn34z+Rl0/2RgOAldX+O/v6jDMkMHqgtC3ObbLU0Mg6ainPvOw6e0TJJlXQsWMHf+XeXGs84cwcpB13RfhbpP9yVVHonhT4znp/MP3dh7TYJOVPvsO7a/YcBUhvvXNkdtes00nL+irIhg5XxwN2rWbjEhiOVF7T5GLTouQNd3m0MsvkmvdUDbl7RER8kmCMb25RFSH8qzGMEiLb0mzfHTOhvOVR7bDx9jaF9K+po1wxz06Jgt33284Yvr6f7JwHASesyQHry5T90vgobBvXJBa8Ngqgwh16nP2AGGa1SUFRUsun1ZQqrCtV3fR2OndkY/bGtkaF8eoR45xLLo852O417tYjhXeWw3/CVD+9plDnpkzOb/Ltr6+ZV0/2RgOAldp3EP3ti77gWrbf+p6OvNTQ2DiSbMoEHiJf06zc2LbsTnrZqFUJ2CVUpIDh3xSg9D+1NxzcLbDOc5HdNNsB4evfmbTzZ91pLunwwMJ2HonMC9bQblKXU9UwguE9lKPMGAKst5s9siadmVhtdp/rC1Ebqnz3TDdSrCmhAsIFiTu1ZdYjhHedy35kLDOU7HdBIsyAN8avzWfUu2HWxG908GhpOQKx7KbjfZn//3Okwevaj9J2jnyksNA4nmbwVZJDH0zTcfJ7OB9PtlCW7hhGkdk84aT8SaEiyIDc2a9bjhHOXx0JazDec4HdNJsFp0Xo4mfrRjEt03GRgSouM0/9K6tLCeGzYGi1G2YSDR3LL4BrLA+aEBk9HhAthW3HhMWYrYEmvZ9T3D9ZJlTQkWcNTk7oZzlMeftjUwtD8d00mwruy2As1Z86+RdL9kYEiIZybl15lggXU1++1HTusORjgneuW19sQ6gTZ7Vl9sOIYmxLrKm2FLhjUpWBB8p89RHr/ZdCZbWDnoCixY72/4ohfdLxkYEqLrNP8yqO9eF2sKb+7+Dvp8/QWGQUTzl/z66M7er59oNwmLF31MIs6f84DhmsmypgQLRBdEmj5Hedyx4jLDOU7HdBEsWEPYsucaNHvtFw/Q/TIdoIru5qrgSb/YG9pi8sCGi/Tr6YCBbxW2uKVP3eRi9Xp50GnjUUBf7jUnJYM+OmgSie3Qx9E8sLY5urXH24brJsOaEqyL23+MpOVXGM5RHhe/f4/hHKdjuggW/FB2mOLbMSP3kI3ul+kAWTQ/qhR6qrTxa51AEd05smgpol9PB9w7ZJPj9gHrDJ2ppgkCBCVh6AFEE9zFUZOfP6ntVZ0/QFsXX284lubvPi/qN7a/4drJsKYE69FBE1EYu7j0ORIRxPzFiT0N5zgd00WwLuqQi3q8Ia2fEwrVyM7oNQ05aHtUEWyqVmB7lH4vpaEIjiNR3pa+gtUfBKt2XUJYJ/e/TecaBhDNgxvOQ//oN83QHkSMPjYR1390C7Fq6PanY00IFhTqK1zRwtC+PH6JP3vb/q8aznM6ppVgvS5uzD1wwEz3y3SAzLuGqILlF1VwK78XOq6m309ZRAXzkajfWww7z9LvpTrGzgnZ203KPxJfU1g7ogVxnHFTO5P0A3oA0Vz70a3oso4LDOe4tcdbqCiJpS6/5WeRWBnd/nSsqmBBSkXz45MEl3f6EHUZORyFVl562gmGsly14HZ02WnKzCRieghWfA1hn1mB8WMROovul6mOI0FXN51z6FHRgXTeiiIBT3okvqL8OzKivOuIItpQWPIU/Li3cSP6mFTHI6O3vHB5lxUJOlXNEGo9JZN7BexbzjIbEIKNn9xkOD4RJ77WwdD+dKyIYAVXXI5GTu5xgqOx9QfJsG+/9RhavbAV+g+2lOg2p+NRn4e4j/R9JcP0EKwlqM3gPHnuhi+epvtjqkMOZJ+rcc6dOu8swi4h/hHyoAjXIPUFC+WbrApvn6QKjpguWJEiuFGEdz1EH5fqiAvWckOHqilCLhWkKtCDh+bP2+uXm0sFi39HvNIdFSdhpRXkXIuuLec85bEiglXdhGezcO79lXJlgekhWDmozaC8yHt5XzxF98dUhxZqfEVMyP5NFq0xnfNgQ8WMNMG68ahoyqaPTSmEhYwpGmdFsuhGMb8NqSL+W7BNoY9LdbQdseWFFrUkWOAqzXnnYcPAScQVH7Y+5eYM9/V9LSnrBYoCPvNixQZmXQoWl3s1uqVHxd3YUqa+YEHoIRcES5u99osOdH9MdeihptfKkkNVBHtE5+yoWHShKNaBqOB4kT42pRARXPt13oEFy4pK8A1rArYaCusvo49LdQx4S2h/U+81tbJP4e0vvJlU4ifM8JXnDpYSxAxcLrptIs6b/U9D+1OxLgQLZgXBGiybc1YZpoNgQQ7Wo2O3/yeX/+/FdH9MdSiCq5Ms2Y7FYMxzNiRLTqTD3/6s1BYshXfv18CHFSwoxuMb5t345rM/Q8j0F/rYVMbK/M/+dveQvM9rQ7B6jhlM4jP0wKEJCaWtsbjR7Wn2G9fP0DYRv9p4Lll4TLcvj7UtWCBWGz65GbXqOctwLxVl6gsW/rHpsAwNey8k0X0x1QFjO8pZPouIDmxVefGYx54VNlSIpyW5UlewNDHrClnM+FbDN65iodKxaGE/FkUEMwqLnuH08amM/MKvmtwzOG9/bQjWpiQD5btXXUKqap6OE6d1QkcKvIb2NCHWVZGcrNoSLNhTEdzaFye+gC7rWPEZwURMD8FaioZ/kH6CpQUcw2OcB0UkC5nx1SAWi0VLE80oEnDkIvHc1EuCPSq6sxXB+6UqWvCXjm+Wc+MbtuK/YcrajFXX+mVR0FWfbpeq8O862PCuoev31bRgter5Fvppe0PDoKktLp1/J2rRKTkrqyYFC+rWH8Eu73+x1ffWrP8jeWZVqSxBM20E6/30EiyUa6qncrYpKmdXNDEDySIe+5CmQnTAhQXMgo4G7G+jg81Ta/cfVGhqEgUXEG5SgH/tWLCwaYh/xXX8d5R3IsQ3aEq3S1XkIlTvuUkFwfiawprZlAIG5LhXO5HtuOhBU1v8ZvPZSdfJqi7BAlfvCHaBf9zaEO1f24zs9gxrCaEk9A3d5hiuWx1MdcGCPnZ195VowNvCWLovpjIivL1pJGBBMc79X4hZyfj5kbg1MVRc+HXsGoruXfKec1NrB2uU72ii88YvH24eTHwdYlmhrI/pdqmMHjO4+1t0qbkNKSA9IT+npeGZ1SbBshn3amfDvSViRQRr3Ue3kXhbYs4iliWsabz++Tnoqi4foAvbf2K4XnUy1QUL+OCojWj0e9KldD9MZah89j0ytqaiJCUHxMmYUoPHf7B4V5OGdNs6hcLbzlP5TMPNgsqGscUVk2yoWLDsivB/TRsr6+mJ+dfVZGoDFN+DInzGZ1a7hDpZl5SzE01ZVkSwEmW61yVTX7BIWWQ0et6OtJohxEbKAl10Ih3i1hCz5oyrFjTsQcR8Wc/SbesMyi7v+VFf1k5NTOTagD9rRSrvRYpkPab43M/R7VMV3abzN13VbQVqXkMu4bx3H0zwvGqfEENrN2y04f5oMsGqOUIfe+ylzejlBcGL6H6YqogIjd/UeHsJCJIs2JAqWRGkNNHPE7IGIoJNVXznX0Cfo8KAzPRwwNE4HGjUOP6vozEqh+Gt1L/wOv47XGjbFcM3qpDpTLoD2IhbKJM4jQXJQc+eilyDJmkrmmpl1uHl98Xm//fSFrUmBOu6bnPRgbXNEjyv2ifElGDJDCztoe/z5HtmglVTvKzzMtRlasHiaQv3Ouh+WFM4wnmy6PFV7liEcV46/vDfRTvMI2XBekyTwIKC5wZC5TwevzI+U0VygKW1T/E5bz8xjhNci2bpNYFfYa0yKVy9DipnRxHRjRRsCcFyGojyQ5A8il9XeVc8RQH+xeaejl08UFQd32BYtJHjIHalwE1DkJ2+UVBe+FtykbwMSCpTxLiZaCQcA+eO/wsBfHItDo53xNvhe1D8pk70w68JrOY/dz0xdtvy5u2rX7AgwPx7EqkHtcV/551Ptt2i77MsmWDVFHMQWPKj3pNqtY57kWgbqgmZx8cexJnxeBPceLzjsQ//52CyzEMmzqLwOvagIhK8DtqAj5VgLHuQwkEKw3GDhWQGnPw8QdAUGMMBsMDs2H20E60oHfel410n14WY9/G/cVtFhHsiWvTL7wFnG5MazGpbwrv2KuCDEiEB9w3iKnBCM74pc8KbqBVCLgd5UA4sqJaSKG9T8YPJwVahl374NYEtoS89T43ftr66BQt2Ll4+v43x8yZgYPkVpKzxvX2nV4o9xgxNqiAg5M88P3qo4V7LMtUFCwQXdmZOxDnvJF/RFOrL0+1L2aKa8sJOZg6p4z5iTu0KFgqZMjW/6xFFdO9QpHiiN4gUGC4qjDsQkuNGSHmWU/US1h6D8GFrDN+PyllAMGOakP3vo8EG01GoZbxGGBYAZ7TAsjbGgwXjQTHsuimihUy3a8S6oU9cS8QPTiMzEJDPYY/q/uxFiG/gop57jWEd93XW0+O2bq5ulxDWxMFGCobPm4Cvz3yySjsOw1KdZNYWApd/eMcp3cJUF6z03ao+B13RdQUa+m7tClYpIn7T2bJo4cHLgiU1YKxAPCoiQJqCg1hP4HnRz6ImqAWc8XHPecGz2636XIMjQft19D2bUJ7JEhG916gB50pZyIxp/mwIkhO10+vIwiKmod8bw3+vPFrYsD/cI33fNQmE0F/6zRL6XvX8Cs3YySpP2LmY/qyJCBUKks2ROhVhG7Bkak7Fi+NNNbQvJROsmhOs+4blHZ23bn8bug/WFiAurOZn3K35bD9EeTfkVWG3zHPcu7KRsBD9LKqbEJzXIWQkeH+RAw4/CjW1J7Wkr2in5UFsFhbKghk3zoi7iQkuUOMUbSFVstdpaZr1/JfX3dBr9eHqyni/svN8lL/kOuNnTcC9ay48qW57ZQkzgD9uO302PQjkS1O6GtqXkglWzQlWu0n5h+i+VxdQ/Bl3yYXZ30Uka7HKQYwaf24Y/wni0zXBiGhV1J3Z90V22SuW/hQJZHdXOIcfAuEkoA4zfSSuFQ+IQTUG+mLJUitNdSAxMwj2weuOEwF6SD6TBSuH3+9B31dtYwX/5W039lp9pLoE69kXX0I/bGtkeCY0Ie4E23jR7StD2LtQWHr63aGBsANzeUtimGDVnGA9lyKCVQpZrH9OJOjcBWkKms+DvS3weFy/kbEKAXY8dvWEWQHJkayE4eOZA3ExhPFv/TnKZdxB30vSQIKpkSxlbtW57B/xzUV1LhNFAlDrCnxa400kS3KjMOsHWfDwoWFmAALsZAYCaNkeDpga0/dTF1jt/8+tN1SjYCWz5yDw0Oazq7SHIM3prz9tuEYiwoLotv2nGNoDmWDVpGBtTynBAsiFTf8qC87dKm/RyCScaJOhOJ8sWbAGgGBVPhAPRhCIlgJrjiV7VOMbTCuWzFXP8i/2N2kY9ruGapxLiB5PcVCEzONWV+VI1hri9lFwOUUvsdZIwhlvV3V/g9eLhdQpqQyB92cnbP+6OvYohGzy/206x/A8EhFqQEHdc/ocleX9/aahYr9x2QRNWKoDi48TuaJMsGpGsGANYfcZ3Gt030sFoF1NGsqi00dm7MkMIqQyQCqEF7tvxueTPMFAcUrYWCnRxYaz6OtWGbLkulXxWzaBJQQ5WFWZOYQZSDArYWEkLJiOgK8s2TdHA9n3oHxTBn3tukan13z9YSU93dEqSkgbSCbFAHiqWFJleEWn+cifc43hOom4e/Ul6LaebxnOwQSrZgTr7qEb0NiFe++k+12q4HDI5JELs59ShazfNVIyyoGO+bOxYCVaipcc4YdR87sKNSn75RrbqAaNNZ2l8JbZasByLBm3pnyCNVUf04yiPk9RWMx8H8pU0NdLFbzwhjAMqjbQHa2ihPLFfcYOTIrXd5traF8Vwm41Dw+cbLhOIkLu1jVd5hnOARYifWx5hI1d6fY1zdtfmGW4j+pmoudSVd41JA+N/mBnygpWKbSAox24hJCzeQwSuKuS6iDaPldDptrZIVrnLZwmVn6ak2SuS/gDS2YECycjOxrVeXD9VOg6nesCeTJ0R6ssIa8KyiJ3HTWMWAVQRK/TyBGkegEIC318eYQE1F4vDUYvTuqFuowaji7ukPwGDYMm9CXtaA6d2NtwbHkcOL6foX2nkSMNxyVixxEjyfGlFVRv6j4bDRjXH/V+eeCJon2PDZqIXpzYCz3QL/l9COH5Qeyv9H5gg1n6mPIIibbQphv+Xsq+3nPMEPJc7qpimeby+MCITUWvLNp3M93vUg0ItqEXYYVL3Moi6Q4JxneS5Ojz1xh0wcZBQlmCm0iK8QJf4FY64pnsOxqktGC9lnvgsruGbPxPdQTeYTuvEZN6kHWEkNAJS2KAUK54/9rm6J4+MwxtyuMTQ8ah77Y0IW4mnAPiVPQx5XHvmovQwQ1/OzFj+SP+F/7/+fq/G44tjz9vb0gmEKBdKZfOv8twXCJ+MLstuW7pTCjUqocy0bBc6Y5eM8lrGz6+mbwGIka3L4/xGdGryDMBt2Pg+L6GY8pjm15voJ+2NUTf4mf64IDJ5LWHB76CftleH3216VzU6oWql2o2Mgd1ny6snLP2ezvd71INut9zLcSwoARyPOhuHNvJEn83O44IpmZJ5VlVFTHOzlUtVR+K1EOSGCSlerFgpbaFlb/7K++tfddvgF1NjB2uYhwyoTf6Nb8+8uVeSywBELCWXeeiztjC4vFA++eA8hM3yxIy2N+a9RgpTyMtu5xsoDp2anJ1rcrypSndyHcy6bWOhvdORxCs331ZhteTYXdstcB1Vy9oRWphvV+mcgUIFAT9v93SmAhIonhaeXx88Hiy7f2ulRcT4YF9Gq/sNN9wXHmcMv058ixXfHgHurn7u+T+oBLqyFe6G46tOuEHcCkaNje0gO5zqQhN9HyiChkIJt/iCeWVN1riy3AyUY3Fr8pCFywcrDMy3kSyjFtYOr7hcMCBXcKzU1qwNoqHslv1W7+lOgQrtPIy9AsWrIcGxn/By/LqLh8kve8erJsDq+rTdc2w8I0nFhLkUJ1qaU0iVlWwjvo96Kmh407wkiTd0jt7v4G+29qYPA9whfeuvogsV4LzfTjnAXQ3tjQhkbVweYuklyaByC2c+w+ypKzXSwPRmoWtyDWeGDLecGx5vL7bHJS/pCWx7GAfRKiMCrsQgeVGH1t1po9gRXhTU1U07ycFCWCxswCxLCiDTI/t5AhrBsGtrHHBKt7X8Ha50PtjVcr6ksWNkNbAW1EYW1pqMLVdQhCs2wfkba4Ol/BwfhYeRE1OCFO/cQPQ4nn3niAEjuk2iQjbvMOz/OT9e/H/F6PNi25ExdgyABeGPvZUrKpg0d/tzT3eNRyXiLCJqy/3GvQ/7GrBZwlzLiIwu1dfTAoKjnilB+knkLdGty2PEBcEV/vTdX9HNz4/G704sScRrzdmPmk49lR8bthokgIC1z+MLdjy8tKqzvhehOkhWGf1gHQGWBRNqq7wkI5UecECQmpUjQoW9jfP0gXPPNgNR+ch8BZPAo3Hoo7fBCFYUPC+7XjJCig7AeYjEMpHxIN1JK+LzDQ4jkFdLvp6qYRXFu0bflGHqpdL/mrTOcTNKd26asD4fih3/l0kRgLPBGby6DY0wY1c99Gt5HjYgBWC1YuwcMGznz+nbdJWGrCqggUuIQS6S0kfUx7BGoIaXCCysJUXxJx6Y6to/uy2JFetcEULksTaGYsZ3bY8gshBGz8WQpjMGDPleSKE/934V3RF5+TdQpi8+AhbV/BcZs16PGFOWvUwh6Q0QMiB7m+phhJfVg8Yv/FNJqBIAhgs8dUpmhgvkBAPE0HaU+nfoAlxLSAzisfbxAt6WkmZGaXAuoi+VrWhuNA9Wsc+LFlNTdYYQc0qECO4MajnDFnr+G8/vA7p+9iCEmGZCay+hlnFzPgHIZnuIGbxJFJYJZ6SWwGVwcYdh264pFPVBWsBdllgkILlAEX8Sl04qIGerGBBLhAMQthY9ZvNTU8Q3Kl/rW2e1N6FpawOwaJfT5a9XhpE7hncLsjsh0kD2NoLAu8gPAc3nE9m7uh2iQiiAsm2UCjy0JazTzyTX7bH3cweY4YY2pyKk6d3IM9l9JSaiF2VMgf939jtiO5rqQYIjMuSYxgsxym1jODfP0QJ6tbBOHdCFvzaqOS4W5aypkY4x09xowSW87kQVIOBcQ/CFU+PcKIYZ/sRC9z19DWrBQqXuRhbShHYUEIRskjWa0SE4BkU/YLcqngQjuxLCGoseYpk0fNvKAYWwx0wjF+Xg1C0rl58/dBxt5LstCFmP0FfL5WwRjzUujoEC9yWLYtvINYQWBFzsYU0dcZzZIYwWcGaMr0die+8MfOJE7/+IHwfv3cfsVQGjkt+ZqyqggXCMmV6+xM83c7UZXlL9z/K7BTktCSbcoBofb+1MXlty6IbyGJxul0iQsoBfPY9qy8i6R6lr7/w0mASNF82v02FNo2tLcF67OVtqS9YoskGFUPjYgXeUZzxnbHw+JWwIRJ0fV9U6HgFHfyjogoSnI003ipBNWJIOIW8S5hdhHWJ4KGBiJH1iAWWf5S9XrWhpCBzcURwxKIivjDUzIIbwcJTwplRlLPGopz5U403B47uqN+niG9w8ZFQo2awiLI4mLUIq+93KtlRw7MVbh7UWjkuWGQdoWhfnsrJo8v9X996aSfYkKLqcSxICgVLYsWHrcnM4Pac64jYDBrfJ6kBunje3Yhbes2JqfdSPjV0LBbBy9Hbsx4ztCmPvV4eTNr0H5f8hqql3L7ketK2LD+Y/aDhuPIIwXQQkiBuN2laB+JSgvCuWnA7OdfLU7uUuxCb5oDxfUmbMViAy74OAf2VH96B1n98K5n1o9uVR8gxg/P1fKlillnyjG9Njy2sGN3XUgm/7zZ5NSnzI10orY4LYgVlp8DgsCHZBxVVPHfDvg50W0Cx39kwLNoCYMDEl/bZUYSMeRBA7BpK9p80MesZul2VoRVmtyjxOw9CUS8wAcHKgouT2BVvPYrduvGRXeXviKPvbHyTItmOxPj4NvYklgUmIqxNgg8iZhyKSPZr6XaphCfHb0fVMVPIyAhFIVt0WYG6Teffo/tZKuFosF7bsFQPu3Dx3Z3AogKxImMWRIz33EO3oUEWUQfr95FFNym7DrtEQzVjFcqyYwFUgpaf6TZVhiaaX4LKn5A/FbeIMhFZCC16kFrYaDAE5Ok2NMC0lCXXIJkHwYoH30C0yAeBhyBlfUe3SSX0nOE/wASLsToI1tW1PVahjlO2d6D7WSohJjRoWxyA1SnxiTKyzyhZBO3dEdvRtGtFvKIf9zZ24PE/I+4aenVNsMpQKDDC24+GA+Yr6eOrhKOi7WeV+LEOVfc7oqrokCOC7Tc5mPVqRbJV4ViVM/0T3ySvF2TLOikOCIE4ku7/K318KuGF17nvQbBqaidoxj8Pm7dfiq7pvgo9Oym1BSsqWbbKoqsIUhl03hvTBPdv2J3r+Fuh7a/0sckAhUx2Neh4X+O9v8Z4j0Im6QTIGHBMo4+tElTR9XPUZ8FWUKYUFiy7or6Me+ljKoown3GP7nMsgbWFUGNLEVNbsLrP8C+8rNMyJliMVWQOdgmXolb910ZenBN8hO5nqYKoaGod9XvCsmBFJX77XoU3jaSPqSyQz3pBRHDtO164D4uhdXtRyNWAPq5SKJFsA2XBEtXJ9KT5V22H/WH6mMoCYTNR9VuWypCQJlqjUZ9tyqFa2newong9d3fb2/qtPVodgXfGPztz0VPjtgkLN9XePoQVhc5lTJcF+x6Fz/wY5dvOpd+vKn4rzP5rWHBcrXDORbpoQxAvo4+pMCIh+9k67wqFJUg/8ESjOzJOG2SrKNRdje/WeYcOAT3Vb0dhLvMq+phUwOxVex9vM2i9ygSLserMRU+M3bqN7mOphKjf2xoWKatBU43uRg2bTURE25qIZNlFv1dhHA1lvQnpBxHJujkSsD9Av19d0LmzWxaLjkXYp/0KcZ6/0++nAt5e9a+n7hi4TmeCxVh15qLHX05twQKgAw2d9Gs1AfCq8NifFQ44qhZqgmqDR4LOJ9DB5jW+xRasK4r4Mq+pSBC/NrEw77PW97244Sc2U8hYVV7UYSnqNs23ke5jDAzVihFzpc0s6M5YVbYasA6N/2RnS7p/MTBUK8Z/GKr2naAZ/3xsMzgPPTc1v9oD2QwMJ+Hl+YXb/k4Ei8WxGCtD6Dc5qPXA9UywGGoeExfunHdZZ1gEzQSLsTKEHKxc9MDIzdGeM8Rz6P7FwFCtmLlk7+UPjdpEOp6xMzIynp6XdFyOOkzhPpmReygl8w0ZziBMXb733GcmskXQjJUnVP14bOzWassaZ2AoFzNyvzjnuVd8JUywGCvHnLhgjdkymu5bDAzVjrdzDzg7TfWvv6QjrClkbiFjxQgpMTf2WqMPmxPoTfctBoYawZTFe0e27LnK0BkZGZPhvS/mfZm75UsP3a8YGGoEry7+18iWPVYbOiIjYzK8d8i6g6LIAu4MtYRXPtk78poeYGExl5CxooSdctZ/uSXELCyGWsJ7675oddeQDb+yGBZjRXlxx6Wo45T8faFQKJPuVwwMNYZeMwOfsyU6jBXlNd1XohHvB1N642CGMxB932KCxVhxXttjBRo6W6z+XWIYGE4FsLBY1QbGivIaLFjD50qd6P7EwFCjGPBOYAls0xQXLRbLYjwd42sI7xi4Ho2cu6NmNg5lYCgP/d4Wb7ljUB7piMbOychoJPy4PTJq0+a3VnxWn+5PqQiFq9dZK3SPSWYLP4YUx6B3AjfdNWQDYoLFmCxhVvnB0ZuWhELf2+n+lIoo4RpMl0XLj0VS1q30ewxJAom2lCjJAYJ1z9A85hIyJkUQqwvbL0VtR2yaOxahlLdYUL7JqvldH2q8E4VFz6f0+wxJIsbbF9Cv1QVmLd7VtMOkfInNFDImxxx09fOrYuM/2tOd7kupiDDnuEol2/rZUFFhlky/z5AENM4zTBYcW+nX6wq93+DeubA9EyzG5HhjrzXy1uC3aRG/Cu9w+nS/C8VEC1IEBxOsikLGrqDut+yXJWtBqgQB+74hYMFi7iBjcryx92p562epL1jhwuz7I7znsCbANvJZRRrviUVEU1f6OIZTIBK0C1HBgSKCGYWDtqH0+3WBnq/734HtmtgSHcbTEWKd12MLyx/65Wy6H6UaUKC5WxHtn6qCDckSpuBCqlhvNn0cwykQE+vPk7FPrfFuFPU7vk8FK2vW8r0P3dZ3DdtYlfG0hB+29pN9h1CKB9xRrqlehHP3UiVbWOcsSBfcSJO8SPHbPkZ5Nb836RkDnXMKqmjGJqoL6ZwNpYJgAR4evTncjAkW42l4aadlqOMU3xC6/6QaUNBVX+exRUXcwT+oCG5VFuvfQB/PkABHQ6ZnZcGuxniYtbBg89SJigPu1+nj6gIPjtoULt26ie6kjIylhI0nnn9NHEf3n1RDzJ/5oSZYDYIF8SyZN+9RdlnPp9swUFB5ew8F+9K634tNVOwWivgXgLf9pziQfRl9bG2jw+T88JVd40t0WCyLMRGbt1uKbu27HvV6QxpI959UQ4y3r1NFt0GwZNGBorwHW1pOVov+dFBFTw8Zu4E6fmiydBYWKwuK8W6kiBkv0cfWNpb7Pz2790xu+nU9V5GOydxDxlLCjxjEru4dtunbt9Z8/qQJob/Q/SeVoOw6+3xdcBWEJaOFFRGt2LuxooiQwQTrVEAHTOajQdenUfywdM4BCo807GPDzEVUdHxHH18X6D4nlNlxSv60e4bm/QKxCrrjMv7ZmEN+uK7tsUp9eMzm/a8s2fPPdMhuj4j27lHe+7sqZBoECwyGKO9AYc48BQLzdFuG4ygOep7QOTOCQKAiWci/Gm/Df7tQCe9KCcEqxeTFu//2zKTtgYs7xneGZtbWn4vx7xuYi67ruVodPKdwcG4a1W5XBY8c460/hvE4owVLwd6Nzjuxd2OV5YDtXLotA0axaG0dFi1FUc4rq4JLV6RMovIqtrTkgBnh1yORYP1H6HZ1iSHv7m00ZHZobptB639j9bL+fIQfq/aTfV8Oml34VO6BA2a6f9QUdLH+DZrY9BJ0oKEzIjW4Vpbq3yhLjU+iVtikhRI8/4KTuLfxBWifJ0uWznonJliPKWAMCB6DYGnYw5GxWxiRnCjmt/8nKrgGy6GTzw8MF55zNX0NdUfTi1HI1UANNLwwEmpwNhIaN0L7zstCwXNSPom2QogJ9dpGhXguSESwYqvKTlQe1L7Ehy0ueJh+y06U37AJ3bYugRD6y6C3+Aeenbjt1xZdlrNg/BnPuGXVqt9a1GM651+45d+X0n2iJqEUmtrpXKOjMcFzSJUaLpMlj6yKXqSKWSdTyP4J/3vgZLoOaD53nsp5kCzBOHMhXbQZBQu/r/EwWwjvgQVmQ1qia4hZRYZrCNn/U3nPFkWs/x9d9Ig6l5WPz7le4R0d6c+S1oj5s9rCzKCKLStVxA9LhKlVEK4MVILdREXCD5HDLqKvfq12kGQxdk7I3nFywcxre6xis4hnJHPI9wpVGO4cvP6XKYt2Pvlm3sFaT678hW/gKg44Rc0PImLGlhCIjI2IC00Qo7KMik4kQxpDwIJiPmwI8NDW6BIS0YLF0DD55YeZeicWt7iA0aSvQUQO7kl0Ya/IDoH7TyOh+o+gfFMG/VnSFijU1C7zlm2K4MAWFcSu3PjDZ5JMdw2Cf5KzSIEHzeEHx9uvo9unCrpj0Rr0tjDxwZEbf7moA3MRzxzGraqrn18Z7fIaFxw5N3jfnDrcCQfW2qqBLJ8iOCPE8yDxJsfJFIC0CIEhgAWFB2vJgsXLjhRom+A4Hbwc3oXHno2MSVVwbjVcg1yntF3cUtPwdaEtJH1jl/Pn4sLsp+j7T2sU+00NZdGZDzOD9IOLP4Syr2NB4xxB+hyphr5vCs0eHbN5P7iIzfEvMks0TV82ey4XXdxhGcwCHhv0bnBqXuCgm/6+6wpRn/VORbD9qvKQS2UmbpwuQfjEioXJKFjVzbiVha02Yr1Z4vHmuLiVRPns17H11oy+55SALGV+EvVnT4sI7t0y79gdFs27I6Id/+3ZrQZsu+WA/WQK9t1YnXfrons3frCfg1KDVUU/kITkbRGNt+0OC/jcggPTvjscsBivAdfnLLvxeXeXCLbdGp+Jr+XaoeJ7UwINO9OfobrRfyZ/3pDZ4qbWA9cVwf50TLTSjfG67Jd1Xoaemph/cOS8UN9Ne3900N9zXaMoZL5E8zUYKwcdP0DCp85lQOw3pohW2TB2aoCkyoMfrDRP3LoSHQciwQY96ftMKaBtlmbRAs8+CJBDhixkpytCPfxvZnx61PAhnUVR0RGOChn4VwFq8EB2bSILqxyKYK5asY8Maw2xqic0f+E1MGntqDhgjfvufkdE4Wz5KN/VgP4MNYVBb0tPdZicv+dybG0ZBwVj6jIHteq/Xun+ujBv7saDLejvNdVQtCPrVl307oPlbDrvUrGb+DM9JqqbUKGUeD0BD4rFXcK1aFPjlBP1hCj2Oxv+HrCtC4uZv8sk9uRFmgT+siPuO5chFqgSLFAlEFiHLPYSzokSu4RAWowgoRQLlQBLd+A9CPJZDdcgAUF8zpjfgUr8tr2a6B1TtNVU/8dNplp9oDCLOCU35HlmwrbcW/qsRlAEkAXkU5XxvCpw5e99ceNvYxfuHpCbW3vpClUFjEHwNpSApUQ+HlOqWeIxJtijEfEv6yLBzOuQaEqbPLQTOCpY28vCWTIWomMKh0UIZg5AtGCalDD+N4gNCA/4vzBTAa8ZH4g9HlAs84DIsdh607ls3D6+OFo/cX74N/43FkpsFjvCYTHjM5Uz/Z2+z9rGKwuC9Qe/I3X7x/BNR1lcK1WZg8VqRUnHKdyWcQv2tMnP/8pKf4+pjt93nX0+Nhj66JwHXMJjhvFUjVREe7Ao5E2p3MhKA4vWxzEsSBHIpRLA5QNRwuLFgQAZ3cQqk8wuQu4WLNqMXwu7gTvkgGMwfW91iWHzdl31zMSCf7XsuQrBrzkTrlRgDlkHeOfgPNRpsm9sKsaqKgNFMn8MKQmwxA08mAh4PPS4SZJgCIAnA3mSCv5b5q2cKjbqQV8zbXE4ZPJECtzzoU40xJNgChXEBMQqDLlWCR5K5Rlfd6gI7s9IrEqyHdEC7i9UyduXvq9UwLsrP/tbjxnC6Fv7rfvhkk7Lju/GQw8ixtogPPvLu67Q7h22SZj00e62eXWQW1VTQHgMhiXrfA3/gCschGYqL1jgxcDqE2J8CA4lzGc9R18v7YGQ6S+adNZIWbT+N+oHhXZhMzITW1kZS+kHUhVCzCrKQ4KbGcmSq0QVGrSl7yUV8d6Gz69sN9nvi69HNA4mxppmDmrZc7U86oPQS/P4z13093MmAMZgVHAuiwlZKFwFwQKjA1IYIHk7LLlepK9zRuF3yfs3nfe+hz/sDggG4g9+mH4gVaEiQHKbFeEvxi8Hsh+nr5/KGDYn5Ok6nV/Vqv+63yAYzxZR1wZzSLrCP4bnfT18jjQqVIdJoLWBokJHpyh4HhWZiU9EUkUFi5fkTMnVJtUOmMXAFta2+A4d1UgIuPut/9/emYDJVVR7vF9meu/by2QjMfJQg6BsIgoi+hCJC/L5FFBQMSKbYGQR2ZEHQTGKAdFAlB2VR4Rh34YkkHS679oznQlJjIAGRMEA4WWZ6b5r90y9+tedEFMzhJnMku6e+n1ffZN036WXe0/XOXXO/9xXl6sUFBTOXnXPqs8dfWFbL9PZEg1bR2n45TVQBP3GT5evuPOptR/DKi7/fTQa3Xrwu54S7kWuVL97Z7ADhdJavAB9OjcXGh8GaxuWHn+53wcyyAEf2tSipKqkSYm6gJ4mvdxdCP2CP0c9ctnthc+e8ousfuicx4gIyI/0uJ9VHXzhkiWb5izQb2pVXtqT//wbEbiElhG93lbDt0Oyib+fBjsws0KsGKlIpEbreUcNS0+ex38ggx/UD9eRcOrr9tha4neNJDJ2e9vqGWdcn7t51kVtW32BQGG0hjO2udkfPesR76tXL/vr/PvXfnt31gGONWjg4hrxssVKdwZZTTLAsCFIQI0WCporRuZT/HkaGleJnsh/IIMdfg5XilgKEkNbiFMILuCP3wj85qHnjvrqlUtXISAvXMRdHSiveQB1gD2X3FZc2Lr41Rb+c250qnL6OKT4lJDaMIygOypRKnALkaZktNR8Pe+IYhYyr/AfyGAHywdBJbgWhmwyMZUJDWmwwNnz1SlnXp/PHnlB22bUtQmjNZRxP9n3uw+R469e9uJFtxQubc1uTPCf73jAWyHdgxivhQTrYRgsVj2C3EakJBnJVbba9G3+XA3Jpuf23M+TUy7/gQxloMiTVaSjaFpOrLXVdEO3Izr/JuOEWRcvZjEYMdt6t+EH1j906kPkxJ8sL9695MV9+c9zPOEZmXv8lXn80A9nlRCJ2DFSzadIGeoMclgh2UDdVQIMGbPzvdOrStjhPxCmwYMppwyRMT+rlhVXYrAM274s+QEUEul4jj9PQ0HIf9y5+MWDzr5Re+Dj33+c3ZD+jIu/Wcf3YPEq+rkcdcHTr/7knlXz59ZRHeBoUG6P72Er8TzyH/1mLmHqmaBnQobNlFg7r3zkBZIL7E3aAmE2lIBkK5EO3I89EMxUEb9i+lbPl+EWyklWUtetR8lbdFv+nA1HqT15jTNgjRPKdVBMCV+Z/hsqowoC7PRD1v1MdnSDtthqRb/xZ/48jcgld74g/fDm9u8fc/nSNz74HRGQ3z5gqO4nB57xSOWU6/IrT79BOzibJY2jcLkLvLE6ELeN+BLU89pGXw4WdQvdvJ8A6ijhjbbRkifa9H4zUCvX8l5Xn3qSXZDaTS1SRe9CW5tAoCTqy5aHiUXdTKif8vs2FNR609lVULfUFt7g9CV/0pkVpGCoYbLVidRQZZh8TCXvz74cJUU81sJ+fBqsbVx5+8oPff2a7At+WY9/s45H44XVP4yZs1uhBkrOX6De9vCzzzdWs4NdpKw1/7yST76FBSpbS9FJABarJFKixqakJpaSYmBQK6U9WuqWnjzusSRBtrylhJh8FGRsLD10Ir99Q2EZE7M9Kwb2pdEym7p8PVYuvtLSmo7b3JHYf3NHZn9TT/+3pzS/iRUOSLa6Mi83w4bj6skrB/slNAKX3lrc8+zf6Fcfft6T5Q+wZNPxZbS2uX8oWj7uqmfWX3izOrv1mZdS/Oc0XnG1yM+rStrBj7+nQsYpRUyteYOdS9zXpSUHvVoKfavuwpSLy4ZUdJVgF/N0FMg7RSFXjv9/lt+nYbCV5N9YPgdmS7zBYpIwwdv5fUCpPXGkZUgvQHAf7ev5fTHQw7DbSNeUMsNYcM5CYw51EcmHT4VA4HiJa/nG6uDvPUK+8dNl63/78Joj+c9lvGNTg8VWBw02EaD3iPTYptWBT/DbDYWqHFyK+xeKDZaMVUcE4WNf4bdrGKp56W8l6kv35pOOrUoutK2qsp/jYampf7zVOekdG0yQ1VPjUICglv1FCPNZ1K9mXT2QDIckUjpDo1PWxfx+jc7cuWTCjY88v9fp8/NPHX7uE2Tv2Y2ct9W3Akhd4VkXt3VfdWfHgrkLs4nxUF4zFBxZ+qCtphzMgir5SK8lpy8kbTOHrUJBlgTiREme7OgTu03V7xvqqqHGNFiu1vJ1OhMqIfAHxQa2TGqgLbZUtmXpVkuNHs7vMxDljvgsV0v/0VXjVcto7mExLWhZq6mSk4u18duPF+YuKk669Lb2M4+94hkLAfntsS3+pq/fgYYQ+5/+cM8Z8/PrL7tNn9WaXTcuc6t2BlkXCNlq062OjJX1SIXec0v5bYaL0zFxVkVJ/g81WC7JpRqrKw4gyiSpokhP2iqWVLG0miAWVgKNxCrruYnv4bd/N8i6/ULV5bE7PDmxyaS+eUWGqil1M+XIuJth8Vx+h37Et36W/efHvv8Yy/JulJkWjPDRFz5N5vzGuPOh/CvT+Pct8CkZLSdQN61UoW5befmEUZWBcdXIH6mXtLGSi/wX/1xdYyvRPVmGLAvYUfctn+ky87EzrPboe/ltBwuRUxk3H1kE42czGWZkvye32oZ0Gr/teGPefc998LT58lzqIjozG2CWhcD6MZcvWX/tvWtOFoH1nbOhOD1W1uJf7Cok5472ItRWeg/ahdAiVw79ZYse2It/vm6BwYJ4mKumUURZLnVOO4HfZlcgf5sZ7u7IXOJoqRzKdSw9DgG/Cr/dWLPpuT1qYrn3hwsLl5x0bfYtZH3XWzdq/7W2kkN/8DiZPS9XuO6+1cMKGAtGB8TGHH3qLP7xusYzJh3CstbllryrTz4Jkhf8NsMBLueW9gnn0alpEUmn3XrwV/w2YwXRmi+2jfRy/vHdQWsraUJs69vz8k8fcd6TW5CvVOuxrW2vDwJ7n/1R27/m/NqYs+B/a6d5qaDBqeQjR9pq/ElXDnxrtFP5qZs5rbpicq6qxm7lnxsLSqsTUzw5tbashvOQ9eCf312g+8uP71r1lVmXLK6ipKdWc7ZYIih9bfue8gA5+WfL19780JrGio0Iah+iZ44gHdI+/OONiGe0nOqyBQCJuLng72vJaIEr7ug8+ktXLH38kLMRkEc9Yq0E5X0ZmL1nP0A+c8FT5dnzlt/Wml0/k3/9tcZmQ/pUaUXzUfzjAkFdYGsTv4NFABgs5Ir1rJh8Ob/N7mYuda/OvEG7iRqtKoLZ/Y3H7hmQLT7qwrb/+/mfOs++uw76AbpG5kBLT7xu6/E/8c8JBHWBaWRk1lkEYv1alJS0ib/mt6kVLr+j45Ljrl62zi+i3l0BeT+wjjrAM6/PLZ6/aOWX+ddZq1Sy0U/19dkUBktQf5jF2DRby6zxq9lZZyBiK6F7+e1qBWSHX3x3+x7n3qSv+OyFT2/d3o16LAyXH6vC6uXxVz/zjyvuMBbe/ciqNP8aa5mK0vypihpZXtKbl5Ih1OYJBDWBl286Ex2nIfSPRhkOSo70yPrNHVP357etNX60sPCdoy9qI3szF3G0DZZfXvPh7z5IvnXt8pdveaw+A+tmMX63ozaTqpwi1VzsQf55gaBmQTmEm0/3VKmhspUkm115WhozLOoypOfy29civ1zUecJp163Iffz7jzKj0t/QDG984O1/308+f3Fb948WaosezNanGqibix/g5RNv9uYzxDRC6OK0kd9GIKhZWP2WFqEXb5h1xsVKIWuJhNVCRXqd375Wmf/H1VNOuW75Imq0WEB+5NIffBdwP+oCfuaCp7p/fm/npU88UYzx568HykZ8Kv1O18P1t/qE7Dw1IgyWoH6wViaO92VuoMy4TT8bZUgRSNLWjcHaxrX3rLziq1c9+5IvENg6rG7UMFRIoTjozEfI927MP3bLo2u+xJ+vnrD19F42FDiVKJ1ZxVknGUeOlrcWpjauLpSgcejSpx5ma9JGj86soJrqqWG2Sgjda/wCu1q87gwWuOx3q/Y660Zt3qE/eNzcVbkaGCvM1I69fMlrF95inL+grf4z1n2Dta2DMn6YIN8dpSO+yZHDH+S3Fwhqis160zGWNoGgOt5W074iKuRuoBWksMaTppmXvsrvVy+c9Rvtos9fupjsc4rfsWcwsy2/vKaV7H/aQ+T4q5Y+f8OfOo/mj1uv2NnIXo4yoEw3GqTM57cXCGoKU48dw9xArZmJ80PqGaqMVSXRF8tC95+w5+ZCddneGwKBX5+bTXx7Xm7pgWc8TAY307qfHHHuE1uuvKPwi7l3ZyONIrAHRQJPiXUifuXPrjiDpcQ7+X0EgprC1TJLsDJoM/VFtAKPsIYZroqAe5SUDRitNPHk2CH8vvXEFbcbU+cs0JYcfu4Tpp8h399w+YH1B3s/d1Fbae5d7Vc+UdxQl4H1d8JWgqdX5TBx5G0u4Y7D0jOr0SqL308gqAkqzzZ/2lMiJRdBWDXMWiBBSbWiSKRkhPokZOEihomlhtqJGvwIf4x64/I7Oo745s9WvHTI2Y/6rh9WAE/2O9cc+cMnyZxf55/+/eJ1+/H7NQJEk06HGgidVbPvmTdYyL+ztOj5/H4CwbChM5+LKrlkZ1kPdbp0mm9p4U5LjXa6apj+P95JL8B3H0r0TTSa9N0DdALyL2IYKX+10G8Q67uFeC76ar9jcAPnh2vh4PVoQep+4LUkOl36fzef0rry8S/w72WsufGhNe8/c/6KeYfNedzbmxqqfU55kHzpssUb593TcdZdbZ2T+e0bAUgiuWrz1dV8lNh6ggXa8V3vMGT6Q6VGX9tktNT94oKgxiitnfEZOx+fV8mnN/jdbeMsDQHB8rLWf7o/VsPS0I1EImzVEfLP9LGKAmOYJN1q/FL+fewu0Kj0hzerC069Lku+d0Pu9Rvuf66hlV49NTmbzaCMBP0RGsBY0UHdfjbT3ioHMvz+AsGwIa2BprIxZWpZiz5pycktrEEGdecqSrjfxThWoyrHXMzUXA3tmfBYeoOlp+7rLk6fRLKBmupm3Nq6LnT9ouKk3967JgOxQP75WuCN1YkpXYXwsdV88lhq9I811SY2nAL+HR5gxPoNOptab2thByvBaNVu6f37amLY1F2sKNJmU2layo6V54/9zudw8Je+xi49fExlWerzZnvs4/x7EQjexs3FT64ooYqthyrubpxhuYrkN79U4j22GrRK7dPqstauVnirGJtmGeEcU7xV/IReljeFmk/Nn1nzA2kp/z5YKzkjzJJFq+ifqcbQjaaX/+7wvblK8v/w3TlamphKYpOtShZ//IHO4fclSJKSEeux8yHTLMSO5d+LQLADpjr9K/TCe9JmLlh/YzIWw2KxsMzKcod0Mf/66gHybHyquzxRU0F3NGPoLrTcUlabFiGpt5JPshw5rObyAwsl/DDZgkqcznhT1LggBysi0+9qC//dOZrESnWQ3mKpoR76w/c6kxrqdx64+TsOT04TTw2SHmrknI7w5/j3IBAMiCcHDzHVyF2uEn3doW4Zix8pGXoBIoiO2IVEL8wYc9k81lG3v9EZ7MDxqjJuCD925iixrrIROZXkWna5m9DupksJfsLS49fVmtoqoC51pLs9Op+6YBXEo1D/iXrPChZF0CdThUGC4eFGX0a7/71tX1zpP7Y9jm2jva4a7+6/Da4dSBBB2QPJxTg3NNSSG0p64iYiTzmIf90CwbtS1uIHmFryJUtH84yQb6Dor6PNguH0otPx2PBiXYiFsBwunf7qUsNVak/ezL+OesORp8+qaFNUos2I8s/VCp4+5VcWdcNcuGLUuFisrCrCvmP+OxqNgRmWRa8f5qLqMWIWIn9286EP869TIBgSqA2z5fB6R5cIEgZdFQZqW4IovfiGe4FD7K9Aj5uLb6ouD524ufj+uu+5V9HjBUuJuJ4aqNmgMdrD2YUJc+mPRK+H2RCC6AokgYY3Yx7scOUkdf/Q9Tz+qqVmXjA7J03nX6NAsEu4xcwBdLp+jSNLvYgvYdmaTellGK0+w7WLAzeLqwZbHWVKQ8QsNsvhL1eUcFep0Eyq+dQD/PO1RlUNzi7rkbW2DNcsjqTPft/RaAyLzqidfDP9wZt0a7cyaVw0aBHsBix9+kJTjdtwBTGtd1gyaP8LctBDn/Qj/hz1yoZiIGapsQdZ/hhLmpUetXK73tl7LKmuih1ra9KT5hgZLFuNbiXKtE/zr0MgGFHM4n9Oo7/GBUtNUBfRD5zyF+M7DQTtWYAdgXw5Tf/GHiENlBFtZaMzLDlCXIO6O/mwv1wvS3XTVALfRVkN3UVnzb0ssE6NV3VFgpTpbAjpD/z3OdhhqyF6DLZ6aLtG8J+2kjiKLIt+kj+/QDDiuB0tX/PoxWvqMD6oHxz8LzLcjR45RS/eJkjOUIOVqfsA+79DjOgMpAqYkIfOI/E1RGw9dju/Xa3jGPFfVtTYv0zWri3J0hreeVXw3YerpEgvVDvk6Hn8uQSCUcVVopdVEevQg/RCTrNcHv4CfaeBX+mKDFG/IORm6DFSD5J1kxP8OeqVLrVpEVIz2OobM+ZwmzObthYC7+O3rWVQTYDFFicffxmxSv/725bSsAuDpUZEs6SYqfsFFUEd0VWc+i1qsCpVlpOFVSWs9AxhlZC5SCFW0Y8SDpMaPasjeih/nnrEUoKfoDf3azZKiVjGtkRnWki6lKyyFq7Z3ow7w1KT53rIiIfU9TAMFkq9uvXmK/jjCwSjiieHf4vmqCa9iOEWYhnc127vf5G+00D+lkdvAJaEyrTAY3/ZZMys+zgWdY+/4+qI08WpO4iVzwidQaL7NZ1laS31abD04LkV6s69U6HzYAfqUit6ShgswdhC8pN+C1UHzK78WsO+7GctQmwZWu7oloOYR4zl8+DmrfRlx3sIRrMLGDczWyXCKhqW0m1PTp/Kn6veoLPNc/x4np8ewIq32b/pe9Uzf3eKUz7A71PLlNsn72FqsXX4LlmPyWEMD7NNJSYMlmDsMIuTprlqSOMvRjYw06KzizKdfVmGH1y3qOEichMruTFRX6Yjk7r/vqYWIj1a9DL+fPUGXFz+vTGjTGeRJuR6jCmz+X1qGUfNPGqpmB2F/HKdIc6k+WHrsbtIdq8Ifx6BYFSgN95JkJ7hL0QMqADYBkp2EmY1L7Xb9OZ0ClMXkFzogKqWXI86NX6fty9kDS5i0wIU5/LnrBfMXOraygA3tIX3Jod7HU1yTDWk8/vVMpYxeSGbIaN79wDf21AGK6RX4pajZ+omxUNQ51SU4AvbWzvtOCzUGOqhysZc6KSN6/bbYdXPUQL79MgTrmQ9Cge4qWHsIPrWvTJVl8oMwFQif8CKIP/eYOCpwepx1NRmNyet4ferZbZo0UctPUxfP2JY/b+3oQym9a9AoqZpGX8egWBUsFVqsAa4GDE8OfGmsxPZYrIqna5SF8NVo/0q9/HrDYNlGrGl/H71QndH8A+4sfn3xhYVUMIEJQo1/srGlTNm8vvWImY+MM2Rw894rKtznLn8/Hsb0oDh1qBiGxQGSzD6bDVCJ5hapMR+aRVU9yMHK4wqf8vW07dbWmBQWcuOHp9lKqmH6QXcy0TcsGROZ20wWqbaMqYGC9IvJDs5QZSARJRJElkyNY6/b9H/84M9v8PY/pilBw+ztNA/PFnqJ2bnZ4v7f2G0SvrEH5O2meG32Hl2HP3P0TfwGunY/jro31FWXbW0aNZTYl1Q5nAUiUm/oLmICTkY+m/qJvZU5Wg3fewsapSPx6CzqFM8Oe5A3pqFCDTko/kCgayVPYrkZWmjo4W/yJ9PIBhR7MLkKywVsslRYlI3wc23oHj1uXJh13SLLL3lBkeL/B1L5p4SIr25ELKgn4f7yG87Wpid753uqpn70PTVy6dJNZfcgBVNuLdIuaDGlUneML0opv21fbA2ZuzGxc0ZJK4OdzBZ6m+wMPyuQShPgYyLrUk51BmyInJ0ntERx0NW/I7nYAmbWrLT1ZNlS4u7lh4rUbfKdY2o9ubaKQfy72ckcVSp20NTXKWFft8hpiIKg4WUFmp0/mJqsWv4fcDWzsjRdj5yH4wVYl94D56cJFX6PVtKMz4j+sOESofILH5fgWBEIGpgSjUXe7VsQDsJelipLi+fOcdWonvy2w4WdF8p50IHWHr8dawo4gbFr7enZP7GbzuabC5mUpbS8gl6I23ACidW+hBv8eNt0tt/kQT678PGqqfh60ix1Az83UlNJZuhqFhcCLMmH9uP7w8/vWPHwVZelcjrjhJ9y9VCTkVJvEFd6q+R4qRp/PsYaSpKvNtvy4YZIl5vss9Qp/5hFyI7zdpHAbipBj5uqaHn8fm8neahJZ6nhs9GSoupBP/A7ycQjAgkG53hi63RGy8be4QUpoxYy/lKIfJp6lq84QfjJfpLnOzhtxkLyvnAgV4+9rLvpvp5R8xdhcHRMANCJ+vtAzcdS4ZUm5ghggDhQCuofouzbblZmE0mmQAia67BjgNjAEO34/H9gdldGGU+K101/Fp5RWBM5He2qIGvUEPpsgRYamiqeWqgZSTBxl901yUGLbBHZ4cz6Y/bmh7ox+t0diUnVnpy2IQhNjVJGCzB6FDWmr/o0tmEqUu/J08ERrSLMeJIrpE50CymlphaqOgqod1isICjSPtYanq9P8NB0ifcvj7tcRkuzvbBYjTMZfLzk9jsY4CaSsy8YNAgjsfcQbhV0FOHGyrD6FGDoKDLzI7H3zb8ioDgm6bS9CX+9Y4Gnhr8iK1GTCS7oh6SznhhUEvdhnRal5Zs4bd/N8rPxqeWtfAS20hsZTru7AcBs/TkM11aYMjHEwh2ir1y8qep6/e6q0sPEyMwquUzJBvYw9EmZ/nHxxJXm3qAqSfnUpetghmfXz6ETG3cvEh+pMZJh7Hx9c/90iTEajCLGqh8xc/qR22hH3z3ZVpslOyoSBeAgisKpf1qAPT7K0PhwW/SUHH15D8dZeyaMXRpwUMRZK+qUOOIkLIaqZSMCT/gtxsqtpI+hbrQPVhcYZLM9PMoG2P3vgTjhO5c8yctLTOff3w80G3EbqGznFcxE4K7Z+kpwgqb+1IV+hunwQ3csK4epMeBK0iPA718Jk+MsqYoqeQlq6q03GEqYy8ZbGnJQ6lxfsNWIi9VlcxN/PPDwSpMOc7Nhdpg7Flul556ld9GIBAMA0uVDqeu4Sa/q0uM9MgoZsaS/a4bLKSFuCiOZkm4LD+LWAoak4ahL1Yy87Ez+NcxFmzJBtK20vQUnf28bGrpg/nnR4It2XTaLkh/tNXgxooSM62OPb7GbyMQCIZBtxb9pC0nbmE5SWwlEOJ8wzBYrHDcT5eo5CLUCLLV11fcXOLqkhI4nj//WIA8MFtufrZHSa/yxqDbcrmQPmhLIXwB/7hAIBgByLpACMv5ZT1acJn4IG+EhjAUuIUoBEfAPUVMdcIrZS1wAH/OsYS0Bpq8jsw5rjG6+V0CgWAMQe6Zp8SKDlsdHMAYDWJgBRKNadkKoxbZaGqBUXG/BAKBIIDSGJvOsnhDNKQBo6UmkVX/En98gUAgGDHI6kB8OM1jsaSPdAekLrhyTBgsgUAwelSVlhNdGSU1/Y3RYAZLoGR67wnSo0Q2deuBI/hzCAQCwbDB0r+TTywbjsY5suRRo4eiYGR923LwVtIWCPPnEggEgmFhqrEH7DwKgvsE7ZhWFEp1MHOCMYLL58ureDnkbCXZ81CBYG6kFmKFzSi07s2n6N80mnAQOxvZiz+XQCAQDAtTjWz2m0vsOMPyaw99SWRohSH1wdEgoxJEzKqXGq0t1JBVkMqAukHItVRlyLaECTpg2/oee/HnEggEgl2GrNsvZKmJLWjbjq7OaFfm1w8iAI9M+BCdTWW6bC1menJks6dENluq5FbUZK+nSFstFbWBKeoKUoOlQl8q5XfCRodoJbQffz6BQCDYZSwtfb6jRStlJHzmtwXdfSVRGC/oaHlKaAtZPuOwbfu4WvKb1Mi9xKRoMAuD68hka6DEiWNE6UwrQkpqcH2pXRgtgUAwAnQXJ+7rqak3mTIDkwz2XUGbyUTTfyMWpU/cbOnRE/l9y8XMAVvbpTW2krJ8iemEX5qDWZYa2woDhsJnWwmezu8rEAgEQ8bUggdDaM9S0SSWGhsd7l/YF+5DTEtP/qmq73EMv9+/Yxvx2ZYWziLgXqUGymKaWC0v+PLKEVLNScJgCQSC4UNysYN7WMFzihoW1rr9VVNr3lpVpVdcTdqXZAODahD6xupAnM7KltGZGHGMKLGgl55HqQ4MX/LXkI7m9xEIBIIh4cnRwyq5JDF1BMzRASb+spWLrTL11EehmspvvzPMYmxaqSCtsHMRhRq+9WUm6IfjRggpjqyiq0AgGGd4hfccZBqp19BNp4J0hLy02dZi6+xcYKfNGHYG2nRV8+EHXC3ajbZYFQj3+fLJ9/LbCgQCwaCA7Iqtpn7mqC0VT0tZppz4i21Mm+10pN7PbztU3lg9Ne60J7/oaC1/tfS4hyC+p2Tuxzn5bQUCgeBdIdqMaEWPPuzIsQ0VPfLjwcaqhopTSJ5jaqmiqybWOkZ4b/55gUAgeFfQbblba37IVGIf458babq0GS3URVzj5JNf4J8TCASCmmNrIfA+aiTHvPmEoHb5f/Y3IUkyzaWxAAAAAElFTkSuQmCC;fontStyle=1" vertex="1" parent="1">
          <mxGeometry x="1130" y="298.33" width="84.48" height="81.67" as="geometry" />
        </mxCell>
        <mxCell id="3R0D6cxO1X3JCbrjLW3T-42" value="" style="endArrow=classic;html=1;rounded=0;" edge="1" parent="1">
          <mxGeometry width="50" height="50" relative="1" as="geometry">
            <mxPoint x="280" y="1064.5" as="sourcePoint" />
            <mxPoint x="360" y="1064.5" as="targetPoint" />
          </mxGeometry>
        </mxCell>
        <mxCell id="3R0D6cxO1X3JCbrjLW3T-43" value="Current situation" style="text;strokeColor=none;align=center;fillColor=none;html=1;verticalAlign=middle;whiteSpace=wrap;rounded=0;" vertex="1" parent="1">
          <mxGeometry x="370" y="1050" width="130" height="30" as="geometry" />
        </mxCell>
        <mxCell id="3R0D6cxO1X3JCbrjLW3T-44" value="" style="endArrow=classic;html=1;rounded=0;dashed=1;" edge="1" parent="1">
          <mxGeometry width="50" height="50" relative="1" as="geometry">
            <mxPoint x="280" y="1104.5" as="sourcePoint" />
            <mxPoint x="360" y="1104.5" as="targetPoint" />
          </mxGeometry>
        </mxCell>
        <mxCell id="3R0D6cxO1X3JCbrjLW3T-45" value="Upcoming situation" style="text;strokeColor=none;align=center;fillColor=none;html=1;verticalAlign=middle;whiteSpace=wrap;rounded=0;" vertex="1" parent="1">
          <mxGeometry x="370" y="1090" width="130" height="30" as="geometry" />
        </mxCell>
        <mxCell id="3R0D6cxO1X3JCbrjLW3T-46" value="" style="endArrow=classic;html=1;rounded=0;exitX=1;exitY=0.5;exitDx=0;exitDy=0;dashed=1;" edge="1" parent="1" source="3R0D6cxO1X3JCbrjLW3T-40" target="3R0D6cxO1X3JCbrjLW3T-38">
          <mxGeometry width="50" height="50" relative="1" as="geometry">
            <mxPoint x="1130" y="362.5" as="sourcePoint" />
            <mxPoint x="1180" y="312.5" as="targetPoint" />
            <Array as="points">
              <mxPoint x="1220" y="338" />
            </Array>
          </mxGeometry>
        </mxCell>
        <mxCell id="3R0D6cxO1X3JCbrjLW3T-50" style="edgeStyle=orthogonalEdgeStyle;rounded=0;orthogonalLoop=1;jettySize=auto;html=1;entryX=0.858;entryY=1.05;entryDx=0;entryDy=0;entryPerimeter=0;dashed=1;" edge="1" parent="1" source="3R0D6cxO1X3JCbrjLW3T-33" target="3R0D6cxO1X3JCbrjLW3T-38">
          <mxGeometry relative="1" as="geometry" />
        </mxCell>
        <mxCell id="3R0D6cxO1X3JCbrjLW3T-58" style="edgeStyle=orthogonalEdgeStyle;rounded=0;orthogonalLoop=1;jettySize=auto;html=1;entryX=0.5;entryY=1;entryDx=0;entryDy=0;dashed=1;" edge="1" parent="1" source="3R0D6cxO1X3JCbrjLW3T-39" target="3R0D6cxO1X3JCbrjLW3T-40">
          <mxGeometry relative="1" as="geometry" />
        </mxCell>
        <mxCell id="3R0D6cxO1X3JCbrjLW3T-59" style="edgeStyle=orthogonalEdgeStyle;rounded=0;orthogonalLoop=1;jettySize=auto;html=1;entryX=0.5;entryY=1;entryDx=0;entryDy=0;dashed=1;" edge="1" parent="1" source="3R0D6cxO1X3JCbrjLW3T-33" target="3R0D6cxO1X3JCbrjLW3T-39">
          <mxGeometry relative="1" as="geometry" />
        </mxCell>
        <mxCell id="3R0D6cxO1X3JCbrjLW3T-60" value="will deploy on premise" style="edgeLabel;html=1;align=center;verticalAlign=middle;resizable=0;points=[];" vertex="1" connectable="0" parent="3R0D6cxO1X3JCbrjLW3T-59">
          <mxGeometry x="-0.505" y="-4" relative="1" as="geometry">
            <mxPoint as="offset" />
          </mxGeometry>
        </mxCell>
        <mxCell id="3R0D6cxO1X3JCbrjLW3T-61" value="Sentry&#xa;Error monitoring&#xa;Performance profiling&#xa;" style="shape=image;verticalLabelPosition=bottom;labelBackgroundColor=default;verticalAlign=top;aspect=fixed;imageAspect=0;image=data:image/png,iVBORw0KGgoAAAANSUhEUgAAAbUAAAGQCAYAAAApy/5YAAAgAElEQVR4Xu2dCZRcRdXH673u7AmEVUCWkIRsPROWWUIEJIB8gAqCOpmZhCWCuyDqhwiiEBUFxQURFfhAloRZGDSAbCqyqBgzSxIy0yQDAQIioMiaPel+9f17CDqZTDLvvX51X3X3f87xeDRV99763dfvvqq6dctR/CMBEiABEiCBIiHgFMk4OAwSIAESIAESUAxqfAhIgARIgASKhgCDWtG4kgMhARIgARJgUOMzQAIkQAIkUDQEGNSKxpUcCAmQAAmQAIManwESIAESIIGiIcCgVjSu5EBIgARIgAQY1PgMkAAJkAAJFA0BBrWicSUHQgIkQAIkwKDGZ4AESIAESKBoCDCoFY0rORASIAESIAEGNT4DJEACJEACRUOAQa1oXMmBkAAJkAAJMKjxGSABEiABEigaAgxqReNKDoQESIAESIBBjc8ACZAACZBA0RBgUCsaV3IgJEACJEACDGp8BkiABEiABIqGAINa0biSAyEBEiABEmBQ4zNAAiRAAiRQNAQY1IrGlRwICZAACZAAgxqfARIgARIggaIhwKBWNK7kQEiABEiABBjU+AyQAAmQAAkUDQEGtaJxJQdCAiRAAiTAoMZngARIgARIoGgIMKgVjSs5EBIgARIgAQY1PgMkQAIkQAJFQ4BBrWhcyYGQAAmQAAkwqPEZIAESIAESKBoCDGpF40oOhARIgARIgEGNzwAJkAAJkEDREGBQKxpXciAkQAIkQAIManwGSIAESIAEioYAg1rRuJIDIQESIAESYFDjM0ACJEACJFA0BBjUisaVHAgJkAAJkACDGp8BEiABEiCBoiHAoFY0ruRASIAESIAEGNT4DJAACZAACRQNAQa1onElB0ICJEACJMCgxmeABEiABEigaAgwqBWNKzkQEiABEiABBjU+AyRAAiRAAkVDgEGtaFzJgZAACZAACTCo8RkgARIgARIoGgIMakXjSg6EBEiABEiAQY3PAAmQAAmQQNEQYFArGldyICRAAiRAAgxqfAZIgARIgASKhgCDWtG4kgMhARIgARJgUOMzQAIkQAIkUDQEGNSKxpUcCAmQAAmQAIManwESIAESIIGiIcCgVjSu5EBIgARIgAQY1PgMkAAJkAAJFA0BBrWicSUHQgIkQAIkwKDGZ4AESIAESKBoCDCoFY0rORASIAESIAEGNT4DJEACJEACRUOAQa1oXMmBkAAJkAAJMKjxGSABEiABEigaAgxqReNKDoQESIAESIBBjc8ACZAACZBA0RBgUCsaV3IgJEACJEACDGp8BkjAEIFUqmbkUKV2TSh3l6xyRyWUtzqrvDc2KPV6Ot2yxpBaiiWBkibAoFbS7ufgoyIwbfzsnfTQzPuVcqZDZiX++3DlqJ22K1+rt7Wj/4p/b9fKXbjJSTy2bNm8tVHZQzkkUKoEGNRK1fMcd94Epk2dvW/W8+pdpU5CADsmX4FaqYcc5T2gPa+hLd3ySr7y2J8ESpEAg1opep1jzotAefmsXYZ4+huOo7/gOM6QvIT101krvc7R6uq3Nq+7srv7ntVRy6c8EihmAgxqxexdji1yAtWp+gsxK/sG/jMqcuF9BWr9uufoy9o7m681rosKSKBICDCoFYkjOQyzBKalaqZoN3kbtFSY1bStdK3145msO3vJ8obnpXVTHwkUGgEGtULzGO0VJ1BVVn+x46jviSvurVCrDZ6jvtTe2Xh9rHZQOQlYToBBzXIH0bz4CIwZM2foHiM3tGDf7MPxWbG1Zq3VzW1dmU8p1ZK1xSbaQQI2EWBQs8kbtMUaAlVldfth3+x+Rzll1hi1xRAEtoVJnfnwwnTL67bZRntIIG4CDGpxe4D6rSNQMbZmZ3d4ogMztHHWGfduYFN68aurhx6xatUtOMvNPxIggXcJMKjxWSCBXgTGjz9pyC5DR/8Je2jV1oPR6v7Wrsbc0iiOuPGPBEggR4BBjc8BCfQiUF1edxd+Fh8pHCj62tbOpvMKx15aSgJmCTComeVL6QVEoLq89itKuT8qIJN7TNXKO72ts/n2QrOb9pKACQIMaiaoUmbBEaguq6vEusVCzNKShWY8zrFt9JxsVUdnS2eh2U57SSBqAgxqUROlvIIkUFVe/wx+DGML0vie6Zpe2drVdFDB2k/DSSAiAgxqEYGkmMIlgIB2EX4IVxTuCN6xHNkiF7d1Nl5Z6OOg/SSQDwEGtXzosW/BE6iYUL+7O0Q/j/Nowwt9MLlCyMrLjmOF/0L3JO3PhwCDWj702LfgCWAv7TblOGcU/EC2DAAHs+e3dTUWzXiKxS8chxwBBjU51tRkGYGqVG2V47qtlpmVtzm4j626Ld3clrcgCiCBAiTAoFaATqPJ0RDALG0pZmkHRyPNIilaP4GkkUMssoimkIAYAQY1MdRUZBMBJId8Ag//r2yyKVJbPPWp1nTjjZHKpDASKAACDGoF4CSaGC2BVKpm5HA38SySQ/aIVrI90pA08uo6Lzs2nW5ZY49VtIQEzBNgUDPPmBosI4AK/FehWPEFlpkVuTlI8b8aKf5fjlwwBZKAxQQY1Cx2Dk2LnkBFWe24hOOujF7y9iUiuKzF4egnMTMsR9WSoZK6cena5I7OxhWSOqmLBOIkwKAWJ33qFidQVV6XuyPtJBHFWj2SUepLi7sal72rr7Ks7mxXOT8XC25a/x5JIyeIjJdKSMACAgxqFjiBJsgQqCyf9UFX6ftktOlFqJ5/eH+6egKb49wkY4dSnqc/0p5uukdKH/WQQJwEGNTipE/dYgRmqBnJtWV7rZC5+FNns7gxe0fLflVl9Y/izrajJQCg4PEL63T2ICSNbJLQRx0kECcBBrU46VO3GAEkh1yAgHaVjEL9E8zScI3N9v+mpWqmaDeZlrEHszWtL2nvavqelD7qIYG4CDCoxUWeesUITCurfw9S3FfioPVI00pzqfRvb1o3rrv7ntUD6apO1V+oXPX9gdpF8+96/eZNavyS7qaXopFHKSRgJwEGNTv9QqsiJIDkkJuRHDInQpHbFxXo0PNct6qseyGWIatFbFO6ATPI2TK6qIUE4iHAoBYPd2oVInBYWf3UpKOeEFEXojzVYWW1kxPKSWNpVOS3yLqQIk8ClcRIQOSHFOP4qLrECSAhY5HUTChswICN/wcbPyniqhCBV8QuKiGBiAgwqEUEkmLsI1CdmnWmcvWtEpbhgPXtqN5xehhd01M1u2bcZO7m7dFh+gftg32/z7R1Nt0QtB/bk0AhEGBQKwQv0cbABKbvWzMss0sid/mn8fqOUVzOiaSRs5A0ckvggYbr8MZaL7M/60KGg8dedhNgULPbP7QuJAEkh1yJgPa1kN0DdcPFnF/HxZxXBOrUT+Pq8rqFSjn9HtjOV3bf/ji7dk1bV9P5UculPBKImwCDWtweoP7ICVSVzxqrlF6Bh3tQ5ML7CMwdbB7R9cq4R9WjqIiV319VatYhjquX5CfFb++BD4j7lcR2JGATAQY1m7xBWyIhgMSLe5B4cXIkwgYQEnUJKtzzNh8/Spm0e9SmbO1qPFaCE3WQgBQBBjUp0tQjQqBqSt1xTsJ5SEIZkkMeQnLI8VHqqkrV7OU4yadQ8HhUlHK3K0vrj6Lg8QIRXVRCAgIEGNQEIFOFFIHcYeYVT0nVd9TKndDW2fBs1KOrKqs933Hcq6OW25881oWUoEwdkgQY1CRpU5dRAtXltai36P7IqJL/CB+4vmN4O3oqjeBAtpoUXob/ntrT32xLN13uvwdbkoC9BBjU7PUNLQtAoGJC/e6JwepZiWW7XH3HdV52rMmUeBRgfh9mnI8HQBC6aRRHEkIrZ0cSiJgAg1rEQCkuHgLVZXU3omDxORLasZd2NvbSbjatCwkv8zBbC3WgO7htrAsZnBl72EiAQc1Gr9CmQARy9R0TSi8VqZ8oWGZKutKI52WPbE/fITI7DORgNiaBAAQY1ALAYlM7CRRCfcew5HCIfA4OkRufFfbYp/VyZEJOCWsr+5GADQQY1GzwAm0ITaCqvHa2o9z5oQUE6aj1PLz0zwzSJYq2krdke0p9tr2z8foo7KYMEoiDAINaHNSpMxICPfUdR6MQsKP2jkTgDoTEmUwhfD3NG5tWrx+7dNVdb5pmSvkkYIIAg5oJqpQpQgDJId9FcsjXJZQhOeRiJIdcKaGrPx1Yhrwey5CfltGvr8VloufJ6KIWEoiWAINatDwpTYhA9cSaA9XgZOQHn/szHwHtWQS0cUJD61eN5JGFnAFexitvX97cFeeYqZsEwhBgUAtDjX1iJ1BdVr8AZ9JOlTBEe+qUtnTjbyV07UgHzq59ERmePxWxQ6u/oC7kUSK6qIQEIiTAoBYhTIqSIVCZmnmE6yb+IqHNRH3H8HbPdavLupcgmE8NL8N/T89TH29PN/7afw+2JIH4CTCoxe8DWhCIQO7FvqILe2mTA3UL0RgBbTPuN5tkor5jCHN6umAfsRJjbwvbP0g/1oUMQottbSHAoGaLJ2iHLwKSxX4xU/kxZir/68swwUYIbLchsJ0hoRKB/TLsJ35bQhd1kEAUBBjUoqBIGSIEDhlz6ujBI4e9UCz1HcNCyyWNuEP088iGHB5Wht9+mK1tVDo7pi3d8orfPmxHAnESYFCLkz51ByIgmdbuaX1Oe1fTrwIZKNgYSSMXIGnkKgmVWqs72roaayV0UQcJ5EuAQS1fguwvQiBX3zHpqCdElCnV0drZWCmkK7QaBPluzNYmhBYQoGPWU0d1pBtFknMCmMWmJLANAQY1PhQFQaCY6zuGdQD21j6EvbV7w/YP1I91IQPhYuP4CDCoxceemn0SqEzV1rmu2+izeX7NtLoN57POyk+IXG/JupA4r/cFnNf7hdzoqIkEghNgUAvOjD0ECUjXd/Q2Ogd0PNX4b8Eh5qUqVxcy6TidOHqQyEuQv86sC+mPE1vFSIBBLUb4VD0wgapU/bccV106cMv8W3haXdje1SiSfJG/tf+VgOoq1yAjVKRWIwo7/7yts+ncKO2nLBKIkgCDWpQ0KStSAsjw2w8Cn0aW35BIBfcjDKnrz4zoemXSo+rRjGldUctPpWpGDneSz+G2gt2jlt1XHjhpz3GmdHQ2rjCti/JJIAwBBrUw1NhHhAD2i+7Ei/pjIsq0d3JrV7NM0oWBAVWW1Z3tOs5NBkRvK5J1IUUwU0k4Agxq4bixl2ECpVvfMTxYzGxbMautCi8hSE9vZmtnc0uQHmxLAhIEGNQkKFNHQAKlXd8xIKz/NK9O1R6sXHdp2P5B+uFA9svrdGZMOt2yKUg/tiUB0wQY1EwTpvzABCrLa891lfuzwB1DdMAW0Q/bupq+GqKrlV1wIPsWHMiWOZKg9bdau5rmWgmCRpUsAQa1knW9nQPvqe84alju8s9dTFuITL5X13nZsZhtrDGtS0q+eF1IpQ7CR8HfpcZHPSQwEAEGtYEI8d9FCWBf6BfYF/qchFJUoD8bFehvltAlqaOqvP4i/LCvkNGp72ztbKqR0UUtJDAwAQa1gRmxhRCBivL6Sa7WTyKomX8utX4CS2eHCA1NVM0MNSO5tnxv1IVUYyUUe172yPb0HY9L6KIOEhiIgPmXx0AW8N9JYAsBHCL+Mw4RHykBRHtedVu6WeSyTYnx9NVRnao/VrnqjyK6e+pCTipTaq4noo9KSGAHBBjU+HhYQaC6vBZLWO4dEsZgL+1WVMWYI6ErTh34SFiAj4RTJWzwlHdee2fztRK6qIMEdkSAQY3PR+wEUBFjMCpirMKi496mjUFAW1do9R3DMpk2dfa+WBpcKVGRBTayLmRYR7FfpAQY1CLFSWFhCOAKlctwhcrcMH2D9inU+o5Bx/lue7CdC7aXhe0fqJ/W12GfUiTJJ5BdbFxSBBjUSsrd9g22KlWzFwrMY5bG+o4mvNMzC3YTz+Hs2j4m5PeWybqQpglTvh8CDGp+KLGNMQKo79iMZceZxhT0Euwp50PtnQ33S+iySYfwfXR/wX10R9k0ftpSWgQY1ErL31aNlvUd5dxRXV63EHeuHS6hETO2OhzIbpbQRR0k0JcAgxqfidgI4JDwMjyA5SIGaP1J7PfIVLEXGVAwJZVT6g51E87iYL1Ct34x+9qaiR0v/XZdaAnsSAIhCTCohQTHbvkRqCqr/ZzjuL/IT4r/3rn9Hjzs129wB12wbNm8tf57Fk9LpPhfhxT/z0iMCFmm38GxCZHLXSXGQx2FQ4BBrXB8VTSWStZ37AsNse3vyAY8A+WxHisaoD4HIskdnDfCLNaF9OkbNouOAINadCwpyScB7O+gAr9zrs/mRpphJnHDRmfQV0pt1iY5Q0Zg+w321mQueTXylFBoIRJgUCtErxWwzVVT6lNOQnVZMoQXPa3PaO9qetQSe0TMwDLkE1iGnCqhLOtlj+1I3/GIhC7qIIEcAQY1PgeiBCTrO/oZGC679Bylrxze9cplj6pHM376FHqbqvKZ73dUQmb5lXUhC/1xKTj7GdQKzmWFazCWvj6K5JBfWzqCjs0Z52NLljc8b6l9kZqF84F34nygyNIgliHPxzLkNZEOgMJIYDsEGNT4aIgQeKe+Y+JpVA7ZX0RhGCVar1GOPru1s7klTPdC6lORqtnfdZMr8QIYZNxurVZvWrN+/6Wr7nrTuC4qKHkCDGol/wjIAKgsr/+Mq9R1Mtry1KLVbRvc5OeLPYkEF7J+Dx8ZF+dJy193ra5HpZHP+mvMViQQngCDWnh27BmMgIPrZT6ulfsdPHQTg3WNobVWT2cddUpHZ+OKGLSLqJy+b82wzC6J51EXcg/TCnPnBLPKOWRxV+My07oov7QJMKiVtv9jGH1Noqo8eaajFSrzqwNiMCCASr0eVf3PRXbkrwJ0Kqim1alZZypX3yphNJJyWtu6GqdJ6KKO0iXAoFa6vo995LkzUzgI/S2JmUI+g8XLuGmdznwqnW5Zk48cW/vi3ODfkAgtEmw8z6tvTzc32cqCdhU+AQa1wvdhQY9g4sRTRo1KjpjruOo8kaSFsLSwHOllvY+2L2+25Yxd2JFs0686VXuwct2lkQncgSB8ILycfDMzbuGLLesl9FFH6RFgUCs9n1s54mmTZx3kJb2fYtZ2kpUGbjHK8/RH2tNN99hsYxjbcJnoTZg1nx2mb+A+Wn0XSSPfCNyPHUjABwEGNR+Q2ESOQGV57UkIbFfjPxPktPrX1HNY2/G+irT/H/vvZX/L6kmn7aaSQ5/DPuco09ayLqRpwqUtn0GttP1v5ehnqBnJNWV7f9lV+lLMHkbaaCRqR/4fqtDnKt5rG+0LYxNS/L+IFP+fhukbuI9Wd2G2dlrgfuxAAgMQYFDjI2ItgalTT9tzqB7yEyQxzLLSSK1+h/NsHyue82xz3aqy7jQqjUyS4K2z+gNtTzb9UUIXdZQOAQa10vF1wY40d0O247rXYUmyzLZBYMbWldmkTljS3fSSbbaFsad6St1RKuH8KUzfoH2wlLsCKf6Tg/ZjexLYEQEGNT4fBUMAqedfVtr5HvZ9htpkNPaIXsk67ocXdzZ02GRXWFtQF7IRs7W6sP2D9NPa+1JbV7PMkmcQw9i2YAkwqBWs60rT8FzNwoSbmI8lyaOsIqDVBlxjU1sMmZEVk0/f201knsP+2hDjjFEXMrtJje14qvHfxnVRQUkQYFArCTcX3yCryus+7WjnKszadrJldLlSULDnMiSQfMcWm8LaAb4oZ+aIpN2D2o1YhvxUWFvZjwR6E2BQ4/NQsAQOnlDz3sFDEjfi5XuiXYPQDa2dTbPtsimYNRX7nDzc3XXEM5it7RWsZ7jW2YxX0bG8eXG43uxFAv8lwKDGp6HgCeBs27mucn9m10D035z1iRMWrbz9bbvs8m9NZVndGa7j3Oa/R/iWmK0txGztfeElsCcJvEOAQY1PQlEQmJaqmeK5yTvwQKdsGRBe1Es3r1l/TCHfI4akkSVIGjlEginOtZ/e1tl8u4Qu6iheAgxqxevbkhvZ+PEnDdl12M4/xLfaubYMHiez087mDUe3rljwmi02BbGjMjWr2nX1oiB9wrZlXciw5NivNwEGNT4PRUcAdQw/pB1nPh7u0VYMTuvl2Pc7ZlFX4z+tsCegEdVl9bdiTefMgN1CNUeuzRVtXU1fD9WZnUiAy498BoqVQFWqZi/HSbbgZXykDWPEjO3ZzCZ9VCEe0s6xVG7iGQTm4aZZgtNmpfU4BLa/m9ZF+cVJgDO14vQrR7WFQFWq/lu41uZSO4BonP1KvH/RsttftMMe/1Zgb+1i7K19z3+PfFrqu5E9emo+Eti3dAkwqJWu70tm5LkyW66T+DVmbe+Jf9B61caN2SOfeKrlH/Hb4t+CXJHptWV75VL89/ffK3xL1oUMz67UezKolfoTUCLjr5hQv7s7WN2J2cbR8Q+5MGdsmPWejFmvyF1yWIbsbutsFCmsHP/zQAuiJMCgFiVNyrKcQE2iujxxtR3ZkYU5Y8My5O/xYXC8jKO9/y22e+tkuJW2Fga10vZ/SY4eL+bTcQ3aTVhKGxwvgMILbBVlteNcx0U2pxpknB3rQhpHXIwKGNSK0asGx1RdXn9qa2fjXQZViIiumFI3zXWdezHr2F1E4XaVYClSO9MLKd0ftyXg1m/nyyLctL6ptavpkyK6qKQoCDCoFYUbZQaRC2jQtAB3PT+plPe11q7me2U0m9GSq0afSGZ/C+kVZjT4k5q7k23z6g1HFUrlkUPGnDp68Mihz+BW8l39jTDPVlpXIbC15ymF3UuEAINaiTg632GmUjWDhzuJp3tnv+Gg7ONau19pTze05is/rv5bqpA0Y+bxkbhsyOlFNY3WNza8+f6VKx/YGKcdfnVXldV9Ec+CyD1oOTaoCznNr21sV9oEGNRK2/++R4/itl9Hcdvv9t9B353R+uLFXc3LfQu0rGFVef2liCxz8aKO7TeBGduDbZ3ZDyvVkrUMTz/mzHWry1Z0Y7Y2XsJW3FV3ZntX0zwJXdRR2ARi+wEXNrbSst5fRQmcLNLObZnN+huFWDUj59HKVN0pCNzNMd+s3YI9y5mF8IT18HKduyVsRcB/NflG9oCFL7asl9BHHYVLgEGtcH0nZnnQ2n9Ylvzh5jUbvlsoe0S9QaJuZCVu+nwQ87XdxAD3UQR+16BM1Plx6Q+iF5eJPoTyWccF6RO2rfbUlW3pxovD9me/0iDAoFYafg49yjyqtP8LeyH/i72Q+aGVx9SxJ21dOY9gJXK/mExQnlYXtnc1XhWXfr96qyfWHKgHJ7slUvx76kIqZ1JbZ8Ozfu1ju9IjwKBWej4PNOJ879PCi+hPeBF9otBeRD1Lrk4SgU3FUtUCszWgc+rwUXBHIIfF0BhJI1fhA+ACCdXAci9msSdL6KKOwiTAoFaYfhOxGktLc7C0dHO+yvAi2gQ5V/1rzZDLV626ZUO+8qT6V4yt2dkdnsxV0KiW0tlbT25m4mT1ca1PNv05Dv1+dU7ft2ZYZnQSdSHV3n775NOOdSHzoVf8fRnUit/HoUZYsc/Jw91dR+QK2O4VSkD/nV70lPfp9s7mByKUaVRU7oWdHZ1cgOSRE4wq2p5wVNXAXtL0ticb07Ho96m0OlU3S7mOyK3VSBp5qq2zaaJP09isxAgwqJWYw/0OF7O0KzG7+prf9sHa6btRqf4LhVSpHjzuB4+Tgo0zqtb6H9lMsqpj+fyXo5JoQg6WIR/HR9D7TMjuKxOz/69iGRK3nPOPBLYmwKDGJ2IbArnNfzU4aXgzXudSsy/BvVk/KRQXILA9gMB2Ykz2diDVvzIm3b7UHlY+qyKptEzlD63XwBfjC6m8mC+IbJQ3AQa1vBEWnwC8vO/GC+MUiZHlEklcrWYWwsupouLTg9xNb98TV2DD7KQZs5M6Cb+E1YEjEbfhQPYZYfsH6YdlyFuwDPmJIH3YtvgJMKgVv48DjbB6St1RKuEgY1HuD4HtTUfrs1Hfb4Gc1nCa4g5sqLlp9XUsuXqabjKzEoF/eDjCwXpltDp4cVfjsmC92LqYCTCoFbN3A48tV/qouxNJEVMCd42ig1a3rdWZL6TTLWuiEGdKxjuBbTX22NQHTOnYnlwk+nuOVse3phsfltbtVx9ma5dhtjbXb/t82rEuZD70irMvg1px+jXUqFA55DwEtGtCdY6qk1bPw4Z67B8tjEqkCTm5Qsi7DBv9e/yA3m9C/o5kYtntLWdT9tDW7pbnpHX70ddT/NpNPIfZ2j5+2ufdxlNzEORvzVsOBRQFAQa1onBj/oOonnTabnrQUCwbqdH5S4tCgvcD3HpsKPsyCvuUwst75Ag38Qcckj48GokBpOD6n+zra6o6XvrtugC9xJqKpvhr/crbm9dN6O6+Z7XYAKnIWgIMata6RtYwVA75OQ7Pfl5W6461YWlpqZPxaltXND9lk129bek5oD0i8TBmJYdJ22h74gguE/0bAr7QlTH2fwRJPx+lqo9BrVQ932vclZNry9yk22klChw+VtqpaU03/M5K+2DUO4Et+Th+TClpGxHYzkdGZLxLxtsZdK44NPbW2qSYOBlnwqLlDU9L6aMeOwkwqNnpF1GrcJfYY3HsDfkfpM56nnNBe7rxav99ZFseOrFun0GDFS5Ldd4rq1lnHEcftWhZM2ZF9v1hBWAeVgBOl7AMWbQPtXU2Hi+hizrsJcCgZq9vRCyrTNV/zHXVnSLK8lSCl9btbZ2Zs2y9RLNyas1E10u2ItFlpzyHGqy7Vv/c4G6YumzZgn8F62i+tb+7+CK0Q+sP42jIfRFKpKgCI8CgVmAOi9pclDZ6HqWN9o9aril5WG77q5PZeErrigWvmdKRj9yK1MxjEm5CPN0e+4+PoaL/jHxsN9W3urz2K0q5PzIlv7dcfPg8i9naOAld1GEnAQY1O/0iYhVS+C/BrOJyEWURKkFg+7t2s8e3L2vpjlBsZKKw5Iabq3UTPhZkf19az8Us5VuRDSQyQXPdqrLutNg1PtN4yB0AACAASURBVJ76GlL8fxCZ+RRUUARkf3QFhaa4jd2yB7QSe0DDCnKkqP2HwFHf2tV8r432I/MPxxGcK6Vtcxxvuo37axWp+iMTrpK5QgfPhtbZg9rSLa9I86e++AkwqMXvg1gskNzANzpAi7/KUUPzZqT6zzE6/m2E6+fe2rTuYBvPbEk+czigfivqQgqzl/U0tfVPgEGtBJ+MytSsatfVi4pn6PpaVPs/z7bxzFAzkmvL9n4Iy25Hi9qm9TwsQ54pqtOHMum6kNrzqtvSzWJHCnwgYBMBAgxqApBtU4Ev5iV40R5im1352IN9tt+M6Hql9lH1aCYfOVH3nTjxlFE7DxrRgb3Lg6KWvSN5nqdr2tNN1mW14vjIpXjpyOz7af0EgntRPeeSz1Ch6mJQK1TPhbQbL5VPwOm/Ctnd6m7IAPzDRjd52rJl89baZGhFWe0413HbRUuQ5W7MVjqFg9l/t4lFzpbq8vqcTftK2IVsyLORDXmzhC7qsIMAg5odfhCxYvq+NcMyuySexz7PHiIKY1CCF/mSpJf9wMJ0y+sxqN+uSnxMHK20ehgzZFfQrodRGPo4QX2+VOFsZD3ORjb4apxnIzwPr67zsmNtv/khz2Gyey8CDGol9DggceFKBDSriwRH4Q58nXdjZvSBRctufzEKeVHJiCMjUmvv821dzb+MagxRycES+F8R4KdHJW9HcjCD/xHO8F0goYs64ifAoBa/D0Qs2LIEthwOHySiMGYleJG9rN3MMbadZcPL/B68zE8Ww6PVhqzOTOxIt7wgptOHoqrUrEMcVy/x0TTvJvjI2YzjFZPaOhuezVsYBVhPgEHNehdFY6D4yzQas/OSkrtRW3ne/9iUATd16hkjhnqbl6LQ7/i8BhegM5JoHsfe2pEBuog0RcHj28DhDAllrAspQdkOHQxqdvjBqBVV5TM/4KjcvV8Sf/pazJI+gmIa+0loG1BHz0FcfaxNga1qSn3KSWikmksefPf+F/fT/XhAXoINcin+iWTmGTEO2jvZ1sP6gtiLXhWDWtG7WCnM0pZLlCjCpnwXDryWl5fP2mWo9m5DYPuwFXi1fj3rOEd0dDausMIeGFGdmnWmcrXobc1Z7Y3v6GpGELHnrypV9w3Hdb4jYRHrQkpQjl8Hg1r8PjBqAeo7noczUiL3bXlaH9Pe1fTouwOSLGQ7EMTcHhvKak2zKcVdcvltCx/rsiHHjJkzdI+RG56SmtkjsF2MFH/x8mUDPZ/89+gIMKhFx9I6SYeMOXX04JHDXkBQG2XcOK3uau1qPK2vnqpUbRX2Te604SaA3Jd60stU2ZLunztikR2dfEL0YLanZ7emm0TS6f0+c5LXH2E1YZ3ysuNYF9KvdwqvHYNa4fnMt8WYCfwSAeWzvjuEbNiTXab1uO3NgqaNn72TNyw7D8cJTgmpIrpuqDKxVmePtOXc0rRUzRTtJHMVR4ZGN8jtS8KM9d/rdOZAW8b/rqU4bvIQng+RM3VgMB8p/iIJKhI+pY6tCTCoFekTcVhZ7eSEcnDdh/nrT/D1+33spV00EMqqstrzkRTwA5g0eKC2Jv89dyfbGxveOnblygc2mtTjVzZe6J/GC/16v+3zbYfx/xIfIJ/PV06U/asn1hyoBye7pY6csC5klN6zSxaDml3+iMwaVLB4DM59f2QCtyMoV7Eh+Ub2gIUvtqz3owslkqbjS/m3CLW7+WlvrI3Wv2/tyn7Qllu0EdjuR2A7ydh4ewlGUNNZx61a3NnQIaHPr46qVP0VjqsG/DjyK2+H7VgXMhKMNgphULPRK3naJLlHoTznrNZ0w21BTMZt2/vhBX4vltymBukXfVvdgOr+s6OXG1zi1Kmn7TlUD81lZ+4SvHfwHvgYWYzZdUXwnuZ6bCnjthLPxj7mtPxXMhKbzkFiU1HWQZXgZ6sOBjVbPRPSrlSqZvBwJ/G0RGIGZlxLsTdxaBhTtyRJ3InAhtlSfH9+l04lLKwsr/2Iq9y7JHT16AjxQWLatsqyujNcxwn0kRTWJtaFDEvO7n4Manb7J7B1kud+PM+Z1p5uaA1s5H87OJi1fRcB+OI8ZOTdVSvv9LbO5tvzFhSBAJwpbMTSbF0EogYUgZf6Syj2m0sa2TRgY8EGWIpdjNlaqI+l4Gbqn2C2/pXg/djDVgIMarZ6JoRdVamavZSbeAYvhOEhugfsEt3SXWWq7uN4kd8eVwJJLnvT0fp9uHurPSCEyJvnDq4PUzq3DLln5ML7EYixX4ZzW9+W0OVXR8WUummJhPM3v+3za6ezWrkTWBcyP4o29WZQs8kbedqC5JD5cKjAHpFev3mTGr+ku+mlPE3+T/ee82yuc19c1+LkUt0zWadyyfKG56MaU1g5leWzPugqfV/Y/sH66fXZTHJcx/L5OJxuzx8Siu6ANTUSFmHG+kfsL35AQhd1mCfAoGaesYiGXFYhFP1VQhleApfiJRB5aaNDJ886IJnUD+OhHCsxjr46MGtJr/Myh9twhkt0GVKrm7E3enYczLen85BJdWMGD3Kek7LJU96p7Z3Nd0vpox5zBBjUzLEVlYx9iA7Mcg4zrRTZ4H/HGaf9Tek5eELNewcPSf4RD+ZEUzp2KFfr+7AMGXvNyp5sSG/o00ik2UmCQ0argxd3NS6T0OVXB57pb+OZ/qbf9vm1089hby2Wj6n87GbvvgQY1IrgmUDG2NnIGLtJZijeTFR7bzGpq3rSabvpQUNz5+xSJvVsTzYC9w8RuL8ah+7eOiUzAXEr9yMoc3Zs3GPurV8ykzenFyn+lyDF/3s2MaAtwQkwqAVnZlUP/PBHDncTz8rsRelF+Jo9XAJArm7loJFDf4/kkSoJfX112JIRiWVIMFDHSzDAEtwHsQT3gIQuvzokz1yyLqRfr9jdjkHNbv8MaB0q4X9fKffCARtG0EB6iWrixFNG7TRo+AMIbEdEYH5gETaUUuo5qO44IrdW5/YUkQlZFhiU4Q7YL/4jVIjMIsHgdjA43fCQKN4gAQY1g3BNi64oqx2XcNyVpvXk5OMr9gYkh3xGQldvHRX7nDw8sdvI30q91HrrzlX13+gkpy5bNm+t9Lh76xM9e2hhlY2K8vpJCaWWS/kAy89HYPlZJOlKakylpIdBrYC9ja941FAUuIgTt0dv3pAdu2Rly6tx4ZJchuszxsbWzsZZcY37Xb24F28VkkYOMG0HXuivbHQHjY87kPcdp9SNEz16WRfS9GNmVD6DmlG85oRXTak7zkk4D5nTsNWc5SvYS/uJjK7+tUydesaIId7mR+LYY8MZtjOQ8j4/zvHjpX4arhH6jYQN2tPfbEs3XS6hy6+OXDboED3kOZnCAohrnv40GPyfX/vYzh4CDGr2+CKAJXPd6rIV3XjJjQ/QKVxTrVcO73pl8qPq0Uw4AdH1mp6q2TXjJFoR2MZFJ3VgSViGXLt5sy5buqJp1cCtzbWQu3lBvYll133tm63VX4LZqlSwfWOtl9nfhjOL5p6o4pTMoFaAfkVG2JdcV8nMnLT+MM5tCVW3GNgZWyr8t+Hl9p6BW0fXAnuKS9o6s8jEbMlGJzWYpNwdeUnH6cSddNhiMvtn6oB9PlaPH3/SkF2H7fwMxv/efOT47YsZ+k8xQ/+S3/ZsZwcBBjU7/ODbiooJ9bu7Q3Tueo6dfXcK21Cr3+Hs0olhu5vqd1hZ/dSk0o9jpjrSlI7+5Xo/wBm9r8nq3FpbdXndz/BSP1fABitnKthbPR1HHOYJjL9HRUZ7UxZ3NYslqUiNq5j1MKgVmHeRMHAdZikCWYg6m9V6YkdXM76M7furTM08wnHchyWLIOcu11SeOr7tyaZcinksfz0Fj7XOJY0YrzRi495aDjoCO4odO9NEHKDVX/Bhd5SILiqJhACDWiQYZYRUlNeUJ1RSqJSR/huSQ3L1JK39kzyY+y6EXHagt8kp73iq8d9xgcHe2kX44V5hXL/Wr6/V2QNs21c6rHxWBWbqcjcqaP1RLMEvMM6bCiIhwKAWCUYZIVKJAv99gavHNrobZi5btuBfMiMMrgUz1/Mwa7kmeM98eug7EfBFKsj3Z+WYMXOG7jlq49P4t33zGYWfvpibfh37SuYDqB9jerVBXcibsQQ/J2C3kM31Kvj7wJCd2U2YAIOaMPCw6lA5BC9RN3cdh+gfXmove54+rePJpkWiigMowz7Lr7DP8okAXfJvGnMCjVhdSK3+uVb3ZAFadZHolr3l5wVT/K075pD/Q1ycEhjUCsSvyPp7AftH+8VlLgLbue3ppp/HpX8gvTjHhYxIp3KgdlH9+5ZboyfGuTQndUM0Cv2eg0K/v4qKXVRy8Ju4AL+Jq6KSt2M5ev3GjdmDnniq5R8y+qglLAEGtbDkBPvh5fVNfJHGfjsx9pOaX10zdM6qVbdsEBy+L1UVk0/fO5HMLkVjkRuje4zS+jrstXzOl4EGGlWW157kKvd+A6K3Fqn1coxzinE9ARXMUDOSa8v27sQsfVLArqGaY9WiCUux9aE6s5MYAQY1MdThFOXuFxsyJIH9E2dYOAkR90IJIa2zJ7alW16JWHLe4qZNrT1ca3dh3oICCPC87JHt6TseD9Al0qaYrfxFpOCz55zYmm74XaTGRyAMy7AzcO3SIxGI8iUibn/7MrLEGzGoWf4AoEJ5A0y07evwRcfLnLAo3fKkbfgqy+s/4yp1nZhdWj2dHTIq1dFxw2Yxnb0UVU+pO0olnD+Z1o1Zyh8wS/kf03rCyEdgb0Jgrw3TN3Af1oUMjEy6A4OaNPEA+hDQcin1dlYLR5FjpZ2PtKYbHw4wJJGm2F+7Eftr54gogxLsr12OGwyEbmjedlRYnn4Ay9PGD8nrrCpre7IxLcXVr55DJ9btkxysnpZKGvGU+mx7Z+P1fu1jO1kCDGqyvANpqyqf+X6lEtfCSeWBOko29tQcBLZbJVX60YWv98fx9f4+P22jaONlvPL25c1dUcgKKqNicu1hiaTbEbRf4PZa34S9tU8G7ifQAcddLsXv5FsCqrCVql7bvGb9+KWr7npTQh91BCPAoBaMVxytnaqy2tPwFXopZh8Hx2HAgDq1nouXncgLZUBbtjTI1YgEr+V4wEf47ZNPu3dqQzYdlo+MfPpKXEOERKGNb29et0d39z2r87HVRN936kKOzl2mKpMopNXPUGnkiybGQpn5EWBQy4+faG8Et4/iRf0tBDjrbifG1+uN2HP5lCiQAZRhGfIc8LpRyqY4U9/llqp17NcQbc+f1an6s5SrbpHyt63LsVLjt1UPg5qtntm+XZi51c9GGnOuyoPxihKB8Gh1G75ezwrUx3BjVBx5EBVHTjCs5h3xOKj8+oY3D1i58oGNIvr6KBHJhMRVRJiVHxTH+HzodLC/uEzso491IX24RL4Jg5o880g05kol7TFiwwWOq75uTbp/z3td3d7W2Xh6JIOMQMi0svr3eI5agQd9dATiBhQRZ1kpzEw/hJnpvQMamWcDT6v/ae9q/EOeYox0x97a0fD1o0aE9yNUa+9jbV3NIpe3So2p0PUwqBW4B3OHjt1k5gpEkzORGGGFP7H3sqCta9LHlZqLRLH4/ypTdae4rnO3hCXYW3trg3IP7OxseENCX18deKnnAvhEk7oxxnuwf/gRkzrykY2VjDvxS/hYPjL89sWz/sI6nT3ItjJifu0vxnZWvASLEaz0mHIHjz3PvVmquoKP8bW0djbO9NFOpAledPPARmQGGeflklL3jWW9zAEd6ZZcYoZ1fxWpmv0TbvJ5KcNsvFBVauw26mFQs9ErediEPYXvYE/hG3mIiKzrOzO2po9GJjAPQdPGz95JD8visLjMrclqU2Zsa3fLc3mYHLorAttLCOB7hxbgp6OFGa+9zZb+HeBuv/0WLbv9RT/o2MYsAQY1s3xjkX5YWe3kpOOgAK1zeCwG9FIa56yl79gry+qPdx31eyEmjZipzhLStZUaJMdcguSYy83qtvs6lop9Th7u7jYidyB7H7Mc3pGO5/wOZP/KVDWRGFAB62BQK2DnDWQ6UpwvRIrz9wdqZ/rfbarwjz2n+XjoZ5sec05+NuNVdCxvXiyhq7eO6kmn7aYGDTV/iamnjrOxosy7LKrKa2c7yp0vxV+r7NFtnXcYL1kmNZ5C1cOgVqie82l3riqJo90FyIrb1WeXyJvhKxYJiPoUpILfF7nwgAJzL3w9aOhKkWzIGFO+kQl5E3x+dkA8AZvrBlyeKfKBENCw/zSXup5ny3TNytsMwrIr1H4MaoXquQB2b6n0/2ssR04L0C3aplptyDjOkYs7G8yXcxrAcrzoPo1lKZHafVntndDR1Sy15PmfkVdOri1zk25ntE7cVlp2bWZ0x7Mtb5nWE1a+9M0NSPH/PFL8fxnWXvbLnwCDWv4MC0YCXuaoI+l8ITaDcTg5qzPVNmTNIZliEZIpqk2zwCz1Mey1zDCtpz/5OIz9CE55mNWt9ecwA5e7FSEESPi6Eb6uC9E1eBetX1/vuOPjOtIR3ODi68GgVnw+3eGIENjmILDdHNewkf7c9erqoVVxXzRaUV5TnlDJZRIcsll9eMeTTYskdPXWgZf5TLzMm03qRdBeiKAtVjg6zFimTZ29L2ZQfw/TN0wfPOM/xzm+c8P0ZZ/8CTCo5c+w4CRgv6VSK+dBvPB2i8V4S8ppIUvwB8gS/KppBnEdVt5yM/TL8PPuJseIoxv74+iGWNAIMxbJKv7IhcxmUZ+1o7NxRRhb2Sc/Agxq+fEr2N65r1dPZ3P3cMVTHFnrT2LZ6qY4AfaUGhu54Sks0e1n0g689LWT0ZNaVzQ/ZVJPf7IxM78SPv6aSb0om3UhymZdZVJHvrJTqZrBw53E0/D1/vnK8tU/xiQhX/YVcSMGtSJ27kBD6znLs+sIVNpw5A9II3FEe6oy7ksnK1P1H3NddedArPL9d8zWbsGS1CfylRO0f/XEmgPV4OSzQfsFaY+Y3YaZmvH9ySA29dcWNxmciv9/Qb5y/PbHUZaa9nST8WfLrz2l0o5BrVQ8vYNxYjnyNqR/nyGNAi/DZ3A/16Fx388llfYd1zKdxE0FWM4e19bZYDR4RvF8IrD9EXKOjULWQDLg778j2MvMDAcypoT+nUGthJy9o6EiqeBX2HsRn0nYUEqrOjXrBOXqB00/CrjB4GrcYPBl03r6ypeYjWJsF2NsV0qPLai+ivL6SQmllgftF7q95eXEQo/L4o4MahY7R9o0zFhuwP6L/EWfFqSFV5fXoRKEc5RJ5liCXOds3rh/64oFr5nU0+/SW1n9W0iK2cmU3rhv/g4yLvj6Z/C1THZibpld6Qm2J9IE4Wd7WwY12z0kbB/ONv0Ce2yfk1Wr12e97KQ4z69VT6k7SiUc8yWOYvpyl6gwsmmzPnDpiqZVss9OcG2HjDl19OCRw543GeS3tkrficorNcEtZY8wBBjUwlAr8j54Ad6IPbZzJIcZ5yHld8eJmWouG/REo+PG4VxkfYofpUAd0GNRBzS3n2TsD2fBvoRqGj81piBCwdhnPA9B7ZoIRe5QFJZnZ2B59jEpfaWsh0GtlL2//bE72GNrkbpo8V0z4i58fFhZ/dSko54w/UhgH7EOy1FGD0X3Nwa8yF/Bi/w9xsan1SOtXY0iSRj5j2GuW13W3QkeU/KX5UOC1qgLOQnHZ+y4ONeHxQXbhEGtYF1n2vCaRFVZ4i4sRX7YtKb/yo9/GRLLr782fcQBeyx/RHr/B+S4vqMJY7sKY7vAnF6dddYndl208va3zemITrLYkvMWk+P+aIuOnN2SGNTs9k+s1uUOJ+85cuP9+Jo9RsoQLNP8Ccs0R0vp66unakp9ykmoLtP640iBr5hce1gi6ZotKO3p2a3ppgbT/KKSjxWJZqxIiNzQjmf7TWfzhvFxJApFxasQ5DCoGfZSZWpWtedkVy/uapZLI45wTFOnnjFiiM4sxINSHqHYHYrCTOYzmMncIKVvm8BWXnc/9tZOMqpfq+9iqU78hnJk/uE2bmeMwbHFdjlqmDH11IX0vKfx4TY0TP+gfbB3/AvUyoyvqHhQgwuwPYOaYadhyef5d0rz6D97nrqmECsM5KpS6MHJxSJ3kMEfuS/azavXH7h01V1vGnZPv+KrptQd5ySch0zqRuB+FYF7T5M6+pONmckPMTP5X2N6tV6DRJhRxuQbEIzEqMuQGDXXgOj+RXreIa3pZuN7t2LjsUwRg5pBh6CI6kUAfEVvFUgSeAWzgJuy2cTPO5bPf9mg+khFV5bXnuQq9/5Ihe5AWNyVzuG7LvguZXK82GP5CD5y7jGpo69sVNSYjv/vryZ1FtoN0NP3rRmWGZ18BsF+b5Nc3pUd9xK7xBjj1MGgZoh+xYT63d0h+nkEsOH9qUBw24glj1udTdkrW7tbsCRk/590pfOM1uVxLdtWltWd7TqO2YLLWt+HWY1gIs47zxhmay8ZfYFr/T2M6xL7n+j/WlidqpulXOd2KZvjyoCVGl+cehjUDNHHmadbENDO8ideNzhe9ruL0i1P+msfXyssp/5WLCMy5hRx+PBf8OEeJmlv3JjZ94mnWv5hUkdf2aYviy2UAsfbcCmr/yuCfW4mK/H3YuKNzISFL7asl1BWSjoY1Ax4uypVW+W4bmsI0Y2b12fOX7Ky5dUQfUW6VIyt2dkdnlgmdoWHUqe1djbeJTK4PkokZqZYZr0Ue2vfkRxfVfnMDzgq8QeTOhNeZreF6ZbXTeqIWrZIdmhvo7X+Fma0c6MeR6nLY1Az8ARgNtOKl35VKNGoOKG085XWdOOtofoLdJo2tfZwrd2FAqqgQj+HEkNjZXRtreXQ8TV7DBqW/JdJ3dhfeRZHGMaZ1NGfbMzW1m5vaTwKW5DlV4ssvzuikCUpA1yuB5dPi+hEXciszkyMszycyDiFlTCoRQwcezFnYC/mtnzF4gv+AS+TPMfWZBL8+L+JH/+38x2nv/76KwhsP/HXNtpWEiXDsioztaOzpTNay3csDf4ze2xB65swC/mk5Jii0JXbC08MVs9iv1skgxNLtb9BdZmPRWE7ZbxDgEEtwifhnUs3R66MbBMe6dHacb6IL/mbIzQzMlESle1zxubS35NvZA+IY/8BQa0S6d5tkUHrR5D29Dfb0k2Xm9TRVzZWE76I1QSDdRr1P/Ahsq/kmKLSVVVWe77juFdHJW8gOSjmfWxH+o5HBmrHf/dHgEHNHydfrVBb73J8JkSe9YWvueaN7qBzli2bt9aXIUKNDp5Q897BQxJpzNh2Nq9SX4SX5PfN69lWAwLbkwhsk43p1rods5pwy9UhjZo2edZBOqmfCtndV7fNGWfMkuUNz/tqbFkj+BwHsp3xEmZhCTqND1fUheRfFAQY1KKgCBn48t0P//U0vn6HRCRyKzG5W6JdnT3FtgxJ/Pg/ix//L02MubfM3IHsjU5y3zgCe3/nDaMer/Yye7elW16JWu6O5P23MIAZrZ7WZ7Z3Nc0zI92s1Oqy2g8rx/2tWS29pGv1RVSYwT1v/MuXAINavgS39JcohJtT5Sn12fbOxusjMjsSMdif6cBs7bBIhO1ISEx3kfWUUtLe302Oz1Peee2dzdea1NFXNj5IfokPks+a0olkkRuRLCJ/6WxEA8JB9dxVPTK3DmCrIbvJObDjqcZ/R2R+yYphUIvA9fiSPxogH41A1IAibLh3rJ+Xo/F9px6dWq1O6MyYOFLF4eM/wMfGKutjJvoQlqCOH/ABiLBBZaru467rtEQocitRGFM3xjTJlHzTcqWKW/9nHFpdj9masY8M07xskc+gFoEnMFPpxExFZE08jkw5P4gksgS3BLZYCgFHldW6I5abVq/fRbLeZfWk03ZTg4YanRng3OWeNp+7HOjZRjIUlgSdcwdqF9W/Z7Q6eHFX47Ko5JWiHAa1PL2OTKnPIVPqF3mK8dXd5grfuRekHjR0pemix2DwWltXBhddtmR9QYuo0fjxJw3ZdejoN01Wc49jDwols5YgW/eQiDBtIwb1LWsKsYj3uwM5ZMypowePGvYs/vcuphj1lovnuxVLttMkdBWrDga1PDwr+cDnEiU2KGdsZ2fDG3mYbLQrvmq/jK/aHxtVAuH44Z+BH/5803r6ykd2660Iamea06vvRIZnjTn520o2fXEobqb4cXu60dytAAKwJD9cc8PxPK++Pd3cJDC0olTBoJaHW/FC+CmyHb+YhwjfXZGo8Pm2rmbjWYa+DdpOQzB5AUxymaDG/pAJ+lccWD3CmILtCK5O1R+rXJVLHjD0p9cjqPVbANuQQmX69oViqUiP5fWlSKo52JQfesvFR9vLyTcz4+I4lykxPtM6GNRCEq4or5+UUErk4k+8GDqx4T41pKmi3ST2nnoGFNOdVNg/fdPkuTwsQR6DNPhHpZyWStWMHOEmV5vSh2d3LZ7dkabkS8nFx9r78LH2uJQ+FBy4HDVBvymlr5j0MKiF9Cay4R4DvPeH7B6om+dlj2xP3yH2gwpk3LaNHbB5wvRN2XGli+Pl1oSXW22ejLbbXXvq223pxstMye9Prul9tYz2psR1hVCUHDFbuw2ztTOilLk9WT1XUyl1EFYkjB4lkRiLtA4GtRDEkQp9ClKh7w7RNXAXvLzvwP6RsZdoYIN8dKgsn/VBV+n7fDQN3ST3o39787o9urvvMTbL2E4AOB2JFcYOFMdxZAN7hddhr/AzoZ0xQMc4EmBMjGWgOxIj16nVXUjxPy1yuUUukEEthIPxtY76jo5IZXVkVu63aNntL4YwM9YuSBpBFX/ncJNGxHFgeXqqZtesm3zN5Lj+tXrIsFWrbtlgUkdv2dgrPAt7hbeY0oclyKuxBIkkosL/k7iOaCtKnjoON3Y8XPjk5EbAoBaQNV4AF+IFIFKDEC+Dy/AyEKqEHxDEAM2xVHMalmp+E63UraXFdRklPmoex0fN+0yNDX6fAb8/Zkp+X7mm94fhp8exjHak1HhM6sEe3tR26AAAFCBJREFU5ODhbuI57KvuY1LPf2Rrvby1axLOwM5FMSH++SHAoOaH0pY208rq34MN3JV4WRvf+MaL4IVX1wydKPnFHgCFr6ZY1noKy1oH+WocslFWe+M7upqfCdk9VDfTtSDjuTi0/g1TZwwxnnVIehgRCraFncSSobaMHe+C8/FRcI2FKKw0iUEtgFsw+7gJAe3sAF3CN9X6o6jcviC8gPh7ShQ7jmM2W1FeU55QSZNVHx7Gbd/HSXoQHyAP4gPkBFM6N23WBy5d0bTKlHxpuXldBBzQWHwUvOVtdMazLqQ/cAxq/jip6lTtwcp1l/psnl8zrf6CDeKj8hMSf++Kik8PSmxa/U9YYq4ag9YrEfyNzgb7I4lit7msNDP3heFG5NauDFYD5KqmVKXqr3BcdZGxp0Z7J7d2Nd9rTL6w4IopddMSCedvUmoR2P4Ps12ZG7mlBmVID4OaT7BIe/4rst6m+2yeVzPHy6Rsu2Im7IAwW7sMs9u5Yfv76ZfNeBUdy5sX+2kbVRt8qf8C+2qfi0reNnKy+v2tTzb92Zj8PoIxnlqMx1wVC099DQkPP5Aaj4QeLEPPxwt0toSunI44nnOpsUWph0HNB83qVN0s5Tq3+2iafxOtfoZZmkiVkvyNHVhCVapmL+Uk/4EPAnfg1uFaxFGKqTJVW+e6bmM4iwfuJb2vdlhZ7eSk4z45sGXhWuCownwcTRE54xXOwuC9ep5tN/EMkkZEqsCwLqQ/HzGoDcCpYp+Thyd2G4Ebgp33+kMavhUe2n9vXrP+IMlK7eGt9d8TVTjuxg//FP89grbU/0B5KTNLgdsx5dCJdfsMGuz8I6ilftsjqD2I5aaT/LaPoh321dabKtiM8SzGeCqisNMmGVjBuRgfbN8Ts8nTs1vTTQ1i+gpQEYPaAE7DC/nbeCGLlKvBD/8z+OHfUIDP0Q5Nxn7NydivucfkuOK4ssPkzdF4Fl7Cs2D8Q6q3T0wmP+QOyyODb6jJZyAO2TPUjOTa8r278SIdK6GfdSEHpsygtgNG+JHvh4CWS0s3/mPES2wJXmLmb48e+Jkw0gJftC/hi3ZvI8IhFC/Nr+Kl+UNT8vuTiwPmWJJ2ZpnSiWnTrpK3MuAD7gY87+Zuqt6UGdva3fKcKV5xya1OzTpBufpBMf1axXKnoNj48lTEoLbDoFbfjBfxzDwZ++qOl/IReCn/1VfjAmxkesYb083RX0C5tGuNuUM8WaT2fFSwudrUeLTKHt/WecdDpuTHKdf8EvvWoyu2IxJR+o5BbTs0DyufVZFUuj1K2NuXpRuwJySWRSUzpq21VE+sOVANTuYuWzT2t8FJjly2bN5aYwr6CD6srH5q0lFPmNKH4sZfQHFjkQtoc2MwfQ0NSmJ8tr2z8XpTvOKUW5Gq2T/hJp8Xs0Gr25BQdpaYvgJSxKC2HWdh0/w+LDt+0Lwv9fpsJjmuY/n8l83rileD6TupPOV8qL2z4X7JUeI5eRvPySgjOrW+DmfwzB0b6GN0RVntuITjrjQylpxQra7Ci/hCY/JjFlyVqvuG4zrfkTLDyTgTFi1veFpKX6HoYVDrx1N4+VbibFWbhBNRwfwS3J8llz0lMajtfigYPrMWw3EIPCu/w7PyPyawxnEZKg6VYyXXzB/G8xsssX/MjPT4pY4ZM2foHqM25FL8pepCzsNHj8Gb2ONnGsYCBrV+qGF9/GY8mHPCAA3WRz+HZUeRrKlgdplpbXy5TqsVOAs12Yz1/Us1WbU9Vx4JyUOjJcdjtF6n1k/gJXyI5HikdeHdMQfvjpul9EonE0mNKx89DGp96E2ceMqonQYNfxXVFYbkA9ZPX1ydcmp7Z7PIvWx+7JFog4xBZL85Y0zp2rw+s+eSlS2vmpLfV67p2wiyXuaAjnTLC3LjMbnsrtfjI07koLIUr/70YLab24sXOZOHlZ5zsNLzqzjHa5tuBrU+HsGX9ycAxfxDovXv8dVqrICsbQ/au/ZgJvAD7EF91ZR90vtq1ZNqJ6hBbnfRjKe87sf46DB399nmDbu3rlhg9D46U77wK3daqmaKdpNpv+3zaRfHIf187JXoy6DWhzJeugvw0j3VNHzPyUxqX9Zi7GVo2v6w8qum1B3nJBxjad34kX8HS3aXhrUvTD+T+1DIrrgIsxuR+/tyY69M1X/JddVPwnDw0yerMlM7Ols6/bQt5DZYkfgZPg7OlRjDW5vW7iR9A7zEuMLqYFDbJqjVrTZ9X1octQrDPiBR93un7NhIc2n3McyA8SGUxofQlKhZ5eQhSN+KID3HhOz+ZBpfTtXeCbj/7vdS44lLT8WE+t0Tg9UzeC52Mm0DliCPwRLko6b1FIp8BrVenpJYNsjVd3x789qxpfxlZfLmaKTuvYlbo81dddPPLxvVUu7EIX0jWX14Xh5D8ssMqRdK5ZS6Q92EY+7GA0/NQbX+W6XGE6ceqaSROKrpxMl1IN0Mar0IYemlHksvZouFav1J7KXdNJBjivnfTd/dldHelMVdzculGGKmdjm+yC8xo0+vwvLjgWZkbyu1Z4YxRBlLtCmlIyw5utijX4aXbLlJ/yGoNeOoRJ1JHYUkm0Gtl7eM3/2ldTsCWlUhPSAmbEVQOxEFjh8wIbtHpvBswPTHEG7BFv2d4kW8BgpHGPFPDGcJjYzDp9DK1Kxq19WLfDYP1QxBrQ1BrTpU5yLsJPpjsZ0flpF+jmWkzxuzU7iWn7Fx5Ck4d2xi58Ej3s5TzHa7S+9Zml6yw0trf7y0cjdti/wZ3SPU6tdYTv24yEAsUYKkka8haeRKY+Zo9TQqtUwwJr/ABDOo9XKYyb0RbPmX1EHrgX4HeHE+gSW7qQO1C/PvCAL3IgicHKZvmD7T960Zlt0luS5MXz99sp46qiPd+Bc/baNoA988CN8YOW4SR5WUKJjkK8MsU/UaPhR2z9fGYunPoNbLk0brPcaQlWfzQ4ql3puQZXq2CRuRXCFfWaSs7mUc2N/L0HjOwEtrvgnZ/ck0eQVNHL6R4rYjPabrQkovUdvAdHs2MKhtPVO7B8uPRr7wi/2+tKAPeVVZ7edwzYmxCvTSP3LM8pfg2TFSAkp7+ptt6abLgzIO2x5B7Zso9fTtsP131A+/g1dxRGFPE7JtlmmynFpu3NLPu82sGdS2nqkZPXhdKgdP/TzwpjfQtXLGtXU2GL3qpvc4EQgeQCA40c/Yg7ZBILgBgeAzQfuFbV+dqj9LueqWsP0H6leKL2B89PweHz3HD8QmzL9j9svlx17gGNS2DmrXYS/B4MtD/w3p2dPDPLjF2MdoJQ7PObE13fA7KW54af0KL61PGNGn1e+QCGAkYPZnb0Vq5jEJN/GwkbFAqLPe3XnRytuNJQqZsjusXNNVdHDt+0pkVR8U1r5i68eg1sujWCK4CECuMOtk/WfPyX6qFEtk9eVq9H41rb6IQIBSRTJ/Js/e4UB5Nw6UT5IZiVLTJs86SCf1U6b0ldKtzSg08D6E8bvxwWMukYP79Vs9qgxqvWdq5fW5mo8LTP2YKVeOAJZkforkii9JacQe4fnYI7zalL5cZRFTsreVq5NIejnClL6McioXdzZ0mJLfVy5m0Rc7Shu/daOP3v20o6qxJF1mfpz6WqwAnWdeT2FoYFDr5SfT1RQK45EoDisRBJoQ1OqlRoMv8loEgiYpfYWsR6vs8W2ddxgrat3PisBryLTdtZCZ7ch2T6nPtnc2Xl+s4ws6Lga1PsSwBImba1XJXNwZ9IEpoPYPIyHhOCl7K8vqZriO84iUvkLWI32PII7qvIK98vcUMrMd2S5dFs52jgxqfTyEH8A1+AFwKm/7kzuAfdiH6sQ+lJHD3f2priivn5RQSqzeZCG7BxVfZrWnGxulxoBZ9AuYRe8npU9Uj9avI0lkN1GdlitjUOvjoIpU/ZEJV/3Zcr/RvIGCmlYvY/lxHylQ01M1u2bdZFFffhkVS+nbmpGQ9DSWH8dHZb9VcrS+CUHtk1bZFLMxDGr9OKCov+xifuAk1UuehxozZs7QPUdtXC85vkLV5Xn63PZ008+l7DdZy1JqDNvVw3qy26BhUOvnacHh0wtx+FTstuHYfxhFakB2bWZ0x7Mtb0kNz+i5O6lBCOiRvv/L6NERAV7bVcHzaf2iYVDrB0sqVTNyuJv4J9Jxh8f5zFJ3fgScjDNh0fKGp/OT4r83ZvgbsXcz2H+P0myJ/c7LsN9ppAxXf0Thl1b4peiufGLWY/+/Hwa17bxXqstrMVNzLyzN105xjFp7zqFt6YalUqNBqaw38SG0s5S+QtWjPXVlW7rxYin7sfz4ZyR/HSmlT0JPqdbQ9MOWQW07lKaNn72TNyz7Al9Sfh4jO9toz6tuSze3SVmH5cd/QlfJFesNzFerq1DtReyDEUHtYQS1YwLbaXMHrT+JBJGbbDYxLtsY1HZAvrKs/quuo34Ql3OoN28C70OyyMK8pfgUgJfnKrw8D/DZvHSbyQc1Y/fDxeFE7Ek+jvsCi2rmGSVHBrUBaOLWWrwUncOjhE5ZQgSEM8Ow/NiNmT1vIB7IvcJBDX65G345ZSCzCuPf9Xon4x4suVdcGFz+ayWD2gAeqyqfheoiehlAjSg055a6vVkve2xH+g6xKh8mb/MuJl+ihNmPcIbwAqkxofajsXsSpcbwrh7pM37S44tCH4OaD4qV5bUnucq930dTNrGIgHSNwWLNsovapeJBzeBdd1Gz2aE8redhH+1MUZ0FqIxBzafTcNblHFQluNFnczazgICnnA+1dzaIfYzgGWnDM1JpwdCtNkE6qBVFogivl/H9TDOo+UalFJYxTse9SPMCdGHTOAlo7+TWruZ7pUxAMezcMnW5lL5C1RNDUCvslH6t/rLBTZ64bNm8tYXqc0m7GdQC0q4qn/kBRyd+gyy3UQG7srkwAZyHOgnnoR6UUstEEb+k9U9w/9dX/LbOt10hLwtLX6GUL2sb+jOohfBC5dSaiY6XuA9VCsaF6M4uQgSwp3Y07u36k5A6hUzZZ5Epe6CUvsLVIx3U6pdgheWQguOl1Tdwnu+7BWd3zAYzqIV0QMXYmp3dEYmrkSo8J6QIdjNMQPrwNZanX8LLc2/Dwyp48dK3kmOv80nsdU4uGHBarQajmZKrDAXDxoehDGo+IO2oSc/lkEr9oqB+NHmOuVC6exmvvH15c5eUvQhqryKo7S6lr1D14PDwNTg8fL6U/YV09QzKX92gvOxlbemWV6T4FJseBrWIPIofzmkIbJdAXEVEIikmTwJZ7Y3v6Gp+Jk8xvrsjy+5t7rUOjEs6qGFP7XlsFew/sGUxttDqtqzyvi35vMY4WqOqGdQixluZmnmE67if0I5TxwPbEcMNKG7zJv3eJd1NLwXsFro5r57xhw6zkZ+3dTad6691/q3sXRbW67V2btdu5ofty1q68x8pJeQIMKgZeg56Lo0csbFWOfo47ahpLJ9kCPQOxCa8zG4L0y2vS2lmUPNHWjqoYRXlNayi7OrPOsOttHoS74MlqFL0p3VetiGdblljWGPJiWdQE3J5ruq/Hpw92HNVQkhlyatp72p6VBJCbn9VUl+h6kpk3X9I1i7E+cGLHK2HxsZLOy9q5T0heWNEbGO1QDGDmgVOoAkkQAIkQALREGBQi4YjpZAACZAACVhAgEHNAifQBBIgARIggWgIMKhFw5FSSIAESIAELCDAoGaBE2gCCZAACZBANAQY1KLhSCkkQAIkQAIWEGBQs8AJNIEESIAESCAaAgxq0XCkFBIgARIgAQsIMKhZ4ASaQAIkQAIkEA0BBrVoOFIKCZAACZCABQQY1CxwAk0gARIgARKIhgCDWjQcKYUESIAESMACAgxqFjiBJpAACZAACURDgEEtGo6UQgIkQAIkYAEBBjULnEATSIAESIAEoiHAoBYNR0ohARIgARKwgACDmgVOoAkkQAIkQALREGBQi4YjpZAACZAACVhAgEHNAifQBBIgARIggWgIMKhFw5FSSIAESIAELCDAoGaBE2gCCZAACZBANAQY1KLhSCkkQAIkQAIWEGBQs8AJNIEESIAESCAaAgxq0XCkFBIgARIgAQsIMKhZ4ASaQAIkQAIkEA0BBrVoOFIKCZAACZCABQQY1CxwAk0gARIgARKIhgCDWjQcKYUESIAESMACAgxqFjiBJpAACZAACURDgEEtGo6UQgIkQAIkYAEBBjULnEATSIAESIAEoiHAoBYNR0ohARIgARKwgACDmgVOoAkkQAIkQALREGBQi4YjpZAACZAACVhAgEHNAifQBBIgARIggWgIMKhFw5FSSIAESIAELCDAoGaBE2gCCZAACZBANAQY1KLhSCkkQAIkQAIWEGBQs8AJNIEESIAESCAaAgxq0XCkFBIgARIgAQsIMKhZ4ASaQAIkQAIkEA0BBrVoOFIKCZAACZCABQQY1CxwAk0gARIgARKIhgCDWjQcKYUESIAESMACAgxqFjiBJpAACZAACURDgEEtGo6UQgIkQAIkYAEBBjULnEATSIAESIAEoiHAoBYNR0ohARIgARKwgACDmgVOoAkkQAIkQALREGBQi4YjpZAACZAACVhAgEHNAifQBBIgARIggWgIMKhFw5FSSIAESIAELCDAoGaBE2gCCZAACZBANAQY1KLhSCkkQAIkQAIWEGBQs8AJNIEESIAESCAaAgxq0XCkFBIgARIgAQsIMKhZ4ASaQAIkQAIkEA0BBrVoOFIKCZAACZCABQQY1CxwAk0gARIgARKIhgCDWjQcKYUESIAESMACAgxqFjiBJpAACZAACURDgEEtGo6UQgIkQAIkYAEBBjULnEATSIAESIAEoiHAoBYNR0ohARIgARKwgACDmgVOoAkkQAIkQALREGBQi4YjpZAACZAACVhA4P8BMuSnCCB5Vw0AAAAASUVORK5CYII=;fontStyle=1" vertex="1" parent="1">
          <mxGeometry x="770" y="570" width="109.25" height="100" as="geometry" />
        </mxCell>
      </root>
    </mxGraphModel>
  </diagram>
</mxfile>
